<?xml version="1.0" encoding="utf-8"?>
<!-- Generator: Adobe Illustrator 19.0.0, SVG Export Plug-In . SVG Version: 6.00 Build 0)  -->
<svg version="1.1" id="Capa_1" xmlns="http://www.w3.org/2000/svg" xmlns:xlink="http://www.w3.org/1999/xlink" x="0px" y="0px"
	 viewBox="0 143.8 595.3 554.2" style="enable-background:new 0 143.8 595.3 554.2;" xml:space="preserve">
<style type="text/css">
	.st0{fill:#E0C6A9;}
	.st1{fill:#FFECD7;}
	.st2{fill:#CCB297;}
	.st3{fill:#F0D7B8;}
	.st4{fill:#72543A;}
	.st5{fill:#CEB69E;}
</style>
<g>
	<rect x="10.3" y="143.8" class="st0" width="574.8" height="143.7"/>
	<polyline class="st1" points="513.2,205.4 574.8,143.8 595.3,143.8 595.3,287.5 574.8,287.5 513.2,205.4 	"/>
	<polygon class="st2" points="513.2,205.4 513.2,287.5 574.8,287.5 	"/>
	<polyline class="st1" points="82.1,205.4 20.5,143.8 0,143.8 0,287.5 20.5,287.5 82.1,205.4 	"/>
	<polygon class="st2" points="82.1,205.4 82.1,287.5 20.5,287.5 	"/>
	<path class="st3" d="M556.9,698.1H38.4C17.2,698.1,0,680.9,0,659.7V287.5h595.3v372.1C595.3,680.9,578.1,698.1,556.9,698.1z"/>
	<circle class="st4" cx="174.5" cy="369.6" r="30.8"/>
	<circle class="st4" cx="420.8" cy="369.6" r="30.8"/>
	<path class="st5" d="M297.6,564.6c-73.6,0-133.4-59.9-133.4-133.4v-61.6c0-5.7,4.6-10.3,10.3-10.3c5.7,0,10.3,4.6,10.3,10.3v61.6
		c0,62.2,50.7,112.9,112.9,112.9s112.9-50.7,112.9-112.9v-61.6c0-5.7,4.6-10.3,10.3-10.3c5.7,0,10.3,4.6,10.3,10.3v61.6
		C431.1,504.8,371.2,564.6,297.6,564.6z"/>
</g>
</svg>
