<?xml version="1.0" encoding="utf-8"?>
<!-- Generator: Adobe Illustrator 19.0.0, SVG Export Plug-In . SVG Version: 6.00 Build 0)  -->
<svg version="1.1" id="Capa_1" xmlns="http://www.w3.org/2000/svg" xmlns:xlink="http://www.w3.org/1999/xlink" x="0px" y="0px"
	 viewBox="55.8 123.3 483.7 595.3" style="enable-background:new 55.8 123.3 483.7 595.3;" xml:space="preserve">
<style type="text/css">
	.st0{fill:#FFD7A3;}
	.st1{fill:#FDC88E;}
	.st2{fill:#FFE1B2;}
	.st3{fill:#FF6953;}
	.st4{fill:#E54F4F;}
	.st5{fill:#7E5449;}
	.st6{fill:#FFB422;}
	.st7{fill:#393950;}
</style>
<g>
	<g>
		<path class="st0" d="M195.5,492.8c20.8-13.4,18.5-53.3,18.5-62.6h167.4c0,9.3-2.6,49.2,18.2,62.6L297.6,607L195.5,492.8z"/>
	</g>
	<g>
		<path class="st1" d="M362.7,532.6l36.8-39.8c-20.8-13.4-18.2-53.3-18.2-62.6H213.9C225.9,464.8,305.4,524,362.7,532.6z"/>
	</g>
	<g>
		<path class="st2" d="M427.9,309.3c0,74.5-42.9,167.4-130.2,167.4s-130.2-92.9-130.2-167.4S225.7,207,297.6,207
			S427.9,234.8,427.9,309.3z"/>
	</g>
	<g>
		<path class="st3" d="M511.6,718.6c15.4,0,27.9-12.5,27.9-27.9V601c0-40.9-31.9-84.6-70.9-97.1l-58.2-18.6
			c-31.3,23.9-76,56.6-112.8,56.6s-81.5-32.7-112.8-56.6l-58.2,18.6c-39,12.5-70.9,56.2-70.9,97.1v89.7c0,15.4,12.5,27.9,27.9,27.9
			H511.6z"/>
	</g>
	<g>
		<path class="st4" d="M297.6,541.9l-38.8,38.8c-4,4-10.7,3.5-14.1-1.1l-68-93.5l21.7-21.7c3.5-3.5,9.1-3.6,12.8-0.3L297.6,541.9z"
			/>
	</g>
	<g>
		<path class="st4" d="M297.6,541.9l38.8,38.8c4,4,10.7,3.5,14.1-1.1l68-93.5l-21.7-21.7c-3.5-3.5-9.1-3.6-12.8-0.3L297.6,541.9z"/>
	</g>
	<g>
		<circle class="st4" cx="297.6" cy="634.9" r="9.3"/>
	</g>
	<g>
		<circle class="st4" cx="297.6" cy="588.4" r="9.3"/>
	</g>
	<g>
		<path class="st2" d="M171.9,318.6c-13.9-3.5-23.1,4-23.1,18.6c0,19.4,18.7,66.9,38.5,37.2S171.9,318.6,171.9,318.6z"/>
	</g>
	<g>
		<path class="st2" d="M421.3,318.6c15.2-3.5,25.2,4,25.2,18.6c0,19.4-20.5,66.9-42,37.2S421.3,318.6,421.3,318.6z"/>
	</g>
	<g>
		<path class="st5" d="M195.3,279.7c-3.9,10.1-9.3,55.8-9.3,55.8l-18.6-9.3l-5.2-61.6L195.3,279.7z"/>
	</g>
	<g>
		<path class="st5" d="M400,279.7c3.9,10.1,9.3,55.8,9.3,55.8l18.6-9.3l5.2-61.6L400,279.7z"/>
	</g>
	<g>
		<path class="st6" d="M394.6,152.8l-70.9-25c-16.8-5.9-35.2-5.9-52.1,0l-70.9,25c-23.1,8.2-38.5,29.8-38.5,54v83.9h270.9v-83.9
			C433.1,182.6,417.7,160.9,394.6,152.8z"/>
	</g>
	<g>
		<path class="st4" d="M297.6,244.2c-56.5,0-141.1,20.8-141.1,46.5h282.1C438.7,265,354.1,244.2,297.6,244.2z"/>
	</g>
	<g>
		<path class="st7" d="M442.3,495.5L317.4,718.6h64l112.8-201.4c-7.9-5.8-16.5-10.4-25.5-13.3L442.3,495.5z"/>
	</g>
	<g>
		<ellipse class="st3" cx="297.6" cy="188.4" rx="55.8" ry="37.2"/>
	</g>
</g>
</svg>
