<?xml version="1.0" encoding="utf-8"?>
<!-- Generator: Adobe Illustrator 19.0.0, SVG Export Plug-In . SVG Version: 6.00 Build 0)  -->
<svg version="1.1" fill="#cd9a8a" xmlns="http://www.w3.org/2000/svg" xmlns:xlink="http://www.w3.org/1999/xlink" x="0px" y="0px"
	 viewBox="0 123.4 595.3 595.1" style="enable-background:new 0 123.4 595.3 595.1;" xml:space="preserve">
<g>
	<g>
		<path d="M297.6,123.3C133.3,123.3,0,256.6,0,420.9c0,164.4,133.3,297.6,297.6,297.6s297.6-133.3,297.6-297.6
			C595.3,256.6,462,123.3,297.6,123.3z M297.6,227.8l176.1,109.8H121.5L297.6,227.8z M476,513.1L476,513.1
			c0,17.6-14.3,31.9-31.9,31.9H151.2c-17.6,0-31.9-14.3-31.9-31.9V344.7c0-1.9,0.2-3.7,0.5-5.5l168.3,104.9c0.2,0.1,0.4,0.2,0.6,0.3
			c0.2,0.1,0.4,0.2,0.7,0.4c1.2,0.6,2.4,1.1,3.7,1.4c0.1,0,0.3,0.1,0.4,0.1c1.4,0.3,2.8,0.5,4.2,0.5h0c0,0,0,0,0,0
			c1.4,0,2.8-0.2,4.2-0.5c0.1,0,0.3,0,0.4-0.1c1.3-0.3,2.5-0.8,3.7-1.4c0.2-0.1,0.5-0.2,0.7-0.4c0.2-0.1,0.4-0.2,0.6-0.3
			l168.3-104.9c0.3,1.8,0.5,3.6,0.5,5.5L476,513.1L476,513.1z"/>
	</g>
</g>
</svg>
