<?xml version="1.0" encoding="utf-8"?>
<!-- Generator: Adobe Illustrator 19.0.0, SVG Export Plug-In . SVG Version: 6.00 Build 0)  -->
<svg version="1.1" id="Capa_1" xmlns="http://www.w3.org/2000/svg" xmlns:xlink="http://www.w3.org/1999/xlink" x="0px" y="0px"
	 viewBox="49.6 123.3 496.1 595.3" style="enable-background:new 49.6 123.3 496.1 595.3;" xml:space="preserve">
<style type="text/css">
	.st0{fill:#E6E6E6;}
	.st1{fill:#9E6C53;}
	.st2{fill:#8A5336;}
	.st3{fill:#EBBA16;}
</style>
<path class="st0" d="M415.3,342.5c19.5-13,31.2-34.9,31.2-58.3V172.9H148.8v111.3c0,23.4,11.7,45.3,31.2,58.3l92.5,67.9
	c3.4,2.5,5.3,6.4,5.3,10.5l0,0c0,4.2-2,8.1-5.3,10.5L180,499.4c-19.5,13-31.2,34.9-31.2,58.3V669h297.6V557.6
	c0-23.4-11.7-45.3-31.2-58.3l-92.5-67.9c-3.4-2.5-5.3-6.4-5.3-10.5l0,0c0-4.2,2-8.1,5.3-10.5L415.3,342.5z"/>
<rect x="99.2" y="669" class="st1" width="396.9" height="39.7"/>
<rect x="99.2" y="133.2" class="st1" width="396.9" height="39.7"/>
<g>
	<path class="st2" d="M535.8,698.7h-39.7H59.5c-5.5,0-9.9,4.4-9.9,9.9s4.4,9.9,9.9,9.9h436.5h39.7c5.5,0,9.9-4.4,9.9-9.9
		S541.2,698.7,535.8,698.7z"/>
	<path class="st2" d="M59.5,143.1h436.5h39.7c5.5,0,9.9-4.4,9.9-9.9c0-5.5-4.4-9.9-9.9-9.9h-39.7H59.5c-5.5,0-9.9,4.4-9.9,9.9
		C49.6,138.7,54.1,143.1,59.5,143.1z"/>
</g>
<path class="st3" d="M398.8,317.8c11.2-7.5,17.9-20,17.9-33.5l0,0c0-13-8.8-24.3-21.4-27.4L246,219.5c-34.2-8.6-67.4,17.3-67.4,52.6
	v12.1c0,13.5,6.7,26,17.9,33.5l91.2,66.9v157.5c0,36-37.3,59.9-70,44.8l0,0c-17.6-8.1-38.9,3.9-39.1,23.3c0,0.1,0,0.3,0,0.4V669
	h238.1V557.6c0-0.1,0-0.3,0-0.4c-0.2-19.2-18.7-33-37.6-29.7l-20.3,3.5c-26.7,4.7-51.2-15.9-51.2-43V384.7L398.8,317.8z"/>
</svg>
