<?xml version="1.0" encoding="utf-8"?>
<!-- Generator: Adobe Illustrator 19.0.0, SVG Export Plug-In . SVG Version: 6.00 Build 0)  -->
<svg version="1.1" id="Layer_1" xmlns="http://www.w3.org/2000/svg" xmlns:xlink="http://www.w3.org/1999/xlink" x="0px" y="0px"
	 viewBox="134 185.9 339.7 492.6" style="enable-background:new 134 185.9 339.7 492.6;" xml:space="preserve">
<style type="text/css">
	.st0{fill:#2F8442;}
	.st1{opacity:0.8;}
	.st2{fill:#E0DAD2;}
	.st3{opacity:0.5;}
	.st4{fill:#F6A2A3;}
	.st5{fill:#E84849;}
	.st6{fill:#F4E028;}
	.st7{fill:#E5CE27;}
</style>
<g>
	<path class="st0" d="M188.9,368.3c0,0,68.3,205.4,94.4,305.1l7.7-3c0,0-82.4-256.8-94.3-301.2C186.2,330,188.9,368.3,188.9,368.3z"
		/>
	<path class="st0" d="M401.2,369c0,0-79.4,205.4-88,308.1l8.2,1.5c0,0,29.7-161.1,86.8-306.1C423.1,334.7,401.2,369,401.2,369z"/>
	<path class="st0" d="M336.5,360.6c0,0-6.2,205.1,1.1,296.9l6.8,1.1c0,0-7-260.2-1.2-295.9C349.1,326.8,336.5,360.6,336.5,360.6z"/>
	<path class="st0" d="M264.1,354.1c0,0-1.4,214.1,6.1,309.6l7.2-0.3c0,0-12.4-270-6.3-307.2C277.2,319,264.1,354.1,264.1,354.1z"/>
	<path class="st0" d="M232.2,296.6c0,0,23.7,154.2,41.8,221.8l8.8-1.6c0,0-44.6-192.1-45.2-219.6
		C236.9,269.7,232.2,296.6,232.2,296.6z"/>
	<path class="st0" d="M297.2,267.5c0,0-15.8,290.3,2,391.7l8.2-2.2c0,0-5.2-347.5-2.4-388C307.6,228.6,297.2,267.5,297.2,267.5z"/>
</g>
<g class="st1">
	<path class="st2" d="M366.7,636.2H234.6c-10.5,0,15.9-69.4,15.9-69.4L160.3,394c0-20.1,16.3-36.3,36.3-36.3h207.3
		c20.1,0,36.3,16.2,36.3,36.3L350,565.4C350,565.4,375.7,636.2,366.7,636.2z"/>
</g>
<g class="st3">
	<path class="st2" d="M304.3,636.2h-69.7c-9,0,15.9-69.4,15.9-69.4L160.3,394c0-20.1,16.3-36.3,36.3-36.3l166.7,83L304.3,636.2z"/>
</g>
<path class="st4" d="M209.2,290.8c1.2,14-5.4,28.6-14.8,29.4c-9.5,0.8-18.3-12.6-19.5-26.6c-1.1-14,5.8-23.2,15.3-24
	C199.7,268.9,208.1,276.8,209.2,290.8z"/>
<path class="st5" d="M205.3,296.1c0.8,10.2-4,20.3-10.9,20.9c-7,0.6-13.4-8.6-14.2-18.8c-0.8-10.2,4.2-17.6,11.2-18.2
	C198.3,279.4,204.5,285.9,205.3,296.1z"/>
<path class="st4" d="M232.7,313.1c-9.1,10.7-24,16.4-31.3,10.3c-7.3-6.2-4-21.9,5-32.5c9.1-10.7,20.5-12.3,27.8-6.1
	C241.4,290.9,241.7,302.4,232.7,313.1z"/>
<path class="st5" d="M226.2,314.1c-6.6,7.8-17.2,11.6-22.5,7.1c-5.3-4.5-3.4-15.6,3.3-23.4c6.6-7.8,15.5-9.5,20.8-5
	C233,297.3,232.8,306.3,226.2,314.1z"/>
<path class="st4" d="M191.5,366.5c-6.5-12.4-6.2-28.4,2.2-32.8c8.4-4.4,21.8,4.5,28.3,16.9c6.5,12.4,3.7,23.6-4.7,28
	C208.8,383,198,378.9,191.5,366.5z"/>
<path class="st5" d="M193,360.1c-4.8-9.1-4.3-20.3,1.9-23.5c6.2-3.2,15.7,2.7,20.4,11.8c4.8,9.1,3,17.9-3.2,21.1
	C206,372.7,197.7,369.2,193,360.1z"/>
<path class="st4" d="M155,319.4c13.9-1.3,28.7,5,29.6,14.5c0.9,9.5-12.4,18.4-26.3,19.8c-14,1.3-23.3-5.6-24.2-15
	C133.2,329.2,141.1,320.7,155,319.4z"/>
<path class="st5" d="M160.4,323.2c10.2-1,20.4,3.7,21,10.7c0.7,6.9-8.5,13.5-18.7,14.4s-17.7-4-18.3-10.9
	C143.8,330.5,150.2,324.2,160.4,323.2z"/>
<path class="st4" d="M175.1,291.4c10.8,8.9,16.7,23.8,10.6,31.2c-6.1,7.3-21.8,4.3-32.6-4.6c-10.8-8.9-12.5-20.4-6.5-27.7
	C152.7,282.8,164.3,282.4,175.1,291.4z"/>
<path class="st5" d="M176.1,297.8c7.9,6.5,11.8,17.1,7.3,22.4c-4.4,5.4-15.5,3.5-23.4-3c-7.9-6.6-9.7-15.3-5.2-20.7
	C159.3,291.2,168.2,291.3,176.1,297.8z"/>
<path class="st4" d="M228.9,357.3c-14,0-28.1-7.7-28.1-17.2c0-9.5,14.1-17.2,28.1-17.2c14,0,22.6,7.7,22.7,17.2
	C251.5,349.6,242.9,357.3,228.9,357.3z"/>
<path class="st5" d="M223.9,353c-10.3,0-20-5.6-20-12.6c0-7,9.7-12.6,19.9-12.6c10.3,0,17.2,5.6,17.2,12.6
	C241.2,347.3,234.2,353,223.9,353z"/>
<path class="st4" d="M159.9,357c4.2-13.4,15.7-24.5,24.8-21.7c9.1,2.8,12.2,18.5,8.1,31.9c-4.2,13.4-14.1,19.3-23.2,16.5
	C160.5,380.9,155.7,370.4,159.9,357z"/>
<path class="st5" d="M165.5,353.6c3.1-9.8,11.3-17.4,18-15.3c6.7,2.1,9.2,13,6.1,22.8c-3.1,9.8-10.5,14.8-17.2,12.7
	C165.7,371.7,162.4,363.4,165.5,353.6z"/>
<ellipse transform="matrix(0.9966 -8.180398e-002 8.180398e-002 0.9966 -26.5703 16.7635)" class="st6" cx="191.3" cy="332.6" rx="22.6" ry="20"/>
<ellipse transform="matrix(0.9967 -8.159717e-002 8.159717e-002 0.9967 -26.5046 16.7156)" class="st7" cx="191.3" cy="332.6" rx="14.9" ry="13.2"/>
<path class="st4" d="M446.1,302.7c-3.6,13.5-14.6,25.2-23.8,22.8c-9.2-2.4-13.1-18-9.5-31.5c3.6-13.5,13.2-19.9,22.4-17.5
	C444.4,278.8,449.7,289.1,446.1,302.7z"/>
<path class="st5" d="M440.7,306.4c-2.6,9.9-10.5,17.9-17.3,16.1c-6.7-1.8-9.7-12.6-7.1-22.5c2.6-9.9,9.9-15.2,16.6-13.5
	C439.6,288.3,443.3,296.5,440.7,306.4z"/>
<path class="st4" d="M460.8,331.5c-12.1,7-28.1,7.5-32.9-0.7c-4.8-8.2,3.5-22,15.6-29c12.1-7,23.4-4.8,28.2,3.4
	C476.5,313.4,472.9,324.4,460.8,331.5z"/>
<path class="st5" d="M454.4,330.3c-8.9,5.2-20.1,5.2-23.6-0.8c-3.5-6,2-15.8,10.9-20.9c8.9-5.2,17.7-3.8,21.2,2.2
	C466.4,316.7,463.2,325.1,454.4,330.3z"/>
<path class="st4" d="M404.2,368.1c-2-13.8,3.6-28.9,13-30.2c9.4-1.4,19.1,11.4,21.1,25.3c2,13.8-4.4,23.5-13.8,24.9
	C415.1,389.4,406.2,382,404.2,368.1z"/>
<path class="st5" d="M407.8,362.6c-1.5-10.2,2.7-20.6,9.6-21.6c6.9-1,13.9,7.8,15.3,17.9c1.5,10.2-3.1,17.9-10,18.9
	C415.8,378.9,409.2,372.8,407.8,362.6z"/>
<path class="st4" d="M385.5,311.6c13.6,3.4,25.4,14.3,23.1,23.5c-2.3,9.2-17.8,13.3-31.4,9.9c-13.6-3.4-20.1-13-17.8-22.2
	C361.7,313.6,371.9,308.2,385.5,311.6z"/>
<path class="st5" d="M389.3,317c10,2.5,18,10.3,16.3,17.1c-1.7,6.8-12.5,9.9-22.4,7.4c-10-2.5-15.3-9.7-13.6-16.4
	C371.2,318.3,379.3,314.5,389.3,317z"/>
<path class="st4" d="M413.7,291.8c7.2,12,7.8,28-0.3,32.9s-22-3.2-29.2-15.2c-7.2-12-5-23.4,3.1-28.3
	C395.5,276.4,406.5,279.8,413.7,291.8z"/>
<path class="st5" d="M412.6,298.3c5.3,8.8,5.4,20-0.6,23.6c-6,3.6-15.8-1.8-21.1-10.6c-5.3-8.8-4-17.7,2-21.3
	C398.9,286.4,407.3,289.5,412.6,298.3z"/>
<path class="st4" d="M442.6,371.9c-13.2-4.7-23.9-16.6-20.8-25.6c3.2-9,19-11.6,32.2-6.9c13.2,4.6,18.8,14.8,15.6,23.7
	C466.5,372.2,455.8,376.6,442.6,371.9z"/>
<path class="st5" d="M439.3,366.2c-9.7-3.4-17-12-14.6-18.5c2.3-6.6,13.3-8.7,23-5.3c9.7,3.4,14.4,11,12.1,17.6
	C457.4,366.6,449,369.6,439.3,366.2z"/>
<path class="st4" d="M377.6,348.7c8.4-11.2,23-17.9,30.6-12.2c7.6,5.7,5.4,21.6-3,32.8c-8.4,11.2-19.7,13.5-27.3,7.8
	C370.2,371.5,369.2,359.9,377.6,348.7z"/>
<path class="st5" d="M384,347.3c6.1-8.2,16.5-12.6,22-8.4c5.6,4.2,4.3,15.3-1.8,23.5c-6.2,8.2-14.8,10.4-20.4,6.2
	C378.2,364.5,377.8,355.6,384,347.3z"/>
<ellipse transform="matrix(0.9671 0.2544 -0.2544 0.9671 99.1921 -94.5853)" class="st6" cx="415.3" cy="336.2" rx="22.6" ry="20"/>
<ellipse transform="matrix(0.9671 0.2545 -0.2545 0.9671 99.2251 -94.6211)" class="st7" cx="415.3" cy="336.2" rx="14.9" ry="13.2"/>
<path class="st4" d="M363.1,300.1c-1.2,12.4-9.2,24.3-17.7,23.5c-8.5-0.8-14.1-14-12.9-26.4c1.2-12.5,8.8-19.5,17.2-18.7
	C358.2,279.3,364.3,287.6,363.1,300.1z"/>
<path class="st5" d="M358.9,304.1c-0.9,9.1-6.7,17.3-12.9,16.7c-6.2-0.6-10.4-9.7-9.5-18.8c0.9-9.1,6.5-14.8,12.7-14.2
	S359.8,295,358.9,304.1z"/>
<path class="st4" d="M380.2,323.3c-9.6,8-23.7,10.7-29.1,4.1c-5.4-6.5-0.1-19.9,9.5-27.8c9.6-8,20-7.6,25.4-1
	C391.4,305.2,389.9,315.4,380.2,323.3z"/>
<path class="st5" d="M374.4,323.2c-7.1,5.8-16.9,7.5-20.9,2.7c-4-4.8-0.5-14.2,6.6-20c7.1-5.8,15.1-5.9,19.1-1.1
	C383,309.5,381.5,317.4,374.4,323.2z"/>
<path class="st4" d="M335.6,363.8c-3.8-11.9-1-26,7.1-28.5c8.1-2.6,18.4,7.3,22.2,19.3c3.8,11.9-0.5,21.3-8.6,23.9
	C348.3,381,339.4,375.7,335.6,363.8z"/>
<path class="st5" d="M338,358.4c-2.8-8.8-0.6-18.5,5.4-20.4c5.9-1.9,13.3,4.8,16.1,13.6c2.8,8.7-0.2,16.2-6.1,18.1
	C347.4,371.6,340.7,367.2,338,358.4z"/>
<path class="st4" d="M311,316.7c12.5,1,24.4,8.9,23.7,17.4c-0.7,8.4-13.8,14.3-26.3,13.2c-12.5-1-19.6-8.5-18.9-17
	C290.3,321.9,298.5,315.7,311,316.7z"/>
<path class="st5" d="M315.1,320.9c9.1,0.8,17.3,6.5,16.8,12.7c-0.5,6.2-9.6,10.5-18.7,9.8c-9.1-0.8-14.9-6.3-14.4-12.5
	C299.4,324.6,306,320.1,315.1,320.9z"/>
<path class="st4" d="M333,295.2c8.1,9.5,10.9,23.6,4.5,29.1c-6.5,5.5-19.9,0.3-27.9-9.2c-8.1-9.6-7.8-19.9-1.3-25.4
	C314.7,284.2,324.9,285.6,333,295.2z"/>
<path class="st5" d="M332.9,301.1c5.9,7,7.7,16.8,2.9,20.9c-4.8,4-14.2,0.7-20.1-6.3c-5.9-7-6.1-15-1.3-19
	C319.1,292.6,327,294.1,332.9,301.1z"/>
<path class="st4" d="M370,361.6c-12.3-2.2-23.5-11.2-22-19.5c1.5-8.4,15.1-12.9,27.4-10.7c12.3,2.2,18.7,10.3,17.2,18.7
	C391.1,358.4,382.3,363.8,370,361.6z"/>
<path class="st5" d="M366.3,357c-9-1.6-16.7-8.1-15.6-14.2c1.1-6.1,10.5-9.6,19.5-8c9,1.6,14.3,7.7,13.2,13.8
	C382.3,354.8,375.3,358.6,366.3,357z"/>
<path class="st4" d="M309.3,350.5c5.8-11.1,17.7-19.1,25.2-15.2c7.5,3.9,7.8,18.2,2.1,29.3c-5.8,11.1-15.4,14.8-23,10.9
	C306.1,371.7,303.6,361.6,309.3,350.5z"/>
<path class="st5" d="M314.8,348.4c4.2-8.1,12.7-13.5,18.2-10.6c5.5,2.9,6,12.9,1.8,21c-4.2,8.1-11.6,11.3-17.1,8.5
	C312.2,364.4,310.6,356.5,314.8,348.4z"/>
<ellipse transform="matrix(0.9955 9.479965e-002 -9.479965e-002 0.9955 33.1994 -30.7994)" class="st6" cx="340.8" cy="334" rx="20.2" ry="17.9"/>
<ellipse transform="matrix(0.9955 9.489875e-002 -9.489875e-002 0.9955 33.2336 -30.8321)" class="st7" cx="340.8" cy="334" rx="13.3" ry="11.8"/>
<path class="st4" d="M300.6,307.6c-1.2,13-9.6,25.3-18.4,24.5c-8.8-0.8-14.7-14.5-13.5-27.5c1.2-13,9.1-20.3,17.9-19.5
	C295.5,285.9,301.9,294.6,300.6,307.6z"/>
<path class="st5" d="M296.2,311.8c-0.9,9.5-7,18-13.4,17.4c-6.5-0.6-10.8-10.1-9.9-19.6c0.9-9.5,6.8-15.5,13.2-14.8
	C292.5,295.3,297.1,302.3,296.2,311.8z"/>
<path class="st4" d="M318.4,331.8c-10.1,8.3-24.7,11.1-30.3,4.3c-5.6-6.8-0.1-20.7,9.9-29c10.1-8.3,20.8-7.9,26.4-1.1
	C330.1,312.9,328.5,323.5,318.4,331.8z"/>
<path class="st5" d="M312.3,331.7c-7.4,6.1-17.7,7.8-21.8,2.8c-4.1-5-0.5-14.8,6.8-20.9c7.4-6.1,15.7-6.2,19.8-1.2
	C321.3,317.4,319.7,325.6,312.3,331.7z"/>
<path class="st4" d="M272,374c-3.9-12.4-1-27.1,7.4-29.7c8.4-2.7,19.2,7.6,23.1,20.1c3.9,12.4-0.5,22.2-8.9,24.9
	C285.1,391.9,275.9,386.4,272,374z"/>
<path class="st5" d="M274.4,368.4c-2.9-9.1-0.6-19.3,5.6-21.2c6.2-2,13.9,5,16.8,14.2c2.9,9.1-0.2,16.9-6.4,18.8
	C284.2,382.1,277.3,377.5,274.4,368.4z"/>
<path class="st4" d="M246.3,324.9c13,1.1,25.4,9.3,24.7,18.1c-0.7,8.8-14.4,14.9-27.4,13.8c-13-1.1-20.4-8.9-19.7-17.7
	C224.7,330.3,233.3,323.8,246.3,324.9z"/>
<path class="st5" d="M250.6,329.3c9.5,0.8,18.1,6.8,17.5,13.2c-0.5,6.5-9.9,11-19.5,10.2c-9.5-0.8-15.5-6.6-15-13
	C234.2,333.1,241,328.5,250.6,329.3z"/>
<path class="st4" d="M269.2,302.5c8.4,9.9,11.4,24.6,4.7,30.3c-6.7,5.7-20.7,0.4-29.1-9.6c-8.4-10-8.1-20.7-1.4-26.4
	S260.8,292.5,269.2,302.5z"/>
<path class="st5" d="M269.2,308.6c6.2,7.3,8,17.5,3,21.7c-4.9,4.2-14.8,0.7-21-6.6c-6.2-7.3-6.3-15.6-1.4-19.8
	C254.8,299.7,263,301.3,269.2,308.6z"/>
<path class="st4" d="M307.7,371.7c-12.8-2.3-24.5-11.6-22.9-20.3c1.6-8.7,15.7-13.5,28.5-11.2c12.8,2.3,19.5,10.7,17.9,19.5
	C329.7,368.3,320.6,374,307.7,371.7z"/>
<path class="st5" d="M303.9,366.9c-9.4-1.7-17.4-8.4-16.2-14.8c1.1-6.4,10.9-10,20.3-8.3c9.4,1.7,14.9,8,13.7,14.4
	C320.6,364.6,313.3,368.6,303.9,366.9z"/>
<path class="st4" d="M244.6,360.1c6-11.5,18.4-19.9,26.3-15.8c7.8,4.1,8.2,19,2.2,30.6c-6,11.6-16.1,15.4-23.9,11.3
	C241.2,382.1,238.6,371.7,244.6,360.1z"/>
<path class="st5" d="M250.3,357.9c4.4-8.5,13.2-14,19-11.1c5.8,3,6.3,13.4,1.9,21.9c-4.4,8.5-12,11.8-17.8,8.8
	C247.5,374.5,245.9,366.4,250.3,357.9z"/>
<ellipse transform="matrix(0.9955 9.489875e-002 -9.489875e-002 0.9955 33.7951 -24.771)" class="st6" cx="277.3" cy="342.9" rx="21" ry="18.6"/>
<ellipse transform="matrix(0.9955 9.499785e-002 -9.499785e-002 0.9955 33.83 -24.7929)" class="st7" cx="277.3" cy="342.9" rx="13.9" ry="12.3"/>
<path class="st4" d="M248.4,250.8c0.8,9.5-3.6,19.5-10,20c-6.4,0.6-12.5-8.5-13.3-18c-0.8-9.5,3.9-15.8,10.3-16.3
	C241.8,235.9,247.5,241.3,248.4,250.8z"/>
<path class="st5" d="M245.8,254.4c0.6,6.9-2.6,13.8-7.3,14.2c-4.7,0.4-9.1-5.8-9.7-12.7c-0.6-7,2.8-12,7.5-12.4
	C240.9,243.1,245.1,247.5,245.8,254.4z"/>
<path class="st4" d="M264.4,265.9c-6.1,7.3-16.3,11.2-21.2,7.1c-4.9-4.1-2.8-14.8,3.3-22.1c6.1-7.3,13.9-8.4,18.8-4.3
	C270.2,250.7,270.5,258.6,264.4,265.9z"/>
<path class="st5" d="M260,266.6c-4.5,5.3-11.6,7.9-15.3,4.9c-3.6-3-2.3-10.5,2.1-15.9c4.5-5.3,10.5-6.5,14.1-3.5
	C264.5,255.1,264.4,261.2,260,266.6z"/>
<path class="st4" d="M236.6,302.2c-4.5-8.4-4.3-19.3,1.4-22.3c5.7-3,14.8,2.9,19.3,11.3c4.5,8.4,2.6,16-3.1,19.1
	C248.4,313.4,241.1,310.6,236.6,302.2z"/>
<path class="st5" d="M237.6,297.9c-3.3-6.2-3-13.8,1.2-16c4.2-2.2,10.7,1.8,13.9,7.9c3.3,6.2,2.1,12.1-2.1,14.3
	C246.5,306.4,240.9,304.1,237.6,297.9z"/>
<path class="st4" d="M211.7,270.4c9.5-1,19.5,3.3,20.1,9.7c0.6,6.4-8.3,12.6-17.8,13.5c-9.5,1-15.8-3.7-16.5-10.1
	C196.9,277.2,202.2,271.4,211.7,270.4z"/>
<path class="st5" d="M215.3,273c6.9-0.7,13.9,2.5,14.3,7.2c0.5,4.7-5.7,9.2-12.6,9.9c-6.9,0.7-12-2.6-12.5-7.4
	C204.1,278,208.4,273.7,215.3,273z"/>
<path class="st4" d="M225.2,251.3c7.4,6,11.4,16.1,7.3,21.1c-4.1,5-14.8,3-22.1-3c-7.4-6-8.6-13.8-4.5-18.8
	C210,245.6,217.8,245.3,225.2,251.3z"/>
<path class="st5" d="M225.9,255.7c5.4,4.4,8.1,11.5,5,15.2c-3,3.7-10.5,2.5-15.9-1.9c-5.4-4.4-6.6-10.4-3.6-14
	C214.5,251.3,220.5,251.3,225.9,255.7z"/>
<path class="st4" d="M262,295.9c-9.5,0.1-19.1-5.1-19.1-11.6c0-6.5,9.5-11.7,19-11.8c9.5-0.1,15.4,5.1,15.4,11.6
	C277.3,290.5,271.5,295.8,262,295.9z"/>
<path class="st5" d="M258.6,293c-7,0.1-13.6-3.7-13.6-8.5c0-4.7,6.5-8.6,13.5-8.6c7,0,11.7,3.8,11.7,8.5
	C270.3,289,265.6,292.9,258.6,293z"/>
<path class="st4" d="M215.1,296c2.8-9.1,10.6-16.7,16.7-14.8c6.2,1.9,8.4,12.5,5.6,21.6c-2.8,9.1-9.5,13.2-15.7,11.3
	C215.6,312.2,212.3,305,215.1,296z"/>
<path class="st5" d="M218.9,293.6c2-6.7,7.6-11.8,12.1-10.4c4.5,1.4,6.3,8.8,4.2,15.5c-2,6.7-7.1,10.1-11.6,8.7
	C219.1,305.9,216.9,300.3,218.9,293.6z"/>
<ellipse transform="matrix(0.9962 -8.729844e-002 8.729844e-002 0.9962 -23.4778 21.6972)" class="st6" cx="236.3" cy="279.3" rx="15.3" ry="13.6"/>
<ellipse transform="matrix(0.9962 -8.759613e-002 8.759613e-002 0.9962 -23.5541 21.7738)" class="st7" cx="236.3" cy="279.3" rx="10.1" ry="9"/>
<path class="st4" d="M324,208.6c0,14-7.7,28.1-17.2,28.1c-9.5,0-17.2-14.1-17.2-28.1c0-14,7.7-22.6,17.2-22.6
	C316.3,185.9,324,194.6,324,208.6z"/>
<path class="st5" d="M319.7,213.5c0,10.3-5.6,19.9-12.6,19.9s-12.6-9.7-12.6-19.9c0-10.3,5.6-17.2,12.6-17.2
	S319.7,203.2,319.7,213.5z"/>
<path class="st4" d="M345.5,232.7c-9.9,9.9-25.3,14.4-32,7.7c-6.7-6.7-2.2-22.1,7.7-32c9.9-9.9,21.5-10.6,28.2-3.8
	C356.1,211.2,355.4,222.8,345.5,232.7z"/>
<path class="st5" d="M338.9,233.2c-7.3,7.3-18.1,10.1-23,5.2c-4.9-4.9-2.1-15.8,5.2-23c7.3-7.3,16.2-8.2,21.1-3.3
	C347.1,217,346.2,225.9,338.9,233.2z"/>
<path class="st4" d="M300.1,282.5c-5.5-12.9-3.9-28.9,4.9-32.6c8.8-3.7,21.3,6.2,26.8,19.1c5.5,12.9,1.7,23.9-7,27.6
	C316,300.4,305.5,295.4,300.1,282.5z"/>
<path class="st5" d="M302.1,276.3c-4-9.5-2.6-20.6,3.8-23.3c6.4-2.7,15.4,4,19.4,13.4c4,9.4,1.5,18.1-4.9,20.8
	C314,289.9,306.1,285.7,302.1,276.3z"/>
<path class="st4" d="M267.6,232.6c14-0.2,28.2,7.4,28.3,16.9C296,259,282,266.9,268,267c-14,0.2-22.7-7.4-22.8-16.9
	C245.1,240.6,253.6,232.8,267.6,232.6z"/>
<path class="st5" d="M272.6,236.9c10.3-0.1,20,5.4,20.1,12.4c0.1,7-9.5,12.7-19.8,12.8c-10.3,0.1-17.3-5.4-17.4-12.4
	C255.5,242.7,262.4,237,272.6,236.9z"/>
<path class="st4" d="M289.9,206.3c10,9.8,14.7,25.1,8.1,31.9c-6.6,6.8-22.1,2.5-32.1-7.3c-10-9.8-10.8-21.3-4.2-28.1
	C268.3,196,279.8,196.5,289.9,206.3z"/>
<path class="st5" d="M290.4,212.9c7.3,7.2,10.3,18,5.5,22.9c-4.9,5-15.7,2.3-23.1-4.9c-7.3-7.2-8.4-16.1-3.5-21.1
	C274.1,204.9,283.1,205.7,290.4,212.9z"/>
<path class="st4" d="M338.1,276.4c-14-1.1-27.4-10-26.6-19.4c0.8-9.5,15.4-16,29.4-14.9c14,1.1,21.9,9.5,21.2,19
	C361.3,270.6,352.1,277.5,338.1,276.4z"/>
<path class="st5" d="M333.5,271.7c-10.2-0.8-19.4-7.2-18.9-14.2c0.6-7,10.7-11.8,20.9-11c10.2,0.8,16.7,7,16.1,14
	C351.2,267.5,343.7,272.6,333.5,271.7z"/>
<path class="st4" d="M269.4,270.5c5.2-13,17.7-23.1,26.5-19.6c8.8,3.6,10.7,19.5,5.4,32.5c-5.2,13-15.6,18.1-24.4,14.5
	C268,294.4,264.1,283.5,269.4,270.5z"/>
<path class="st5" d="M275.2,267.5c3.8-9.5,12.7-16.4,19.2-13.8c6.5,2.6,8.1,13.7,4.2,23.2c-3.8,9.5-11.7,13.9-18.2,11.2
	C274,285.6,271.4,277.1,275.2,267.5z"/>
<ellipse class="st6" cx="302.6" cy="248.8" rx="22.6" ry="20"/>
<ellipse class="st7" cx="302.6" cy="248.8" rx="14.9" ry="13.2"/>
<path class="st4" d="M374.8,249.1c0.8,9.5-3.6,19.5-10,20c-6.4,0.6-12.5-8.5-13.3-18c-0.8-9.5,3.9-15.8,10.3-16.3
	C368.3,234.3,374,239.7,374.8,249.1z"/>
<path class="st5" d="M372.2,252.8c0.6,6.9-2.6,13.8-7.3,14.2c-4.7,0.4-9.1-5.8-9.7-12.7c-0.6-7,2.8-12,7.5-12.4
	C367.4,241.4,371.6,245.8,372.2,252.8z"/>
<path class="st4" d="M390.8,264.2c-6.1,7.3-16.3,11.2-21.2,7.1c-4.9-4.1-2.8-14.8,3.3-22.1c6.1-7.3,13.9-8.4,18.8-4.3
	C396.7,249.1,396.9,256.9,390.8,264.2z"/>
<path class="st5" d="M386.4,264.9c-4.5,5.3-11.6,7.9-15.3,4.9c-3.6-3-2.3-10.5,2.1-15.9c4.5-5.3,10.5-6.5,14.1-3.5
	C391,253.5,390.9,259.6,386.4,264.9z"/>
<path class="st4" d="M363.1,300.6c-4.5-8.4-4.3-19.3,1.4-22.3c5.7-3,14.8,2.9,19.3,11.3c4.5,8.4,2.6,16-3.1,19.1
	C374.9,311.7,367.5,309,363.1,300.6z"/>
<path class="st5" d="M364.1,296.3c-3.3-6.2-3-13.8,1.2-16c4.2-2.2,10.6,1.8,13.9,7.9c3.3,6.2,2.1,12.1-2.1,14.3
	C372.9,304.8,367.3,302.4,364.1,296.3z"/>
<path class="st4" d="M338.1,268.8c9.5-1,19.5,3.3,20.1,9.7c0.6,6.4-8.4,12.6-17.8,13.5c-9.5,1-15.8-3.7-16.5-10.1
	C323.4,275.5,328.7,269.7,338.1,268.8z"/>
<path class="st5" d="M341.8,271.4c6.9-0.7,13.9,2.5,14.3,7.2c0.5,4.7-5.7,9.2-12.6,9.9c-6.9,0.7-12-2.6-12.5-7.4
	C330.5,276.3,334.8,272,341.8,271.4z"/>
<path class="st4" d="M351.6,249.6c7.3,6,11.4,16.1,7.3,21.1c-4.1,5-14.8,3-22.1-3c-7.4-6-8.6-13.8-4.5-18.8
	C336.4,244,344.3,243.6,351.6,249.6z"/>
<path class="st5" d="M352.4,254c5.4,4.4,8.1,11.5,5.1,15.2c-3,3.7-10.5,2.5-15.9-1.9c-5.4-4.4-6.6-10.4-3.6-14
	C340.9,249.6,347,249.6,352.4,254z"/>
<path class="st4" d="M388.4,294.2c-9.5,0.1-19.1-5.1-19.1-11.6c0-6.5,9.5-11.8,19-11.8c9.5-0.1,15.4,5.1,15.4,11.6
	C403.8,288.9,397.9,294.1,388.4,294.2z"/>
<path class="st5" d="M385.1,291.3c-7,0.1-13.6-3.7-13.6-8.5c0-4.7,6.5-8.6,13.5-8.6c7,0,11.7,3.8,11.8,8.5
	C396.7,287.4,392,291.3,385.1,291.3z"/>
<path class="st4" d="M341.6,294.3c2.8-9.1,10.6-16.7,16.7-14.8c6.2,1.9,8.4,12.5,5.6,21.6c-2.8,9.1-9.5,13.2-15.7,11.3
	C342.1,310.5,338.8,303.4,341.6,294.3z"/>
<path class="st5" d="M345.4,291.9c2-6.7,7.6-11.8,12.2-10.5c4.5,1.4,6.3,8.8,4.2,15.5c-2,6.7-7.1,10.1-11.6,8.7
	C345.6,304.2,343.3,298.6,345.4,291.9z"/>
<ellipse transform="matrix(0.9962 -8.729844e-002 8.729844e-002 0.9962 -22.8479 32.7317)" class="st6" cx="362.8" cy="277.6" rx="15.3" ry="13.6"/>
<ellipse transform="matrix(0.9962 -8.749691e-002 8.749691e-002 0.9962 -22.8963 32.8053)" class="st7" cx="362.8" cy="277.6" rx="10.1" ry="9"/>
<path class="st5" d="M350,565.4l2.9-5.6l-60.7,6.7l-45.4-6.7l3.7,7.1c0,0-0.3,0.7-0.7,1.8l45.5,6.7l55.9-6.7
	C350.5,566.6,350,565.4,350,565.4z"/>
</svg>
