<?xml version="1.0" encoding="utf-8"?>
<!-- Generator: Adobe Illustrator 19.0.0, SVG Export Plug-In . SVG Version: 6.00 Build 0)  -->
<svg version="1.1" id="Capa_1" xmlns="http://www.w3.org/2000/svg" xmlns:xlink="http://www.w3.org/1999/xlink" x="0px" y="0px"
	 viewBox="0 123.3 595.3 595.3" style="enable-background:new 0 123.3 595.3 595.3;" xml:space="preserve">
<style type="text/css">
	.st0{fill:#F4BF1A;}
	.st1{fill:#FFD949;}
	.st2{fill:#DCA815;}
	.st3{fill:#D1D4D2;}
</style>
<g id="XMLID_90_">
	<path id="XMLID_122_" class="st0" d="M450.8,577C347,680.8,193.3,698.2,93.1,622.6c6.1,8.1,12.8,16,20.2,23.3
		c98.2,98.2,268.8,86.8,381-25.4c112.2-112.2,123.6-282.8,25.4-381c-7.4-7.4-15.2-14.1-23.3-20.2C572,319.5,554.5,473.2,450.8,577"
		/>
	<path id="XMLID_121_" class="st1" d="M476.2,196c98.2,98.2,86.8,268.8-25.4,381s-282.8,123.6-381,25.4s-86.8-268.8,25.4-381
		S378,97.8,476.2,196"/>
	<path id="XMLID_89_" class="st0" d="M237,628.1c-53.8,0-102.9-19.5-138.2-54.8c-82-82-70.6-226.9,25.4-322.9
		c51-51,118.3-80.2,184.7-80.2c53.8,0,102.9,19.5,138.2,54.8c82,82,70.6,226.9-25.4,322.9C370.8,598.9,303.4,628.1,237,628.1"/>
	<path id="XMLID_119_" class="st2" d="M457.7,569.4l43.7,43.7c4.7-5,9.3-10.2,13.6-15.4l-43.6-43.6
		C467.1,559.3,462.4,564.4,457.7,569.4"/>
	<path id="XMLID_118_" class="st2" d="M419.7,604l43.7,43.7c5.4-4.2,10.7-8.6,15.8-13.2l-43.6-43.6
		C430.4,595.5,425.1,599.8,419.7,604"/>
	<path id="XMLID_117_" class="st2" d="M490,529.2l43.7,43.7c4-5.9,7.7-11.8,11.2-17.8l-43.6-43.6C497.8,517.5,494,523.4,490,529.2"
		/>
	<path id="XMLID_116_" class="st2" d="M516.1,482.7l43.7,43.7c3.1-6.8,5.9-13.7,8.4-20.6l-43.7-43.7
		C522.1,469.1,519.2,475.9,516.1,482.7"/>
	<path id="XMLID_115_" class="st2" d="M375.8,632.7l43.7,43.7c6.2-3.3,12.3-6.9,18.4-10.7L394.2,622
		C388.1,625.8,382,629.4,375.8,632.7"/>
	<path id="XMLID_114_" class="st2" d="M325.2,654.6l43.7,43.7c7.1-2.3,14.2-4.9,21.2-7.8l-43.7-43.7
		C339.4,649.7,332.3,652.3,325.2,654.6"/>
	<path id="XMLID_113_" class="st2" d="M252,668.6l43.7,43.7c8.7-0.5,17.5-1.4,26.3-2.7l-43.7-43.7
		C269.5,667.1,260.8,668.1,252,668.6"/>
	<path id="XMLID_112_" class="st2" d="M171.3,660.4l43.8,43.8c11.7,3.1,23.7,5.4,35.8,6.8l-43.8-43.8
		C195,665.8,183,663.5,171.3,660.4"/>
	<path id="XMLID_111_" class="st2" d="M537.5,417l43.6,43.6c1.7-8.4,2.9-16.8,3.8-25.2l-43.7-43.7
		C540.4,400.1,539.1,408.5,537.5,417"/>
	<path id="XMLID_88_" class="st2" d="M586.1,393c-0.6-11.1-1.8-22-3.8-32.8l-43.9-43.9c2,10.9,3.6,22,4.2,33.2L586.1,393z"/>
	<path id="XMLID_109_" class="st3" d="M58.7,708.3c-28.3,0-51.3-23-51.3-51.3c0-5.7,4.6-10.3,10.3-10.3s10.3,4.6,10.3,10.3
		c0,17,13.8,30.8,30.8,30.8c5.7,0,10.3,4.6,10.3,10.3S64.3,708.3,58.7,708.3"/>
	<path id="XMLID_108_" class="st3" d="M571.8,195.1c-5.7,0-10.3-4.6-10.3-10.3c0-22.6-13.8-41.1-30.8-41.1
		c-5.7,0-10.3-4.6-10.3-10.3c0-5.7,4.6-10.3,10.3-10.3c28.3,0,51.3,27.6,51.3,61.6C582.1,190.6,577.5,195.1,571.8,195.1"/>
	<path id="XMLID_107_" class="st3" d="M469.2,698.1c-5.7,0-10.3-4.6-10.3-10.3s4.6-10.3,10.3-10.3c50.9,0,92.4-41.4,92.4-92.4
		c0-5.7,4.6-10.3,10.3-10.3s10.3,4.6,10.3,10.3C582.1,647.4,531.4,698.1,469.2,698.1"/>
	<path id="XMLID_106_" class="st3" d="M541,718.6c-5.7,0-10.3-4.6-10.3-10.3s4.6-10.3,10.3-10.3c16.7,0,30.8-9.4,30.8-20.5
		c0-5.7,4.6-10.3,10.3-10.3s10.3,4.6,10.3,10.3C592.4,700.2,569.3,718.6,541,718.6"/>
	<path id="XMLID_105_" class="st1" d="M392.3,358.1c-2.5-59.7-46.5-82.8-113.9-82.9c-3,0-5.9,0.1-8.8,0.3c-21,1.4-40.6-2-54.7-11.5
		c-5.7-3.9-10.3-7.9-13.1-12.2c-1.3-1.9-4.9-0.6-5.1,1.9c-0.3,4.2-0.6,9.2-0.5,14.7c0.3,20.8-1.8,17.7-14.4,37.3
		c-7,10.8-12.6,23-16.7,36.1c-9.2,3.8-16.7,11.8-18.8,21.7l-2.8,13.1c-2.6,11.9,3.1,23.1,13.3,28c1.5,29.6,12.5,56,38.7,74.6
		l-3.3,17.9c-0.9,4.6-4.2,8.2-8.6,9.3l-61.3,14.9c-15.9,4.7-28.1,18.7-32.1,36.8l-1,4.3c3.1,3.7,6.2,7.4,9.7,10.9
		c35.3,35.3,84.4,54.8,138.2,54.8c45.8,0,92.1-13.9,133.2-39.3l-69.9-53.9c-4.6-3.5-7-8.9-6.3-14l2.8-20.1
		c39.2-6.9,65.1-31.4,80.2-65.1c17.6-2,31.8-13.6,33.3-29.2l1.6-17.2C413.1,376.4,404.9,364.6,392.3,358.1"/>
</g>
</svg>
