<?xml version="1.0" encoding="utf-8"?>
<!-- Generator: Adobe Illustrator 19.0.0, SVG Export Plug-In . SVG Version: 6.00 Build 0)  -->
<svg version="1.1" id="Capa_1" xmlns="http://www.w3.org/2000/svg" xmlns:xlink="http://www.w3.org/1999/xlink" x="0px" y="0px"
	 viewBox="0 124.5 595.3 592.9" style="enable-background:new 0 124.5 595.3 592.9;" xml:space="preserve">
<style type="text/css">
	.st0{fill:#5E3118;}
	.st1{fill:#77442B;}
	.st2{fill:#EAEAD6;}
	.st3{fill:#BFBDA3;}
	.st4{fill:#6D8C60;}
	.st5{fill:#91553D;}
	.st6{fill:#6D3D25;}
	.st7{fill:#E4C05C;}
</style>
<g>
	<g>
		<polygon class="st0" points="426.2,183.7 564.5,322 559.1,327.4 595.3,327.4 595.3,183.7 		"/>
		<path class="st0" d="M248.1,183.7H71.8C32.2,183.7,0,215.9,0,255.5s32.2,71.8,71.8,71.8h43.4l-5.4-5.4L248.1,183.7z"/>
	</g>
	<g>
		<path class="st1" d="M169.8,209.2c-6.6,0.5-13.3,0.8-20.1,1.1c-5.7,0.2-10.1,5-9.9,10.6c0.2,5.5,4.8,9.9,10.2,9.9
			c0.1,0,0.2,0,0.4,0c7.1-0.2,14.1-0.6,20.9-1.1c5.7-0.4,9.9-5.3,9.5-11S175.5,208.7,169.8,209.2z"/>
		<path class="st1" d="M108.7,211.3c-7.1,0.2-14.2,0.5-20.9,0.9c-5.7,0.3-10,5.2-9.6,10.9c0.3,5.4,4.9,9.6,10.2,9.6
			c0.2,0,0.4,0,0.6,0c6.5-0.4,13.3-0.7,20.2-0.8c5.7-0.2,10.1-4.9,10-10.5S114.2,211.5,108.7,211.3z"/>
		<path class="st1" d="M44.7,219c-9.3,3-16.4,7.1-21.8,12.4c-4,4-4,10.5,0,14.5c2,2,4.6,3,7.3,3s5.3-1,7.3-3c3-2.9,7.5-5.5,13.6-7.5
			c5.4-1.8,8.3-7.6,6.6-13C55.9,220.1,50.2,217.2,44.7,219z"/>
		<path class="st1" d="M513.2,214.5h-20.5c-5.7,0-10.3,4.6-10.3,10.3S487,235,492.6,235h20.5c5.7,0,10.3-4.6,10.3-10.3
			S518.8,214.5,513.2,214.5z"/>
		<path class="st1" d="M574.8,214.5h-20.5c-5.7,0-10.3,4.6-10.3,10.3s4.6,10.3,10.3,10.3h20.5c5.7,0,10.3-4.6,10.3-10.3
			S580.4,214.5,574.8,214.5z"/>
	</g>
	<path class="st2" d="M570.2,327.4L367.4,124.9c-0.6-0.6-1.5-0.6-2,0L162.7,327.4H570.2z"/>
	<path class="st3" d="M162.9,327.4l174.2-174.2l-28.3-28.3c-0.6-0.6-1.5-0.6-2,0L104.1,327.4H162.9z"/>
	<path class="st4" d="M485.8,333.8l3.2-3.2L367,208.9c-0.3-0.3-0.9-0.3-1.2,0L244,330.6l3.2,3.2H485.8z"/>
	<g>
		<path class="st1" d="M0,255.5v398.7c0,34.9,28.3,63.1,63.1,63.1h532.1v-390H71.8C32.2,327.4,0,295.2,0,255.5z"/>
	</g>
	<path class="st5" d="M533.7,378.7h-20.5c-5.7,0-10.3-4.6-10.3-10.3c0-5.7,4.6-10.3,10.3-10.3h20.5c5.7,0,10.3,4.6,10.3,10.3
		C544,374.1,539.4,378.7,533.7,378.7z M472.1,378.7h-20.5c-5.7,0-10.3-4.6-10.3-10.3c0-5.7,4.6-10.3,10.3-10.3h20.5
		c5.7,0,10.3,4.6,10.3,10.3C482.4,374.1,477.8,378.7,472.1,378.7z M410.5,378.7H390c-5.7,0-10.3-4.6-10.3-10.3
		c0-5.7,4.6-10.3,10.3-10.3h20.5c5.7,0,10.3,4.6,10.3,10.3C420.8,374.1,416.2,378.7,410.5,378.7z M349,378.7h-20.5
		c-5.7,0-10.3-4.6-10.3-10.3c0-5.7,4.6-10.3,10.3-10.3H349c5.7,0,10.3,4.6,10.3,10.3C359.2,374.1,354.6,378.7,349,378.7z
		 M287.4,378.7h-20.5c-5.7,0-10.3-4.6-10.3-10.3c0-5.7,4.6-10.3,10.3-10.3h20.5c5.7,0,10.3,4.6,10.3,10.3
		C297.6,374.1,293.1,378.7,287.4,378.7z M225.8,378.7h-20.5c-5.7,0-10.3-4.6-10.3-10.3c0-5.7,4.6-10.3,10.3-10.3h20.5
		c5.7,0,10.3,4.6,10.3,10.3C236.1,374.1,231.5,378.7,225.8,378.7z M164.2,378.7h-20.5c-5.7,0-10.3-4.6-10.3-10.3
		c0-5.7,4.6-10.3,10.3-10.3h20.5c5.7,0,10.3,4.6,10.3,10.3C174.5,374.1,169.9,378.7,164.2,378.7z M102.6,378.7H82.1
		c-5.7,0-10.3-4.6-10.3-10.3c0-5.7,4.6-10.3,10.3-10.3h20.5c5.7,0,10.3,4.6,10.3,10.3C112.9,374.1,108.3,378.7,102.6,378.7z
		 M42,372.2c-1.4,0-2.9-0.3-4.3-0.9c-7.1-3.3-13.7-7.5-19.6-12.6c-4.3-3.7-4.7-10.2-1-14.5c3.7-4.3,10.2-4.7,14.5-1
		c4.4,3.9,9.4,7.1,14.7,9.5c5.2,2.4,7.4,8.4,5.1,13.6C49.6,370,45.9,372.2,42,372.2z"/>
	<path class="st5" d="M533.7,686.6h-20.5c-5.7,0-10.3-4.6-10.3-10.3c0-5.7,4.6-10.3,10.3-10.3h20.5c5.7,0,10.3,4.6,10.3,10.3
		C544,682,539.4,686.6,533.7,686.6z M472.1,686.6h-20.5c-5.7,0-10.3-4.6-10.3-10.3c0-5.7,4.6-10.3,10.3-10.3h20.5
		c5.7,0,10.3,4.6,10.3,10.3C482.4,682,477.8,686.6,472.1,686.6z M410.5,686.6H390c-5.7,0-10.3-4.6-10.3-10.3
		c0-5.7,4.6-10.3,10.3-10.3h20.5c5.7,0,10.3,4.6,10.3,10.3C420.8,682,416.2,686.6,410.5,686.6z M349,686.6h-20.5
		c-5.7,0-10.3-4.6-10.3-10.3c0-5.7,4.6-10.3,10.3-10.3H349c5.7,0,10.3,4.6,10.3,10.3C359.2,682,354.6,686.6,349,686.6z M287.4,686.6
		h-20.5c-5.7,0-10.3-4.6-10.3-10.3c0-5.7,4.6-10.3,10.3-10.3h20.5c5.7,0,10.3,4.6,10.3,10.3C297.6,682,293.1,686.6,287.4,686.6z
		 M225.8,686.6h-20.5c-5.7,0-10.3-4.6-10.3-10.3c0-5.7,4.6-10.3,10.3-10.3h20.5c5.7,0,10.3,4.6,10.3,10.3
		C236.1,682,231.5,686.6,225.8,686.6z M164.2,686.6h-20.5c-5.7,0-10.3-4.6-10.3-10.3c0-5.7,4.6-10.3,10.3-10.3h20.5
		c5.7,0,10.3,4.6,10.3,10.3C174.5,682,169.9,686.6,164.2,686.6z M102.6,686.6H82.1c-5.7,0-10.3-4.6-10.3-10.3
		c0-5.7,4.6-10.3,10.3-10.3h20.5c5.7,0,10.3,4.6,10.3,10.3C112.9,682,108.3,686.6,102.6,686.6z M42,680.1c-1.4,0-2.9-0.3-4.3-0.9
		c-7.1-3.3-13.7-7.5-19.6-12.6c-4.3-3.7-4.7-10.2-1-14.5c3.7-4.3,10.2-4.7,14.5-1c4.4,3.9,9.4,7.1,14.7,9.5
		c5.2,2.4,7.4,8.4,5.1,13.6C49.6,677.9,45.9,680.1,42,680.1z"/>
	<path class="st6" d="M595.3,585.7H472.1c-34,0-61.6-27.6-61.6-61.6l0,0c0-34,27.6-61.6,61.6-61.6h123.2V585.7z"/>
	<path class="st0" d="M595.3,573.7H472.1c-34,0-61.6-27.6-61.6-61.6l0,0c0-34,27.6-61.6,61.6-61.6h123.2V573.7z"/>
	<circle class="st7" cx="482.4" cy="512.1" r="30.8"/>
</g>
</svg>
