<?xml version="1.0" encoding="utf-8"?>
<!-- Generator: Adobe Illustrator 19.0.0, SVG Export Plug-In . SVG Version: 6.00 Build 0)  -->
<svg version="1.1" id="Layer_1" xmlns="http://www.w3.org/2000/svg" xmlns:xlink="http://www.w3.org/1999/xlink" x="0px" y="0px"
	 viewBox="0 123.3 595.3 595.3" style="enable-background:new 0 123.3 595.3 595.3;" xml:space="preserve">
<style type="text/css">
	.st0{fill:#3F729B;}
	.st1{fill:#FFFFFF;}
</style>
<g>
	<path class="st0" d="M297.6,123.3c164.4,0,297.6,133.3,297.6,297.6S462,718.6,297.6,718.6S0,585.3,0,420.9S133.2,123.3,297.6,123.3
		z"/>
	<path class="st1" d="M400.4,253.5H194.9c-35.7,0-64.7,29-64.7,64.7v205.5c0,35.7,29,64.7,64.7,64.7h205.5c35.7,0,64.7-29,64.7-64.7
		V318.2C465.1,282.5,436.1,253.5,400.4,253.5z M420.8,290.9l7.3,0v55.6l-56,0.2l-0.2-55.6L420.8,290.9z M297.6,364.9
		c46.5,0,56,43.6,56,56c0,30.9-25.2,56-56,56c-30.9,0-56-25.2-56-56C241.6,408.5,251.2,364.9,297.6,364.9z M428.4,519.6
		c0,17.7-14.4,32.1-32.1,32.1H198.4c-17.7,0-32.1-14.4-32.1-32.1v-136h46.5c-4.3,10.6-6.8,25.1-6.8,37.3c0,50.5,41.1,91.6,91.6,91.6
		s91.6-41.1,91.6-91.6c0-12.2-2.4-26.7-6.7-37.3h45.9L428.4,519.6L428.4,519.6z"/>
</g>
</svg>
