<svg version="1.1" fill="#3f3f4d" xmlns="http://www.w3.org/2000/svg" xmlns:xlink="http://www.w3.org/1999/xlink" x="0px" y="0px"
								 viewBox="59.3 123.4 476.7 595.2" style="enable-background:new 59.3 123.4 476.7 595.2;" xml:space="preserve">
							<path d="M297.6,440.4c88.1,0,119.8-88.2,128.1-160.7c10.2-89.3-32-156.4-128.1-156.4c-96.1,0-138.3,67.2-128.1,156.4
										C177.9,352.2,209.6,440.4,297.6,440.4z"/>
							<path d="M535.9,650.4c-1-28.1-4.3-56.4-9.2-84c-5.9-33.5-13.5-82.7-42.8-104.5c-16.9-12.6-38.8-16.8-58.2-24.4
										c-9.4-3.7-17.9-7.4-25.8-11.6c-26.8,29.4-61.7,44.7-102.3,44.7c-40.6,0-75.5-15.4-102.3-44.7c-7.9,4.2-16.4,7.9-25.8,11.6
										c-19.4,7.6-41.3,11.8-58.2,24.4c-29.3,21.8-36.8,71-42.8,104.5c-4.9,27.7-8.2,55.9-9.2,84c-0.7,21.8,10,24.8,28.2,31.4
										c22.8,8.2,46.4,14.3,70.1,19.3c45.8,9.7,93,17.1,140,17.4c47-0.3,94.2-7.8,140-17.4c23.7-5,47.3-11.1,70.1-19.3
										C525.9,675.2,536.7,672.2,535.9,650.4z"/>
						</svg>