<?xml version="1.0" encoding="utf-8"?>
<!-- Generator: Adobe Illustrator 19.0.0, SVG Export Plug-In . SVG Version: 6.00 Build 0)  -->
<svg version="1.1" id="Layer_1" xmlns="http://www.w3.org/2000/svg" xmlns:xlink="http://www.w3.org/1999/xlink" x="0px" y="0px"
	 viewBox="127.3 123.3 340.7 595.3" style="enable-background:new 127.3 123.3 340.7 595.3;" xml:space="preserve">
<style type="text/css">
	.st0{fill:#9AD14B;}
	.st1{fill:#90BC42;}
	.st2{fill:#FFD7A5;}
	.st3{fill:#F7B239;}
	.st4{fill:#E09B2D;}
	.st5{fill:#FFE6CD;}
</style>
<rect x="173.6" y="252.4" class="st0" width="21" height="81.8"/>
<path class="st1" d="M194.6,252.4v26.1c-3.4,0.6-6.9,1-10.5,1c-3.6,0-7.1-0.3-10.5-1v-26.1H194.6z"/>
<rect x="400.7" y="252.4" class="st0" width="21" height="81.8"/>
<path class="st1" d="M421.7,252.4v26.1c-3.4,0.6-6.9,1-10.5,1c-3.6,0-7.1-0.3-10.5-1v-26.1H421.7z"/>
<path class="st2" d="M354.4,148.6H240.9v34.2v25v25.3c0,31.4,25.4,56.8,56.8,56.8c31.3,0,56.8-25.4,56.8-56.8l-1.2-40.6L354.4,148.6
	z"/>
<rect x="287.1" y="288.4" class="st0" width="21" height="45.8"/>
<polygon class="st3" points="411.2,322.1 370.8,322.1 297.6,322.1 184.1,322.1 138,322.1 138,322.1 138,322.1 185.5,477.4 
	197.5,466.5 301.5,718.6 465.1,322.1 "/>
<g>
	<polyline class="st4" points="210.8,455 198.6,322.1 138,322.1 185.5,477.4 	"/>
	<polygon class="st4" points="346.3,342.4 197.5,466.5 208.8,493.8 208.8,493.8 301.5,718.6 259.8,433.9 	"/>
</g>
<polygon class="st5" points="354.4,207.8 354.4,233.1 279.4,167.7 354.4,148.6 354.4,182.8 "/>
<g>
	<path class="st5" d="M468,123.3v84.5c0,31.4-25.4,56.8-56.8,56.8c-31.3,0-56.8-25.4-56.8-56.8v-84.5H468z"/>
	<path class="st5" d="M240.9,123.3v84.5c0,31.4-25.4,56.8-56.8,56.8s-56.8-25.4-56.8-56.8v-84.5H240.9z"/>
</g>
<path class="st1" d="M308.2,288.4v15.5c-3.4,0.6-6.9,1-10.5,1s-7.1-0.3-10.5-1v-15.5H308.2z"/>
<g>
	<path class="st2" d="M127.3,123.3L127.3,123.3v84.5c0,31.4,25.4,56.8,56.8,56.8c6.7,0,13.2-1.2,19.1-3.3
		c-21.9-7.9-37.6-28.8-37.6-53.5v-64.4l75.3,39.4v-34.2v-25.3H127.3z"/>
	<path class="st5" d="M279.4,232.1v-64.4l-38.3-20.1v84.5c0,31.4,25.4,56.8,56.8,56.8c6.7,0,13.2-1.2,19.1-3.3
		C295.1,277.7,279.4,256.8,279.4,232.1z"/>
	<path class="st2" d="M391.5,206.9v-43.6l0,0l76.5-40H354.4v25.3v33.6l-1.2,0.6v24.1c0,31.4,25.4,56.8,56.8,56.8
		c6.7,0,13.2-1.2,19.1-3.3C407.2,252.5,391.5,231.6,391.5,206.9z"/>
</g>
</svg>
