<?xml version="1.0" encoding="utf-8"?>
<!-- Generator: Adobe Illustrator 19.0.0, SVG Export Plug-In . SVG Version: 6.00 Build 0)  -->
<svg version="1.1" id="Capa_1" xmlns="http://www.w3.org/2000/svg" xmlns:xlink="http://www.w3.org/1999/xlink" x="0px" y="0px"
	 viewBox="98.8 123.4 397.7 595.2" style="enable-background:new 98.8 123.4 397.7 595.2;" xml:space="preserve">
<style type="text/css">
	.st0{fill:#F3F0E0;}
	.st1{fill:#E8B9AC;}
	.st2{fill:#BC6190;}
	.st3{fill:#3E2C3A;}
	.st4{fill:#8D496C;}
</style>
<g>
	<path class="st0" d="M477.6,501.2c-5.7-57.1-38.7-108.5-88.4-137.6c-2.5-1.5-4.2-4-4.6-6.9c-0.4-2.9,0.5-5.8,2.5-7.9
		c21.6-22.8,33.5-52.7,33.5-84.1c0-67.5-54.9-122.4-122.4-122.4s-122.4,54.9-122.4,122.4c0,31.4,11.9,61.3,33.5,84.1
		c2,2.1,2.9,5,2.5,7.9c-0.4,2.9-2.1,5.4-4.6,6.9c-55.1,32.3-89.3,91.9-89.3,155.7c0,99.4,80.9,180.3,180.3,180.3
		c93.1,0,170.2-69.8,179.4-162.3c0.5-5.1,5-8.9,10.2-8.5c0.2-3.2,0.2-6.3,0.2-9.5c0-3.2-0.1-6.4-0.3-9.5
		C482.6,510.1,478.1,506.3,477.6,501.2z M212.8,235.1c5.8-17.9,22.4-29.9,41.2-29.9c0.8,0,1.5,0,2.3,0.1c5-18.5,21.9-32.1,41.8-32.1
		c20,0,36.9,13.6,41.8,32.1c0.8,0,1.5-0.1,2.3-0.1c18.8,0,35.4,12,41.2,29.9c6.2,19-1.6,39.3-17.6,49.7c6.8,17.9,1.2,38.8-15,50.6
		c-7.5,5.4-16.2,8.3-25.4,8.3c-10,0-19.7-3.5-27.3-9.7c-7.6,6.2-17.3,9.7-27.3,9.7c-9.2,0-18-2.9-25.4-8.3
		c-16.2-11.7-21.8-32.7-15-50.6C214.4,274.4,206.6,254.1,212.8,235.1z M407.8,550.4c14.4,29.5,5.9,66-21.4,85.9
		c-11.8,8.6-25.8,13.2-40.4,13.2c-17.9,0-35.2-7.1-47.9-19.4c-12.7,12.3-29.9,19.3-47.9,19.4c-14.6,0-28.6-4.6-40.4-13.2
		c-27.4-19.9-35.8-56.5-21.4-85.9c-28.9-15.4-43.6-49.9-33.2-82.1c9.3-28.5,35.6-47.6,65.5-47.6c3.2,0,6.4,0.2,9.6,0.7
		c5.7-32.3,34-56.9,67.8-56.9s62.1,24.6,67.8,56.9c3.2-0.4,6.4-0.7,9.6-0.7c29.9,0,56.2,19.1,65.5,47.6
		C451.5,500.5,436.8,535,407.8,550.4z"/>
	<path class="st1" d="M298.1,278.4c8.6,0,15.6-7,15.6-15.6c0-8.6-7-15.6-15.6-15.6c-8.6,0-15.6,7-15.6,15.6
		C282.6,271.4,289.5,278.4,298.1,278.4z"/>
	<path class="st2" d="M246.4,271.6c2.9,0.9,5.1,3.2,6.1,6.1c0.9,2.9,0.4,6-1.3,8.5c-7.8,10.8-5.3,26,5.5,33.9
		c4.2,3,9.1,4.6,14.3,4.6c7.7,0,15.1-3.7,19.6-9.9c1.8-2.4,4.6-3.9,7.7-3.9s5.9,1.4,7.7,3.9c4.6,6.2,11.9,9.9,19.6,9.9
		c5.2,0,10.1-1.6,14.3-4.6c10.8-7.8,13.2-23,5.5-33.9c-1.8-2.5-2.3-5.6-1.3-8.5c0.9-2.9,3.2-5.1,6.1-6.1
		c12.7-4.2,19.6-17.9,15.5-30.6c-3.3-10.1-12.6-16.8-23.1-16.8c-2.5,0-5,0.4-7.4,1.2c-2.9,0.9-6,0.4-8.5-1.4
		c-2.4-1.8-3.9-4.6-3.9-7.6c-0.1-13.3-11-24.2-24.3-24.2s-24.3,10.9-24.3,24.2c0,3-1.5,5.9-3.9,7.6c-2.4,1.8-5.6,2.3-8.5,1.4
		c-2.4-0.8-4.9-1.2-7.4-1.2c-10.6,0-19.9,6.8-23.1,16.8C226.7,253.7,233.7,267.4,246.4,271.6z M298.1,228.3
		c19.1,0,34.5,15.5,34.5,34.6c0,19.1-15.5,34.5-34.5,34.5s-34.5-15.5-34.5-34.5C263.6,243.8,279.1,228.3,298.1,228.3z"/>
	<path class="st3" d="M298.1,297.4c19.1,0,34.5-15.5,34.5-34.5c0-19.1-15.5-34.6-34.5-34.6s-34.5,15.5-34.5,34.6
		C263.6,281.9,279.1,297.4,298.1,297.4z M298.1,247.3c8.6,0,15.6,7,15.6,15.6c0,8.6-7,15.6-15.6,15.6c-8.6,0-15.6-7-15.6-15.6
		C282.6,254.3,289.5,247.3,298.1,247.3z"/>
	<path class="st3" d="M230.4,284.8c-6.8,17.9-1.2,38.8,15,50.6c7.5,5.4,16.2,8.3,25.4,8.3c10,0,19.7-3.5,27.3-9.7
		c7.6,6.2,17.3,9.7,27.3,9.7c9.2,0,18-2.9,25.4-8.3c16.2-11.7,21.8-32.7,15-50.6c16-10.4,23.8-30.7,17.6-49.7
		c-5.8-17.9-22.4-29.9-41.2-29.9c-0.8,0-1.5,0-2.3,0.1c-5-18.5-21.9-32.1-41.8-32.1s-36.9,13.6-41.8,32.1c-0.8,0-1.5-0.1-2.3-0.1
		c-18.8,0-35.4,12-41.2,29.9C206.6,254.1,214.4,274.4,230.4,284.8z M230.9,241c3.3-10.1,12.6-16.8,23.1-16.8c2.5,0,5,0.4,7.4,1.2
		c2.9,0.9,6,0.4,8.5-1.4c2.4-1.8,3.9-4.6,3.9-7.6c0.1-13.3,11-24.2,24.3-24.2c13.3,0,24.3,10.9,24.3,24.2c0,3,1.5,5.9,3.9,7.6
		c2.4,1.8,5.6,2.3,8.5,1.4c2.4-0.8,4.9-1.2,7.4-1.2c10.6,0,19.9,6.8,23.1,16.8c4.1,12.7-2.8,26.4-15.5,30.6
		c-2.9,0.9-5.1,3.2-6.1,6.1c-0.9,2.9-0.4,6,1.3,8.5c7.8,10.8,5.3,26-5.5,33.9c-4.2,3-9.1,4.6-14.3,4.6c-7.7,0-15.1-3.7-19.6-9.9
		c-1.8-2.4-4.6-3.9-7.7-3.9s-5.9,1.4-7.7,3.9c-4.6,6.2-11.9,9.9-19.6,9.9c-5.2,0-10.1-1.6-14.3-4.6c-10.8-7.8-13.2-23-5.5-33.9
		c1.8-2.5,2.3-5.6,1.3-8.5c-0.9-2.9-3.2-5.1-6.1-6.1C233.7,267.4,226.7,253.7,230.9,241z"/>
	<path class="st1" d="M332.6,514.7c0-19-15.5-34.5-34.5-34.5c-19,0-34.5,15.5-34.5,34.5c0,19,15.5,34.5,34.5,34.5
		C317.1,549.2,332.6,533.7,332.6,514.7z"/>
	<path class="st4" d="M422.9,474.2c-6.7-20.6-25.8-34.5-47.4-34.5c-5.1,0-10.2,0.8-15.2,2.4c-2.9,0.9-6,0.4-8.5-1.4
		c-2.4-1.8-3.9-4.6-3.9-7.6c-0.1-27.4-22.5-49.6-49.9-49.6s-49.7,22.3-49.9,49.6c0,3-1.5,5.9-3.9,7.6c-2.4,1.8-5.6,2.3-8.5,1.4
		c-4.9-1.6-10-2.4-15.2-2.4c-21.7,0-40.7,13.9-47.4,34.5c-8.5,26,5.8,54.2,31.8,62.8c2.9,0.9,5.1,3.2,6.1,6.1c0.9,2.9,0.4,6-1.3,8.5
		c-16,22.2-10.9,53.4,11.2,69.4c8.6,6.2,18.7,9.5,29.3,9.5c15.8,0,30.9-7.6,40.2-20.3c1.8-2.4,4.6-3.9,7.7-3.9s5.9,1.4,7.7,3.9
		c9.4,12.7,24.4,20.3,40.2,20.3c10.6,0,20.7-3.3,29.3-9.5c22.1-16.1,27.1-47.2,11.2-69.4c-1.8-2.5-2.3-5.6-1.3-8.5
		c0.9-2.9,3.2-5.1,6.1-6.1C417.1,528.3,431.4,500.2,422.9,474.2z M351.6,514.7c0,2.4-0.2,4.9-0.5,7.2l9.9,3.2c5,1.6,7.7,7,6.1,12
		c-1.3,4-5,6.6-9,6.6c-1,0-2-0.2-2.9-0.5l-9.9-3.2c-2.3,4.3-5.2,8.2-8.5,11.7l6.1,8.4c3.1,4.2,2.1,10.2-2.1,13.3
		c-1.7,1.2-3.6,1.8-5.6,1.8c-2.9,0-5.8-1.4-7.7-3.9l-6.1-8.4c-4.3,2.1-8.9,3.6-13.7,4.5v10.4c0,5.2-4.3,9.5-9.5,9.5
		s-9.5-4.3-9.5-9.5v-10.4c-4.8-0.9-9.4-2.4-13.7-4.5l-6.1,8.4c-1.9,2.6-4.8,3.9-7.7,3.9c-1.9,0-3.9-0.6-5.6-1.8
		c-4.2-3.1-5.2-9-2.1-13.3l6.1-8.4c-3.3-3.5-6.2-7.4-8.5-11.7l-9.9,3.2c-1,0.3-2,0.5-2.9,0.5c-4,0-7.7-2.6-9-6.6
		c-1.6-5,1.1-10.3,6.1-12l9.9-3.2c-0.3-2.4-0.5-4.8-0.5-7.2c0-2.4,0.2-4.9,0.5-7.2l-9.9-3.2c-5-1.6-7.7-7-6.1-12c1.6-5,7-7.7,12-6.1
		l9.9,3.2c2.3-4.3,5.2-8.2,8.5-11.7l-6.1-8.4c-3.1-4.2-2.1-10.2,2.1-13.3c4.2-3.1,10.2-2.1,13.3,2.1l6.1,8.4
		c4.3-2.1,8.9-3.6,13.7-4.5v-10.4c0-5.2,4.3-9.5,9.5-9.5c5.2,0,9.5,4.3,9.5,9.5v10.4c4.8,0.9,9.4,2.4,13.7,4.5l6.1-8.4
		c3.1-4.2,9-5.2,13.3-2.1c4.2,3.1,5.2,9,2.1,13.3l-6.1,8.4c3.3,3.5,6.2,7.4,8.5,11.7l9.9-3.2c5-1.6,10.3,1.1,12,6.1
		c1.6,5-1.1,10.3-6.1,12l-9.9,3.2C351.4,509.9,351.6,512.3,351.6,514.7z"/>
	<path class="st3" d="M375.5,420.7c-3.2,0-6.4,0.2-9.6,0.7c-5.7-32.3-34-56.9-67.8-56.9s-62.1,24.6-67.8,56.9
		c-3.2-0.4-6.4-0.7-9.6-0.7c-29.9,0-56.2,19.1-65.5,47.6c-10.5,32.2,4.2,66.7,33.2,82.1c-14.4,29.5-5.9,66,21.4,85.9
		c11.8,8.6,25.8,13.2,40.4,13.2c17.9,0,35.2-7.1,47.9-19.4c12.7,12.3,29.9,19.4,47.9,19.4c14.6,0,28.6-4.5,40.4-13.2
		c27.4-19.9,35.8-56.5,21.4-85.9c28.9-15.4,43.6-49.9,33.2-82.1C431.8,439.8,405.4,420.7,375.5,420.7z M391.2,536.9
		c-2.9,0.9-5.1,3.2-6.1,6.1c-0.9,2.9-0.4,6,1.3,8.5c16,22.2,10.9,53.4-11.2,69.4c-8.6,6.2-18.7,9.5-29.3,9.5
		c-15.8,0-30.9-7.6-40.2-20.3c-1.8-2.4-4.6-3.9-7.7-3.9c-3,0-5.9,1.4-7.7,3.9c-9.4,12.7-24.4,20.3-40.2,20.3
		c-10.6,0-20.7-3.3-29.3-9.5c-22.1-16.1-27.1-47.2-11.2-69.4c1.8-2.5,2.3-5.6,1.3-8.5c-0.9-2.9-3.2-5.1-6.1-6.1
		c-26-8.6-40.2-36.7-31.8-62.8c6.7-20.6,25.8-34.5,47.4-34.5c5.1,0,10.2,0.8,15.2,2.4c2.9,0.9,6,0.4,8.5-1.4
		c2.4-1.8,3.9-4.6,3.9-7.6c0.1-27.4,22.5-49.6,49.9-49.6c27.3,0,49.7,22.3,49.9,49.6c0,3,1.5,5.9,3.9,7.6c2.4,1.8,5.6,2.3,8.5,1.4
		c4.9-1.6,10-2.4,15.2-2.4c21.7,0,40.7,13.9,47.4,34.5C431.4,500.2,417.1,528.3,391.2,536.9z"/>
	<path class="st3" d="M367,492.4c-1.6-5-7-7.7-12-6.1l-9.9,3.2c-2.3-4.3-5.2-8.2-8.5-11.7l6.1-8.4c3.1-4.2,2.1-10.2-2.1-13.3
		c-4.2-3.1-10.2-2.1-13.3,2.1l-6.1,8.4c-4.3-2.1-8.9-3.6-13.7-4.5v-10.4c0-5.2-4.3-9.5-9.5-9.5c-5.2,0-9.5,4.3-9.5,9.5v10.4
		c-4.8,0.9-9.4,2.4-13.7,4.5l-6.1-8.4c-3.1-4.2-9-5.2-13.3-2.1c-4.2,3.1-5.2,9-2.1,13.3l6.1,8.4c-3.3,3.5-6.2,7.4-8.5,11.7l-9.9-3.2
		c-5-1.6-10.3,1.1-12,6.1c-1.6,5,1.1,10.3,6.1,12l9.9,3.2c-0.3,2.4-0.5,4.8-0.5,7.2c0,2.4,0.2,4.9,0.5,7.2l-9.9,3.2
		c-5,1.6-7.7,7-6.1,12c1.3,4,5,6.6,9,6.6c1,0,2-0.2,2.9-0.5l9.9-3.2c2.3,4.3,5.2,8.2,8.5,11.7l-6.1,8.4c-3.1,4.2-2.1,10.2,2.1,13.3
		c1.7,1.2,3.6,1.8,5.6,1.8c2.9,0,5.8-1.4,7.7-3.9l6.1-8.4c4.3,2.1,8.9,3.6,13.7,4.5v10.4c0,5.2,4.3,9.5,9.5,9.5s9.5-4.3,9.5-9.5
		v-10.4c4.8-0.9,9.4-2.4,13.7-4.5l6.1,8.4c1.9,2.6,4.8,3.9,7.7,3.9c1.9,0,3.9-0.6,5.6-1.8c4.2-3.1,5.2-9,2.1-13.3l-6.1-8.4
		c3.3-3.5,6.2-7.4,8.5-11.7l9.9,3.2c1,0.3,2,0.5,2.9,0.5c4,0,7.7-2.6,9-6.6c1.6-5-1.1-10.3-6.1-12l-9.9-3.2c0.3-2.4,0.5-4.8,0.5-7.2
		c0-2.4-0.2-4.9-0.5-7.2l9.9-3.2C365.9,502.7,368.6,497.3,367,492.4z M298.1,549.2c-19,0-34.5-15.5-34.5-34.5
		c0-19,15.5-34.5,34.5-34.5s34.5,15.5,34.5,34.5C332.6,533.7,317.1,549.2,298.1,549.2z"/>
	<path class="st3" d="M487.9,528.8c-0.1,0-0.2,0-0.2,0c-5.1-0.4-9.6,3.4-10.2,8.5c-9.2,92.5-86.3,162.3-179.4,162.3
		c-99.4,0-180.3-80.9-180.3-180.3c0-63.7,34.2-123.4,89.3-155.7c2.5-1.5,4.2-4,4.6-6.9c0.4-2.9-0.5-5.8-2.5-7.9
		c-21.6-22.8-33.5-52.7-33.5-84.1c0-67.5,54.9-122.4,122.4-122.4s122.4,54.9,122.4,122.4c0,31.4-11.9,61.3-33.5,84.1
		c-2,2.1-2.9,5-2.5,7.9c0.4,2.9,2.1,5.4,4.6,6.9c49.7,29.1,82.7,80.6,88.4,137.6c0.5,5.1,5,8.9,10.1,8.5c0.1,0,0.2,0,0.3,0
		c5.2-0.5,9-5.2,8.5-10.4c-5.9-59.3-38.5-113.1-88-146.1c20.1-25,31.1-56.1,31.1-88.5c0-78-63.4-141.4-141.4-141.4
		s-141.4,63.4-141.4,141.4c0,32.4,11,63.4,31.1,88.5c-25.2,16.8-46.4,39.2-61.8,65.4c-17.8,30.4-27.2,65.2-27.2,100.6
		c0,109.9,89.4,199.3,199.3,199.3c49.8,0,97.4-18.4,134.2-51.9c36.5-33.3,59.3-78.5,64.2-127.5C497,534,493.2,529.3,487.9,528.8z"/>
</g>
</svg>
