<?xml version="1.0" encoding="utf-8"?>
<!-- Generator: Adobe Illustrator 19.0.0, SVG Export Plug-In . SVG Version: 6.00 Build 0)  -->
<svg version="1.1" id="Capa_1" xmlns="http://www.w3.org/2000/svg" xmlns:xlink="http://www.w3.org/1999/xlink" x="0px" y="0px"
	 viewBox="0 133.4 595.3 575.1" style="enable-background:new 0 133.4 595.3 575.1;" xml:space="preserve">
<style type="text/css">
	.st0{fill:#82C888;}
	.st1{fill:#73AA82;}
	.st2{fill:#E88470;}
	.st3{fill:#D2504B;}
	.st4{fill:#BE3C3C;}
	.st5{fill:#823C41;}
	.st6{fill:#FFB996;}
	.st7{fill:#FFE6D2;}
	.st8{fill:#FFD7B4;}
</style>
<g>
	<path class="st0" d="M276.1,393.6l-11-20c-1.5-2.7-0.5-6.1,2.2-7.6c2.7-1.5,6.1-0.5,7.6,2.2l12.7,22.9c0.1,0,0.2,0,0.3,0
		c13.4,0,24.7,8.8,28.4,20.9c3.8-1.9,7.9-2.9,12.1-3.1c-1.8-4.3-3.8-8.5-6.1-12.7c-16.7-30.3-43.1-50.2-68.5-54.7
		c-7.8,19.1-7.5,44,1.4,68.7c1.5,0.5,2.9,1,4.3,1.7C262.1,403.8,268.2,397,276.1,393.6z"/>
	<path class="st1" d="M274.9,368.3c-1.5-2.7-4.9-3.7-7.6-2.2c-2.7,1.5-3.7,4.9-2.2,7.6l11,20c3.5-1.5,7.4-2.4,11.4-2.4L274.9,368.3z
		"/>
	<path class="st0" d="M53.3,419.2l-32-21c-2.2-1.4-2.8-4.4-1.4-6.6c1.4-2.2,4.4-2.8,6.6-1.4L71.8,420c4.2-10.6,14.2-18.2,26.1-18.8
		l-14-22.8c-1.4-2.2-0.7-5.2,1.6-6.6c2.2-1.4,5.2-0.7,6.6,1.6l11.1,18.1c0.9-1.3,1.9-2.5,3-3.6c4.4-4.4,9.9-7.2,15.6-8.2
		c-14.3-16-32-26-48.8-28.1c-4.1,11.5-4.7,25.3-1.9,39.6c-24.1-15-50.9-19-71.1-12.6c1.9,18.8,13.4,39.1,32.4,54.7
		c1.2-2,2.7-3.9,4.4-5.7C41.4,422.9,47.2,420.1,53.3,419.2z"/>
	<path class="st1" d="M26.5,390.3c-2.2-1.4-5.2-0.8-6.6,1.4c-1.4,2.2-0.8,5.2,1.4,6.6l32,21c6-0.9,12.2,0,17.8,2.8
		c0.2-0.7,0.5-1.3,0.7-2L26.5,390.3z"/>
	<path class="st1" d="M103.2,391.5L92,373.4c-1.4-2.2-4.3-2.9-6.6-1.6c-2.2,1.4-2.9,4.3-1.6,6.6l14,22.8c0.2,0,0.4,0,0.6,0
		C99.5,397.7,101,394.5,103.2,391.5z"/>
	<path class="st1" d="M574,398.2c2.2-1.4,2.8-4.4,1.4-6.6c-1.4-2.2-4.4-2.8-6.6-1.4l-44.6,29.3c3.7,0.8,7.3,2.3,10.6,4.5L574,398.2z
		"/>
	<path class="st0" d="M477.3,401.1c2.8,0.1,5.5,0.6,8.1,1.4l17.9-29.1c1.4-2.2,4.3-2.9,6.6-1.6c2.2,1.4,2.9,4.3,1.6,6.6l-17.5,28.5
		c5.1,3.7,8.9,9,10.8,15.2c6.1-3,12.9-3.9,19.4-2.5l44.6-29.3c2.2-1.4,5.2-0.8,6.6,1.4c1.4,2.2,0.8,5.2-1.4,6.6L534.7,424
		c1.5,1,3,2.2,4.4,3.6c4.6,4.6,7.4,10.4,8.3,16.3c2-1.1,3.9-2.3,5.8-3.6c24.7-16.2,39.9-40,42.1-61.9c-20.3-6.5-47-2.4-71.1,12.6
		c2.9-14.3,2.2-28-1.9-39.6c-19.1,2.5-39.3,14.9-54.4,34.9c0.6,0.5,1.2,1,1.7,1.6C473.4,391.7,475.9,396.3,477.3,401.1z"/>
	<path class="st1" d="M511.4,378.4c1.4-2.2,0.7-5.2-1.6-6.6c-2.2-1.4-5.2-0.7-6.6,1.6l-17.9,29.1c3.1,1,6,2.5,8.5,4.3L511.4,378.4z"
		/>
	<path class="st2" d="M534.7,424c-3.3-2.2-6.8-3.7-10.6-4.5c-6.5-1.4-13.4-0.5-19.4,2.5c0.9,2.8,1.3,5.7,1.3,8.8
		c0,9.2-4.1,24.7-10.6,36.7c1.3,1.1,2.6,2.3,3.7,3.7c12-6.5,27.6-10.6,36.7-10.6c3.1,0,6,0.5,8.8,1.3c2.8-5.6,3.7-11.9,2.8-18
		c-1-6-3.7-11.7-8.3-16.3C537.7,426.3,536.2,425.1,534.7,424z"/>
	<path class="st3" d="M499.1,471.2c4.3,5.2,7,11.8,7,19.1h59.5c0-13.4-8.8-24.7-20.9-28.4c-2.8-0.9-5.7-1.3-8.8-1.3
		C526.6,460.6,511.1,464.7,499.1,471.2z"/>
	<path class="st4" d="M499.1,471.2c-1.1-1.3-2.3-2.6-3.7-3.7c-1-0.8-2-1.6-3.1-2.3c-2.8,4.9-6.9,8.9-11.8,11.6
		c5.7,1.8,9.9,7.1,9.9,13.5H506C506,483.1,503.4,476.4,499.1,471.2z"/>
	<path class="st5" d="M480.5,476.9c-1.7,0.9-3.4,1.6-5.2,2.2c1.8,3.6,2.8,7.4,3.1,11.3h12.1C490.4,484,486.2,478.7,480.5,476.9z"/>
	<path class="st2" d="M76.7,471.2c1.1-1.3,2.3-2.6,3.7-3.7c-6.5-12-10.6-27.6-10.6-36.7c0-3.1,0.5-6.1,1.4-8.9
		c-5.6-2.8-11.8-3.7-17.8-2.8c-6,0.9-11.8,3.7-16.5,8.3c-1.7,1.7-3.2,3.7-4.4,5.7c-5.3,8.8-5.7,19.6-1.1,28.7
		c2.8-0.8,5.7-1.3,8.7-1.3C49.1,460.6,64.7,464.7,76.7,471.2z"/>
	<path class="st3" d="M76.7,471.2c-12-6.5-27.6-10.6-36.7-10.6c-3,0-6,0.5-8.7,1.3c-12.2,3.7-21,15.1-21,28.4h59.5
		C69.7,483.1,72.3,476.4,76.7,471.2z"/>
	<path class="st4" d="M95.3,476.9c-5-2.7-9.1-6.7-11.8-11.6c-1.1,0.7-2.1,1.5-3.1,2.3c-1.3,1.1-2.6,2.3-3.7,3.7
		c-4.3,5.2-7,11.8-7,19.1h15.7C85.4,484,89.5,478.7,95.3,476.9z"/>
	<path class="st5" d="M100.5,479.1c-1.8-0.6-3.5-1.3-5.2-2.2c-5.7,1.8-9.9,7.1-9.9,13.5h12C97.6,486.5,98.7,482.6,100.5,479.1z"/>
	<path class="st6" d="M149,369v-77c0-76.6,62.3-138.8,138.8-138.8S426.7,215.5,426.7,292v77c4,3.6,7,8.1,8.6,13.4
		c3.5-1.8,7.4-2.8,11.2-3.1V292c0-87.5-71.2-158.7-158.7-158.7S129.2,204.5,129.2,292v87.2c3.9,0.3,7.7,1.3,11.3,3
		C142.1,377.1,145.1,372.6,149,369z"/>
	<path class="st7" d="M565.5,490.4H506h-15.7h-12.1c0.5,6.9-1.4,14-5.8,19.8h43.4c5.5,0,9.9,4.4,9.9,9.9s-4.4,9.9-9.9,9.9h-59.5
		c-4.8,0-8.8-3.4-9.7-7.9c-3.9-0.3-7.8-1.3-11.5-3.1c-3.8,12.1-15.1,20.9-28.4,20.9c-13.4,0-24.7-8.8-28.4-21
		c-3.6,1.8-7.5,2.8-11.4,3.1c-0.8,4.2-4.3,7.4-8.7,7.9c-1.3,4.9-3.8,9.5-7.7,13.3c-3,3-6.4,5.1-10,6.6H397c5.5,0,9.9,4.4,9.9,9.9
		s-4.4,9.9-9.9,9.9h-59.5c-5.5,0-9.9-4.4-9.9-9.9c0-3.2,1.5-6.1,3.9-7.9c-5.2,0.3-10.4-0.7-15.2-3.1c-1.7,5.4-4.8,10.1-9,13.6
		c-1.2,4.2-5,7.3-9.5,7.3h-9.9H278c-4.6,0-8.4-3.1-9.5-7.3c-4.2-3.6-7.3-8.3-9-13.7c-4.8,2.4-10,3.4-15.2,3.1c2.4,1.8,4,4.7,4,8
		c0,5.5-4.4,9.9-9.9,9.9h-59.5c-5.5,0-9.9-4.4-9.9-9.9c0-5.5,4.4-9.9,9.9-9.9h56.4c-3.7-1.5-7.2-3.7-10.2-6.7
		c-5.9-5.9-8.8-13.7-8.7-21.5c-2.6,0.5-5.3,0.6-8,0.4c-0.9,4.5-4.9,7.9-9.7,7.9H191c-5.4,6.1-13.4,9.9-22.2,9.9
		c-8.8,0-16.7-3.8-22.2-9.9h-7.6c-4.8,0-8.8-3.4-9.7-8c-7.5,0.6-15.1-1.6-21.2-6.6c0.7,1.4,1.2,3,1.2,4.7c0,5.5-4.4,9.9-9.9,9.9
		H79.6c-5.5,0-9.9-4.4-9.9-9.9s4.4-9.9,9.9-9.9h19.8c1.7,0,3.3,0.4,4.6,1.2c-5-6-7.2-13.6-6.7-21h-12H69.7H10.2H0.3l7.5,27.4
		l-2.1-7.5H40c5.5,0,9.9,4.4,9.9,9.9l0,0c0,5.5-4.4,9.9-9.9,9.9H11.1l19,69.8l-2.8-10.3H40c5.5,0,9.9,4.4,9.9,9.9l0,0
		c0,5.5-4.4,9.9-9.9,9.9h-7.2l5.4,19.8h41.5c5.5,0,9.9,4.4,9.9,9.9s-4.4,9.9-9.9,9.9H43.6l-3.9-14.4l14.2,52
		c3.5,12.9,15.3,21.9,28.7,21.9h410.7c13.4,0,25.2-9,28.7-21.9l14.2-52l-3.9,14.4h-36.1c-5.5,0-9.9-4.4-9.9-9.9s4.4-9.9,9.9-9.9
		h41.5l27-99.2h-9c-5.5,0-9.9-4.4-9.9-9.9l0,0c0-5.5,4.4-9.9,9.9-9.9H570l-2.1,7.5l7.5-27.4L565.5,490.4L565.5,490.4z M436.6,549.9
		h19.8c5.5,0,9.9,4.4,9.9,9.9s-4.4,9.9-9.9,9.9h-19.8c-5.5,0-9.9-4.4-9.9-9.9S431.1,549.9,436.6,549.9z M397,589.5h19.8
		c5.5,0,9.9,4.4,9.9,9.9s-4.4,9.9-9.9,9.9H397c-5.5,0-9.9-4.4-9.9-9.9S391.5,589.5,397,589.5z M406.9,639.1c0,5.5-4.4,9.9-9.9,9.9
		h-59.5c-5.5,0-9.9-4.4-9.9-9.9c0-5.5,4.4-9.9,9.9-9.9H397C402.4,629.2,406.9,633.6,406.9,639.1z M297.8,589.5h59.5
		c5.5,0,9.9,4.4,9.9,9.9s-4.4,9.9-9.9,9.9h-59.5c-5.5,0-9.9-4.4-9.9-9.9S292.3,589.5,297.8,589.5z M238.3,589.5h19.8
		c5.5,0,9.9,4.4,9.9,9.9s-4.4,9.9-9.9,9.9h-19.8c-5.5,0-9.9-4.4-9.9-9.9S232.8,589.5,238.3,589.5z M248.2,639.1
		c0,5.5-4.4,9.9-9.9,9.9h-59.5c-5.5,0-9.9-4.4-9.9-9.9c0-5.5,4.4-9.9,9.9-9.9h59.5C243.8,629.2,248.2,633.6,248.2,639.1z
		 M198.6,589.5c5.5,0,9.9,4.4,9.9,9.9s-4.4,9.9-9.9,9.9h-59.5c-5.5,0-9.9-4.4-9.9-9.9s4.4-9.9,9.9-9.9H198.6z M119.3,549.9h19.8
		c5.5,0,9.9,4.4,9.9,9.9s-4.4,9.9-9.9,9.9h-19.8c-5.5,0-9.9-4.4-9.9-9.9S113.8,549.9,119.3,549.9z M21.9,569.7l-5.2-19.1
		c1.1-0.4,2.2-0.7,3.4-0.7h59.5c5.5,0,9.9,4.4,9.9,9.9s-4.4,9.9-9.9,9.9H21.9z M79.6,609.4c-5.5,0-9.9-4.4-9.9-9.9s4.4-9.9,9.9-9.9
		h19.8c5.5,0,9.9,4.4,9.9,9.9s-4.4,9.9-9.9,9.9H79.6z M99.5,688.7H79.6c-5.5,0-9.9-4.4-9.9-9.9c0-5.5,4.4-9.9,9.9-9.9h19.8
		c5.5,0,9.9,4.4,9.9,9.9C109.4,684.2,104.9,688.7,99.5,688.7z M109.4,639.1c0-5.5,4.4-9.9,9.9-9.9h19.8c5.5,0,9.9,4.4,9.9,9.9
		c0,5.5-4.4,9.9-9.9,9.9h-19.8C113.8,649,109.4,644.6,109.4,639.1z M198.6,688.7h-59.5c-5.5,0-9.9-4.4-9.9-9.9
		c0-5.5,4.4-9.9,9.9-9.9h59.5c5.5,0,9.9,4.4,9.9,9.9C208.5,684.2,204.1,688.7,198.6,688.7z M258.1,688.7h-19.8
		c-5.5,0-9.9-4.4-9.9-9.9c0-5.5,4.4-9.9,9.9-9.9h19.8c5.5,0,9.9,4.4,9.9,9.9C268,684.2,263.6,688.7,258.1,688.7z M268,639.1
		c0-5.5,4.4-9.9,9.9-9.9h19.8c5.5,0,9.9,4.4,9.9,9.9c0,5.5-4.4,9.9-9.9,9.9H278C272.5,649,268,644.6,268,639.1z M357.3,688.7h-59.5
		c-5.5,0-9.9-4.4-9.9-9.9c0-5.5,4.4-9.9,9.9-9.9h59.5c5.5,0,9.9,4.4,9.9,9.9C367.2,684.2,362.8,688.7,357.3,688.7z M416.8,688.7H397
		c-5.5,0-9.9-4.4-9.9-9.9c0-5.5,4.4-9.9,9.9-9.9h19.8c5.5,0,9.9,4.4,9.9,9.9C426.7,684.2,422.3,688.7,416.8,688.7z M426.7,639.1
		c0-5.5,4.4-9.9,9.9-9.9h19.8c5.5,0,9.9,4.4,9.9,9.9c0,5.5-4.4,9.9-9.9,9.9h-19.8C431.1,649,426.7,644.6,426.7,639.1z M515.9,668.9
		c4.1,0,7.7,2.5,9.1,6.1l-3.1,11.5c-1.7,1.3-3.7,2.2-6,2.2h-59.5c-5.5,0-9.9-4.4-9.9-9.9l0,0c0-5.5,4.4-9.9,9.9-9.9L515.9,668.9
		L515.9,668.9z M515.9,609.4h-59.5c-5.5,0-9.9-4.4-9.9-9.9s4.4-9.9,9.9-9.9h59.5c5.5,0,9.9,4.4,9.9,9.9S521.4,609.4,515.9,609.4z
		 M555.6,549.9c1.2,0,2.3,0.3,3.4,0.7l-5.2,19.1h-57.7c-5.5,0-9.9-4.4-9.9-9.9s4.4-9.9,9.9-9.9H555.6z"/>
	<path class="st8" d="M191,530h7.6c4.8,0,8.8-3.4,9.7-7.9c-3.8-0.3-7.6-1.3-11.1-3.1C196,523.2,193.9,526.9,191,530z"/>
	<path class="st8" d="M129.4,522c0.9,4.5,4.9,8,9.7,8h7.6c-2.8-3.2-5-6.9-6.3-11.1C137,520.7,133.2,521.7,129.4,522z"/>
	<path class="st6" d="M104.1,511.3c-1.4-0.7-3-1.2-4.6-1.2H79.6c-5.5,0-9.9,4.4-9.9,9.9s4.4,9.9,9.9,9.9h19.8c5.5,0,9.9-4.4,9.9-9.9
		c0-1.7-0.4-3.3-1.2-4.7c-0.8-0.6-1.5-1.3-2.2-2C105.3,512.8,104.7,512.1,104.1,511.3z"/>
	<path class="st8" d="M359.4,521.6c0.1,2.8-0.3,5.6-1,8.3c4.3-0.5,7.8-3.7,8.7-7.9C364.5,522.2,361.9,522.1,359.4,521.6z"/>
	<path class="st8" d="M446.7,522.1c0.9,4.5,4.9,7.9,9.7,7.9h59.5c5.5,0,9.9-4.4,9.9-9.9s-4.4-9.9-9.9-9.9h-43.4
		c-0.9,1.2-1.8,2.3-2.8,3.3C463.4,519.8,455,522.7,446.7,522.1z"/>
	<path class="st8" d="M178.8,549.9c-5.5,0-9.9,4.4-9.9,9.9s4.4,9.9,9.9,9.9h59.5c5.5,0,9.9-4.4,9.9-9.9c0-3.3-1.6-6.1-4-8
		c-3.1-0.2-6.1-0.8-9-2H178.8z"/>
	<path class="st6" d="M109.4,559.8c0,5.5,4.4,9.9,9.9,9.9h19.8c5.5,0,9.9-4.4,9.9-9.9s-4.4-9.9-9.9-9.9h-19.8
		C113.8,549.9,109.4,554.3,109.4,559.8z"/>
	<path class="st6" d="M297.8,569.7c4.6,0,8.4-3.1,9.5-7.3c-5.2,4.5-12,7.3-19.5,7.3H297.8z"/>
	<path class="st6" d="M278,569.7h9.9c-7.4,0-14.2-2.7-19.5-7.3C269.6,566.6,273.4,569.7,278,569.7z"/>
	<path class="st8" d="M327.5,559.8c0,5.5,4.4,9.9,9.9,9.9H397c5.5,0,9.9-4.4,9.9-9.9s-4.4-9.9-9.9-9.9h-56.3c-3,1.2-6.1,1.8-9.2,2
		C329.1,553.7,327.5,556.6,327.5,559.8z"/>
	<path class="st6" d="M436.6,569.7h19.8c5.5,0,9.9-4.4,9.9-9.9s-4.4-9.9-9.9-9.9h-19.8c-5.5,0-9.9,4.4-9.9,9.9
		S431.1,569.7,436.6,569.7z"/>
	<path class="st8" d="M129.2,599.4c0,5.5,4.4,9.9,9.9,9.9h59.5c5.5,0,9.9-4.4,9.9-9.9s-4.4-9.9-9.9-9.9h-59.5
		C133.7,589.5,129.2,594,129.2,599.4z"/>
	<path class="st6" d="M109.4,599.4c0-5.5-4.4-9.9-9.9-9.9H79.6c-5.5,0-9.9,4.4-9.9,9.9s4.4,9.9,9.9,9.9h19.8
		C104.9,609.4,109.4,604.9,109.4,599.4z"/>
	<path class="st6" d="M238.3,609.4h19.8c5.5,0,9.9-4.4,9.9-9.9s-4.4-9.9-9.9-9.9h-19.8c-5.5,0-9.9,4.4-9.9,9.9
		S232.8,609.4,238.3,609.4z"/>
	<path class="st8" d="M297.8,609.4h59.5c5.5,0,9.9-4.4,9.9-9.9s-4.4-9.9-9.9-9.9h-59.5c-5.5,0-9.9,4.4-9.9,9.9
		S292.3,609.4,297.8,609.4z"/>
	<path class="st8" d="M515.9,589.5h-59.5c-5.5,0-9.9,4.4-9.9,9.9s4.4,9.9,9.9,9.9h59.5c5.5,0,9.9-4.4,9.9-9.9
		S521.4,589.5,515.9,589.5z"/>
	<path class="st6" d="M397,609.4h19.8c5.5,0,9.9-4.4,9.9-9.9s-4.4-9.9-9.9-9.9H397c-5.5,0-9.9,4.4-9.9,9.9S391.5,609.4,397,609.4z"
		/>
	<path class="st8" d="M178.8,629.2c-5.5,0-9.9,4.4-9.9,9.9c0,5.5,4.4,9.9,9.9,9.9h59.5c5.5,0,9.9-4.4,9.9-9.9c0-5.5-4.4-9.9-9.9-9.9
		H178.8z"/>
	<path class="st6" d="M149,639.1c0-5.5-4.4-9.9-9.9-9.9h-19.8c-5.5,0-9.9,4.4-9.9,9.9c0,5.5,4.4,9.9,9.9,9.9h19.8
		C144.6,649,149,644.6,149,639.1z"/>
	<path class="st6" d="M307.7,639.1c0-5.5-4.4-9.9-9.9-9.9H278c-5.5,0-9.9,4.4-9.9,9.9c0,5.5,4.4,9.9,9.9,9.9h19.8
		C303.3,649,307.7,644.6,307.7,639.1z"/>
	<path class="st8" d="M337.5,629.2c-5.5,0-9.9,4.4-9.9,9.9c0,5.5,4.4,9.9,9.9,9.9H397c5.5,0,9.9-4.4,9.9-9.9c0-5.5-4.4-9.9-9.9-9.9
		H337.5z"/>
	<path class="st6" d="M466.4,639.1c0-5.5-4.4-9.9-9.9-9.9h-19.8c-5.5,0-9.9,4.4-9.9,9.9c0,5.5,4.4,9.9,9.9,9.9h19.8
		C461.9,649,466.4,644.6,466.4,639.1z"/>
	<path class="st8" d="M198.6,668.9h-59.5c-5.5,0-9.9,4.4-9.9,9.9c0,5.5,4.4,9.9,9.9,9.9h59.5c5.5,0,9.9-4.4,9.9-9.9
		C208.5,673.3,204.1,668.9,198.6,668.9z"/>
	<path class="st6" d="M99.5,668.9H79.6c-5.5,0-9.9,4.4-9.9,9.9c0,5.5,4.4,9.9,9.9,9.9h19.8c5.5,0,9.9-4.4,9.9-9.9
		C109.4,673.3,104.9,668.9,99.5,668.9z"/>
	<path class="st6" d="M258.1,668.9h-19.8c-5.5,0-9.9,4.4-9.9,9.9c0,5.5,4.4,9.9,9.9,9.9h19.8c5.5,0,9.9-4.4,9.9-9.9
		C268,673.3,263.6,668.9,258.1,668.9z"/>
	<path class="st8" d="M357.3,668.9h-59.5c-5.5,0-9.9,4.4-9.9,9.9c0,5.5,4.4,9.9,9.9,9.9h59.5c5.5,0,9.9-4.4,9.9-9.9
		C367.2,673.3,362.8,668.9,357.3,668.9z"/>
	<path class="st6" d="M416.8,668.9H397c-5.5,0-9.9,4.4-9.9,9.9c0,5.5,4.4,9.9,9.9,9.9h19.8c5.5,0,9.9-4.4,9.9-9.9
		C426.7,673.3,422.3,668.9,416.8,668.9z"/>
	<path class="st8" d="M79.6,649c5.5,0,9.9-4.4,9.9-9.9c0-5.5-4.4-9.9-9.9-9.9H38.2l0,0l1.5,5.4l3.9,14.4H79.6z"/>
	<path class="st6" d="M49.9,599.4L49.9,599.4c0-5.5-4.4-9.9-9.9-9.9H27.3l2.8,10.3l2.6,9.6l0,0H40C45.4,609.4,49.9,604.9,49.9,599.4
		z"/>
	<path class="st8" d="M79.6,569.7c5.5,0,9.9-4.4,9.9-9.9s-4.4-9.9-9.9-9.9H20.1c-1.2,0-2.3,0.3-3.4,0.7l5.2,19.1H79.6z"/>
	<path class="st8" d="M40,530c5.5,0,9.9-4.4,9.9-9.9l0,0c0-5.5-4.4-9.9-9.9-9.9H5.7l2.1,7.5l3.4,12.3l0,0H40z"/>
	<path class="st6" d="M555.6,510.2c-5.5,0-9.9,4.4-9.9,9.9l0,0c0,5.5,4.4,9.9,9.9,9.9h9l0,0l3.4-12.3l2.1-7.5H555.6z"/>
	<path class="st8" d="M496.1,549.9c-5.5,0-9.9,4.4-9.9,9.9s4.4,9.9,9.9,9.9h57.7l5.2-19.1c-1.1-0.4-2.2-0.7-3.4-0.7H496.1z"/>
	<path class="st8" d="M486.2,639.1c0,5.5,4.4,9.9,9.9,9.9h36.1l3.9-14.4l1.5-5.4l0,0h-41.5C490.6,629.2,486.2,633.6,486.2,639.1z"/>
	<path class="st8" d="M446.5,678.8L446.5,678.8c0,5.5,4.4,9.9,9.9,9.9h59.5c2.3,0,4.3-0.9,6-2.2l3.1-11.5c-1.5-3.6-5-6.1-9.1-6.1
		h-59.5C451,668.9,446.5,673.3,446.5,678.8z"/>
	<path class="st2" d="M436.6,391.2c0,9.2-4.1,24.7-10.6,36.7c1.3,1.1,2.6,2.3,3.7,3.7c12-6.5,27.6-10.6,36.7-10.6
		c3.1,0,6,0.5,8.8,1.3c3.3-6.6,4-14.1,2.1-21.1c-1.3-4.8-3.8-9.4-7.6-13.2c-0.6-0.6-1.1-1.1-1.7-1.6c-6.1-5.2-13.8-7.6-21.4-7.1
		c-3.9,0.3-7.7,1.3-11.2,3.1C436.2,385.2,436.6,388.1,436.6,391.2z"/>
	<path class="st2" d="M475.2,479.1c-2.8,0.9-5.8,1.3-8.8,1.3c-9.2,0-24.7-4.1-36.7-10.6c-1.1,1.3-2.3,2.6-3.7,3.7
		c6.5,12,10.6,27.6,10.6,36.7c0,3.1-0.5,6.1-1.3,8.8c3.6,1.8,7.5,2.8,11.5,3.1c8.2,0.5,16.6-2.3,22.9-8.6c1-1,2-2.2,2.8-3.3
		c4.3-5.8,6.3-12.9,5.8-19.8C478,486.5,477,482.7,475.2,479.1z"/>
	<path class="st2" d="M387.8,473.5c-1.3-1.1-2.6-2.3-3.7-3.7c-2.5,1.3-5.1,2.6-7.8,3.7c0.5,2.2,0.8,4.5,0.8,6.9
		c0,16.4-13.3,29.7-29.7,29.7c-9.2,0-24.7-4.1-36.7-10.6c-1.1,1.3-2.3,2.6-3.7,3.7c6.5,12,10.6,27.6,10.6,36.7
		c0,3.1-0.5,6.1-1.3,8.8c4.7,2.4,10,3.4,15.2,3.1c3.1-0.2,6.2-0.9,9.2-2c3.6-1.5,7.1-3.6,10-6.6c3.8-3.8,6.4-8.4,7.7-13.3
		c0.7-2.7,1.1-5.5,1-8.3c2.5,0.5,5.1,0.6,7.6,0.4c3.9-0.3,7.8-1.3,11.4-3.1c-0.9-2.8-1.3-5.7-1.3-8.8
		C377.1,501,381.3,485.5,387.8,473.5z"/>
	<path class="st3" d="M436.6,510.2c0-9.2-4.1-24.7-10.6-36.7c-5.2,4.3-11.8,7-19.1,7c-7.3,0-13.9-2.6-19.1-7
		c-6.5,12-10.6,27.6-10.6,36.7c0,3,0.5,6,1.3,8.8c3.7,12.2,15.1,21,28.4,21c13.3,0,24.6-8.8,28.4-20.9
		C436.2,516.2,436.6,513.3,436.6,510.2z"/>
	<path class="st3" d="M378.5,382.3c-0.9,2.8-1.4,5.8-1.4,8.9c0,9.2,4.1,24.7,10.6,36.7c5.2-4.3,11.8-7,19.1-7s13.9,2.6,19.1,7
		c6.5-12,10.6-27.6,10.6-36.7c0-3.1-0.5-6-1.3-8.8c-1.6-5.2-4.6-9.8-8.6-13.4c-5.3-4.7-12.2-7.6-19.8-7.6
		C393.5,361.4,382.3,370.2,378.5,382.3z"/>
	<path class="st3" d="M377.1,450.7c0-7.3,2.6-13.9,7-19.1c-9.5-5.2-21.3-8.8-30.3-10.1c6.5,9,7.3,20.8,2.4,30.6
		c-2.8-0.9-5.7-1.3-8.8-1.3c-9.2,0-24.7,4.1-36.7,10.6c4.3,5.2,7,11.8,7,19.1s-2.6,13.9-7,19.1c12,6.5,27.6,10.6,36.7,10.6
		c16.4,0,29.7-13.3,29.7-29.7c0-2.4-0.3-4.7-0.8-6.9c2.7-1.1,5.3-2.4,7.8-3.7C379.7,464.6,377.1,458,377.1,450.7z"/>
	<path class="st3" d="M436.6,450.7c0,7.3-2.6,13.9-7,19.1c12,6.5,27.6,10.6,36.7,10.6c3.1,0,6.1-0.5,8.8-1.3
		c1.8-0.6,3.6-1.3,5.2-2.2c5-2.7,9.1-6.7,11.8-11.6c1.1,0.7,2.1,1.5,3.1,2.3c6.5-12,10.6-27.6,10.6-36.7c0-3.1-0.5-6-1.3-8.8
		c-1.9-6.2-5.8-11.5-10.8-15.2c-2.6-1.9-5.4-3.4-8.5-4.3c-2.6-0.8-5.3-1.3-8.1-1.4c1.9,7,1.2,14.5-2.1,21.1
		c-2.8-0.9-5.7-1.3-8.8-1.3c-9.2,0-24.7,4.1-36.7,10.6C434,436.7,436.6,443.4,436.6,450.7z"/>
	<path class="st4" d="M406.9,420.9c-7.3,0-13.9,2.6-19.1,7c-1.3,1.1-2.6,2.3-3.7,3.7c-4.3,5.2-7,11.8-7,19.1c0,7.3,2.6,13.9,7,19.1
		c1.1,1.3,2.3,2.6,3.7,3.7c5.2,4.3,11.8,7,19.1,7c7.3,0,13.9-2.6,19.1-7c1.3-1.1,2.6-2.3,3.7-3.7c4.3-5.2,7-11.8,7-19.1
		c0-7.3-2.6-13.9-7-19.1c-1.1-1.3-2.3-2.6-3.7-3.7C420.8,423.6,414.1,420.9,406.9,420.9z M392.8,450.7c0-7.8,6.3-14.1,14.1-14.1
		c7.8,0,14.1,6.3,14.1,14.1s-6.3,14.1-14.1,14.1C399.1,464.8,392.8,458.5,392.8,450.7z"/>
	<circle class="st5" cx="406.9" cy="450.7" r="14.1"/>
	<path class="st2" d="M103.2,391.5c-2.2,3-3.7,6.2-4.6,9.6c-1.9,7-1.2,14.5,2.1,21.1c2.8-0.8,5.7-1.3,8.7-1.3
		c9.2,0,24.7,4.1,36.7,10.6c1.1-1.3,2.3-2.6,3.7-3.7c-6.5-12-10.6-27.6-10.6-36.7c0-3.1,0.5-6.1,1.4-8.9c-3.6-1.8-7.4-2.8-11.3-3
		c-2.5-0.2-4.9,0-7.4,0.4c-5.7,1.1-11.2,3.8-15.6,8.2C105.1,389,104.1,390.2,103.2,391.5z"/>
	<path class="st2" d="M139.1,510.2c0-9.2,4.1-24.7,10.6-36.7c-1.3-1.1-2.6-2.3-3.7-3.7c-12,6.5-27.6,10.6-36.7,10.6
		c-3.1,0-6.1-0.5-8.9-1.4c-1.8,3.6-2.8,7.4-3.1,11.3c-0.5,7.4,1.7,14.9,6.7,21c0.6,0.7,1.2,1.4,1.9,2.1c0.7,0.7,1.5,1.4,2.2,2
		c6.1,5,13.7,7.2,21.2,6.6c3.8-0.3,7.6-1.3,11-3.1C139.6,516.2,139.1,513.2,139.1,510.2z"/>
	<path class="st3" d="M198.6,510.2c0-9.2-4.1-24.7-10.6-36.7c-5.2,4.3-11.8,7-19.1,7s-13.9-2.6-19.1-7c-6.5,12-10.6,27.6-10.6,36.7
		c0,3,0.5,6,1.3,8.8c1.3,4.2,3.4,7.9,6.3,11.1c5.4,6.1,13.4,9.9,22.2,9.9c8.8,0,16.7-3.8,22.2-9.9c2.8-3.1,5-6.9,6.2-11
		C198.2,516.2,198.6,513.3,198.6,510.2z"/>
	<path class="st3" d="M168.9,420.9c7.3,0,13.9,2.6,19.1,7c6.5-12,10.6-27.6,10.6-36.7c0-3.1-0.5-6-1.3-8.8
		c-3.8-12.1-15.1-20.9-28.4-20.9c-7.6,0-14.6,2.9-19.8,7.6c-3.9,3.5-6.9,8.1-8.6,13.3c-0.9,2.8-1.4,5.8-1.4,8.9
		c0,9.2,4.1,24.7,10.6,36.7C154.9,423.6,161.6,420.9,168.9,420.9z"/>
	<path class="st3" d="M95.3,476.9c1.6,0.9,3.4,1.6,5.2,2.2c2.8,0.9,5.8,1.4,8.9,1.4c9.2,0,24.7-4.1,36.7-10.6
		c-4.3-5.2-7-11.8-7-19.1c0-7.3,2.6-13.9,7-19.1c-12-6.5-27.6-10.6-36.7-10.6c-3,0-6,0.5-8.7,1.3c-3.3-6.6-4-14.1-2.1-21.1
		c-0.2,0-0.4,0-0.6,0c-11.9,0.6-22,8.2-26.1,18.8c-0.3,0.7-0.5,1.3-0.7,2c-0.9,2.8-1.4,5.8-1.4,8.9c0,9.2,4.1,24.7,10.6,36.7
		c1-0.8,2-1.6,3.1-2.3C86.2,470.2,90.3,474.2,95.3,476.9z"/>
	<path class="st4" d="M139.1,450.7c0,7.3,2.6,13.9,7,19.1c1.1,1.3,2.3,2.6,3.7,3.7c5.2,4.3,11.8,7,19.1,7s13.9-2.6,19.1-7
		c1.3-1.1,2.6-2.3,3.7-3.7c4.3-5.2,7-11.8,7-19.1s-2.6-13.9-7-19.1c-1.1-1.3-2.3-2.6-3.7-3.7c-5.2-4.3-11.8-7-19.1-7
		s-13.9,2.6-19.1,7c-1.3,1.1-2.6,2.3-3.7,3.7C141.7,436.7,139.1,443.4,139.1,450.7z M154.8,450.7c0-7.8,6.3-14.1,14.1-14.1
		s14.1,6.3,14.1,14.1s-6.3,14.1-14.1,14.1S154.8,458.5,154.8,450.7z"/>
	<circle class="st5" cx="168.9" cy="450.7" r="14.1"/>
	<path class="st2" d="M219.6,452c2.8-0.8,5.7-1.3,8.7-1.3c9.2,0,24.7,4.1,36.7,10.6c1.1-1.3,2.3-2.6,3.7-3.7
		c-6.5-12-10.6-27.6-10.6-36.7c0-3.1,0.5-6.1,1.4-8.9c-1.4-0.7-2.8-1.3-4.3-1.7c-4.8-1.5-10-1.8-14.9-0.8c0.1-7.8-2.7-15.6-8.7-21.6
		c-9.3-9.3-23.2-11.1-34.3-5.6c0.9,2.8,1.3,5.7,1.3,8.8c0,9.2-4.1,24.7-10.6,36.7c1.3,1.1,2.6,2.3,3.7,3.7
		c9.5-5.2,21.3-8.8,30.3-10.1C215.6,430.5,214.8,442.3,219.6,452z"/>
	<path class="st2" d="M317.6,420.9c0,9.2-4.1,24.7-10.6,36.7c1.3,1.1,2.6,2.3,3.7,3.7c12-6.5,27.6-10.6,36.7-10.6
		c3.1,0,6,0.5,8.8,1.3c4.9-9.7,4.1-21.5-2.4-30.6c9,1.3,20.8,5,30.3,10.1c1.1-1.3,2.3-2.6,3.7-3.7c-6.5-12-10.6-27.6-10.6-36.7
		c0-3.1,0.5-6.1,1.4-8.9c-11.1-5.5-25-3.7-34.3,5.6c-6,6-8.9,13.9-8.7,21.7c-2.3-0.5-4.7-0.6-7.1-0.5c-4.2,0.2-8.3,1.2-12.1,3.1
		C317.2,414.9,317.6,417.9,317.6,420.9z"/>
	<path class="st2" d="M268.8,503.2c-1.3-1.1-2.6-2.3-3.7-3.7c-12,6.5-27.6,10.6-36.7,10.6c-16.4,0-29.7-13.3-29.7-29.7
		c0-2.4,0.3-4.7,0.8-6.9c-2.7-1.1-5.3-2.4-7.8-3.7c-1.1,1.3-2.3,2.6-3.7,3.7c6.5,12,10.6,27.6,10.6,36.7c0,3.1-0.5,6.1-1.3,8.8
		c3.5,1.8,7.2,2.8,11.1,3.1c2.7,0.2,5.3,0.1,8-0.4c-0.1,7.8,2.8,15.6,8.7,21.5c3,3,6.5,5.2,10.2,6.7c2.9,1.1,5.9,1.8,9,2
		c5.2,0.3,10.5-0.7,15.2-3.1c-0.9-2.8-1.3-5.7-1.3-8.8C258.1,530.8,262.3,515.2,268.8,503.2z"/>
	<path class="st3" d="M307,503.2c-5.2,4.3-11.8,7-19.1,7s-13.9-2.6-19.1-7c-6.5,12-10.6,27.6-10.6,36.7c0,3,0.5,6,1.3,8.8
		c1.7,5.4,4.8,10.1,9,13.7c5.2,4.5,12,7.3,19.5,7.3s14.2-2.7,19.5-7.3c4.1-3.6,7.3-8.3,9-13.6c0.9-2.8,1.3-5.8,1.3-8.8
		C317.6,530.8,313.5,515.2,307,503.2z"/>
	<path class="st3" d="M316.3,412.1c-3.8-12.1-15.1-20.9-28.4-20.9c-0.1,0-0.2,0-0.3,0c-4.1,0-7.9,0.9-11.4,2.4
		c-7.9,3.4-14,10.1-16.6,18.4c-0.9,2.8-1.4,5.8-1.4,8.9c0,9.2,4.1,24.7,10.6,36.7c5.2-4.3,11.8-7,19.1-7s13.9,2.6,19.1,7
		c6.5-12,10.6-27.6,10.6-36.7C317.6,417.9,317.2,414.9,316.3,412.1z"/>
	<path class="st3" d="M258.1,480.4c0-7.3,2.6-13.9,7-19.1c-12-6.5-27.6-10.6-36.7-10.6c-3,0-6,0.5-8.7,1.3
		c-4.9-9.7-4.1-21.5,2.3-30.5c-9,1.3-20.8,5-30.3,10.1c4.3,5.2,7,11.8,7,19.1c0,7.3-2.6,13.9-7,19.1c2.5,1.3,5.1,2.6,7.8,3.7
		c-0.5,2.2-0.8,4.5-0.8,6.9c0,16.4,13.3,29.7,29.7,29.7c9.2,0,24.7-4.1,36.7-10.6C260.7,494.4,258.1,487.7,258.1,480.4z"/>
	<path class="st4" d="M317.6,480.4c0-7.3-2.6-13.9-7-19.1c-1.1-1.3-2.3-2.6-3.7-3.7c-5.2-4.3-11.8-7-19.1-7s-13.9,2.6-19.1,7
		c-1.3,1.1-2.6,2.3-3.7,3.7c-4.3,5.2-7,11.8-7,19.1c0,7.3,2.6,13.9,7,19.1c1.1,1.3,2.3,2.6,3.7,3.7c5.2,4.3,11.8,7,19.1,7
		s13.9-2.6,19.1-7c1.3-1.1,2.6-2.3,3.7-3.7C315,494.4,317.6,487.7,317.6,480.4z M273.8,480.4c0-7.8,6.3-14.1,14.1-14.1
		s14.1,6.3,14.1,14.1c0,7.8-6.3,14.1-14.1,14.1S273.8,488.2,273.8,480.4z"/>
	<circle class="st5" cx="287.9" cy="480.4" r="14.1"/>
</g>
</svg>
