<?xml version="1.0" encoding="utf-8"?>
<!-- Generator: Adobe Illustrator 19.0.0, SVG Export Plug-In . SVG Version: 6.00 Build 0)  -->
<svg version="1.1" id="Capa_1" xmlns="http://www.w3.org/2000/svg" xmlns:xlink="http://www.w3.org/1999/xlink" x="0px" y="0px"
	 viewBox="112.9 123.9 369.5 594.7" style="enable-background:new 112.9 123.9 369.5 594.7;" xml:space="preserve">
<style type="text/css">
	.st0{fill:#D2504B;}
	.st1{fill:#BE3C3C;}
	.st2{fill:#E88470;}
	.st3{fill:#73AA82;}
	.st4{fill:#BE6E4B;}
	.st5{fill:#FFE6D2;}
	.st6{fill:#D2875A;}
	.st7{fill:#FFD7B4;}
</style>
<g>
	<path class="st0" d="M246.3,246.5c0,0.6,0,1.2-0.1,1.8c3.2-1.1,6.7-1.8,10.3-1.8c17,0,30.8,13.8,30.8,30.8c0,3.6-0.6,7.1-1.8,10.3
		c0.6,0,1.2-0.1,1.8-0.1c3.6,0,7.1,0.6,10.3,1.8c3.2-1.1,6.7-1.8,10.3-1.8c0.6,0,1.2,0,1.8,0.1c-1.1-3.2-1.8-6.7-1.8-10.3
		c0-17,13.8-30.8,30.8-30.8c3.6,0,7.1,0.6,10.3,1.8c0-0.6-0.1-1.2-0.1-1.8c0-13,8.1-24.1,19.4-28.6c-3.6-13.1-15.5-22.7-29.7-22.7
		c-4.7,0-9.2,1.1-13.3,3c1.9-4,3-8.5,3-13.3c0-17-13.8-30.8-30.8-30.8s-30.8,13.8-30.8,30.8c0,4.7,1.1,9.2,3,13.3
		c-4-1.9-8.5-3-13.3-3c-14.2,0-26.2,9.6-29.7,22.7C238.3,222.4,246.3,233.5,246.3,246.5z M297.6,195.1c17,0,30.8,13.8,30.8,30.8
		s-13.8,30.8-30.8,30.8s-30.8-13.8-30.8-30.8S280.6,195.1,297.6,195.1z"/>
	<circle class="st1" cx="297.6" cy="225.9" r="30.8"/>
	<path class="st2" d="M151.5,338.8c-4.9-5.4-7.8-12.6-7.8-20.5c0-17,13.8-30.8,30.8-30.8c4.7,0,9.2,1.1,13.3,3c-1.9-4-3-8.5-3-13.3
		c0-17,13.8-30.8,30.8-30.8s30.8,13.8,30.8,30.8c0,4.7-1.1,9.2-3,13.3c4-1.9,8.5-3,13.3-3c10.7,0,20.1,5.5,25.7,13.8
		c-3.2,4.9-5.1,10.7-5.1,17s1.9,12.1,5.1,17c-0.8,1.2-1.7,2.4-2.7,3.5h36.2c-4.9-5.4-7.8-12.6-7.8-20.5c0-17,13.8-30.8,30.8-30.8
		c4.7,0,9.2,1.1,13.3,3c-1.9-4-3-8.5-3-13.3c0-17,13.8-30.8,30.8-30.8c17,0,30.8,13.8,30.8,30.8c0,4.7-1.1,9.2-3,13.3
		c4-1.9,8.5-3,13.3-3c17,0,30.8,13.8,30.8,30.8c0,7.9-3,15.1-7.8,20.5h25.9c1.5,0,2.8,0.3,4.1,0.8c5.3-5.5,8.6-13.1,8.6-21.4
		c0-17-13.8-30.8-30.8-30.8c-0.6,0-1.2,0-1.8,0.1c1.1-3.2,1.8-6.7,1.8-10.3c0-17-13.8-30.8-30.8-30.8c-3.6,0-7.1,0.6-10.3,1.8
		c0-0.6,0.1-1.2,0.1-1.8c0-9.2-4-17.4-10.4-23c-1.3-15.8-14.5-28.3-30.7-28.3c-0.6,0-1.2,0-1.8,0.1c1.1-3.2,1.8-6.7,1.8-10.3
		c0-17-13.8-30.8-30.8-30.8c-3.6,0-7.1,0.6-10.3,1.8c0-0.6,0.1-1.2,0.1-1.8c0-17-13.8-30.8-30.8-30.8s-30.8,13.8-30.8,30.8
		c0,0.6,0,1.2,0.1,1.8c-3.2-1.1-6.7-1.8-10.3-1.8c-17,0-30.8,13.8-30.8,30.8c0,3.6,0.6,7.1,1.8,10.3c-0.6,0-1.2-0.1-1.8-0.1
		c-16.2,0-29.4,12.4-30.7,28.3c-6.4,5.6-10.4,13.9-10.4,23c0,0.6,0,1.2,0.1,1.8c-3.2-1.1-6.7-1.8-10.3-1.8
		c-17,0-30.8,13.8-30.8,30.8c0,3.6,0.6,7.1,1.8,10.3c-0.6,0-1.2-0.1-1.8-0.1c-17,0-30.8,13.8-30.8,30.8c0,8.3,3.3,15.8,8.6,21.4
		c1.2-0.5,2.6-0.8,4.1-0.8L151.5,338.8L151.5,338.8z M256.6,195.1c4.7,0,9.2,1.1,13.3,3c-1.9-4-3-8.5-3-13.3
		c0-17,13.8-30.8,30.8-30.8s30.8,13.8,30.8,30.8c0,4.7-1.1,9.2-3,13.3c4-1.9,8.5-3,13.3-3c14.2,0,26.2,9.6,29.7,22.7
		c-11.4,4.5-19.4,15.6-19.4,28.6c0,0.6,0,1.2,0.1,1.8c-3.2-1.1-6.7-1.8-10.3-1.8c-17,0-30.8,13.8-30.8,30.8c0,3.6,0.6,7.1,1.8,10.3
		c-0.6,0-1.2-0.1-1.8-0.1c-3.6,0-7.1,0.6-10.3,1.8c-3.2-1.1-6.7-1.8-10.3-1.8c-0.6,0-1.2,0-1.8,0.1c1.1-3.2,1.8-6.7,1.8-10.3
		c0-17-13.8-30.8-30.8-30.8c-3.6,0-7.1,0.6-10.3,1.8c0-0.6,0.1-1.2,0.1-1.8c0-13-8.1-24.1-19.4-28.6
		C230.4,204.8,242.4,195.1,256.6,195.1z"/>
	<path class="st0" d="M277.1,318.3c0-6.3,1.9-12.1,5.1-17c-5.5-8.3-14.9-13.8-25.7-13.8c-4.7,0-9.2,1.1-13.3,3c1.9-4,3-8.5,3-13.3
		c0-17-13.8-30.8-30.8-30.8s-30.8,13.8-30.8,30.8c0,4.7,1.1,9.2,3,13.3c-4-1.9-8.5-3-13.3-3c-17,0-30.8,13.8-30.8,30.8
		c0,7.9,3,15.1,7.8,20.5h41.1c-4.9-5.4-7.8-12.6-7.8-20.5c0-17,13.8-30.8,30.8-30.8s30.8,13.8,30.8,30.8c0,7.9-3,15.1-7.8,20.5h41.1
		c1-1.1,1.9-2.3,2.7-3.5C279,330.5,277.1,324.6,277.1,318.3z"/>
	<path class="st1" d="M246.3,318.3c0-17-13.8-30.8-30.8-30.8s-30.8,13.8-30.8,30.8c0,7.9,3,15.1,7.8,20.5h43.5h2.4
		C243.4,333.4,246.3,326.2,246.3,318.3z"/>
	<path class="st0" d="M420.8,287.5c-4.7,0-9.2,1.1-13.3,3c1.9-4,3-8.5,3-13.3c0-17-13.8-30.8-30.8-30.8c-17,0-30.8,13.8-30.8,30.8
		c0,4.7,1.1,9.2,3,13.3c-4-1.9-8.5-3-13.3-3c-17,0-30.8,13.8-30.8,30.8c0,7.9,3,15.1,7.8,20.5h41.1c-4.9-5.4-7.8-12.6-7.8-20.5
		c0-17,13.8-30.8,30.8-30.8c17,0,30.8,13.8,30.8,30.8c0,7.9-3,15.1-7.8,20.5h41.1c4.9-5.4,7.8-12.6,7.8-20.5
		C451.6,301.3,437.8,287.5,420.8,287.5z"/>
	<path class="st1" d="M410.5,318.3c0-17-13.8-30.8-30.8-30.8c-17,0-30.8,13.8-30.8,30.8c0,7.9,3,15.1,7.8,20.5h45.9
		C407.6,333.4,410.5,326.2,410.5,318.3z"/>
	<path class="st3" d="M287.4,708.3c0,5.7,4.6,10.3,10.3,10.3s10.3-4.6,10.3-10.3V657h-20.5V708.3z"/>
	<path class="st4" d="M277.1,533.8v10.3l20.5-10.3C291.5,533.8,285.3,533.8,277.1,533.8z"/>
	<polygon class="st4" points="277.1,585.2 318.2,564.6 318.2,544.1 277.1,564.6 	"/>
	<polygon class="st4" points="277.1,626.2 318.2,605.7 318.2,585.2 277.1,605.7 	"/>
	<path class="st4" d="M277.1,646.7c0,5.7,4.6,10.3,10.3,10.3h20.5c5.7,0,10.3-4.6,10.3-10.3v-20.5L277.1,646.7z"/>
	<path class="st5" d="M473.8,339.7c-1.2-0.5-2.6-0.8-4.1-0.8h-25.9h-41.1h-45.9h-41.1h-36.2h-41.1h-2.4l61.6,195
		c6.2,0,12.3,0,20.5,0l159.2-177.9C482.3,350.4,479.8,342.3,473.8,339.7z"/>
	<polygon class="st6" points="277.1,646.7 318.2,626.2 318.2,605.7 277.1,626.2 	"/>
	<polygon class="st6" points="277.1,605.7 318.2,585.2 318.2,564.6 277.1,585.2 	"/>
	<path class="st6" d="M277.1,544.1v20.5l41.1-20.5v-10.3c-8.2,0-14.4,0-20.5,0L277.1,544.1z"/>
	<path class="st7" d="M236.1,338.8h-43.5h-41.1h-25.9c-1.5,0-2.8,0.3-4.1,0.8c-6.1,2.6-8.5,10.8-3.6,16.3l159.2,177.9
		c8.2,0,14.4,0,20.5,0L236.1,338.8z"/>
</g>
</svg>
