<?xml version="1.0" encoding="utf-8"?>
<!-- Generator: Adobe Illustrator 19.0.0, SVG Export Plug-In . SVG Version: 6.00 Build 0)  -->
<svg version="1.1" id="Capa_1" xmlns="http://www.w3.org/2000/svg" xmlns:xlink="http://www.w3.org/1999/xlink" x="0px" y="0px"
	 viewBox="0 164.3 595.3 513.2" style="enable-background:new 0 164.3 595.3 513.2;" xml:space="preserve">
<style type="text/css">
	.st0{fill:#82C888;}
	.st1{fill:#73AA82;}
	.st2{fill:#FFD7A5;}
	.st3{fill:#FFC38C;}
	.st4{fill:#FFE6CD;}
	.st5{fill:#FFC882;}
	.st6{fill:#DCA069;}
</style>
<g>
	<path class="st0" d="M519,479.9c-0.1-0.1-0.2-0.2-0.3-0.2c-2.4,1-4.8,1.9-7.3,2.7c13.8,27.3,9.8,61.3-11.9,84.8l49.4,49.4
		c4,4,4,10.5,0,14.5c-2,2-4.6,3-7.3,3c-2.6,0-5.2-1-7.3-3l-50.8-50.8c-22.3,13.7-50.1,14.7-73.2,3.1c-2.3,7.4-5.7,14.3-10,20.5
		c57.4,55.9,130.8,80.9,193.1,71.9C602.7,612.5,576.8,537.7,519,479.9z"/>
	<path class="st1" d="M483.5,580.3l50.8,50.8c2,2,4.6,3,7.3,3c2.6,0,5.2-1,7.3-3c4-4,4-10.5,0-14.5l-49.4-49.4
		c-0.7,0.7-1.4,1.5-2.1,2.2C493.1,573.7,488.5,577.3,483.5,580.3z"/>
	<path class="st2" d="M406.7,464.2l40.6,40.6c4,4,4,10.5,0,14.5c-2,2-4.6,3-7.3,3s-5.2-1-7.3-3l-40.6-40.6
		c13.3,28.4,21.6,61.8,21.6,82.3c0,7.8-1.2,15.3-3.4,22.4c23.1,11.6,50.9,10.6,73.2-3.1c4.9-3,9.6-6.7,13.9-10.9
		c0.7-0.7,1.4-1.4,2.1-2.2c21.7-23.5,25.7-57.5,11.9-84.8c-7.1,2.2-14.6,3.4-22.4,3.4C468.5,485.8,435.1,477.5,406.7,464.2z"/>
	<path class="st2" d="M284.9,478.7l-40.6,40.6c-2,2-4.6,3-7.3,3c-2.6,0-5.2-1-7.3-3c-4-4-4-10.5,0-14.5l40.6-40.6
		c-28.4,13.3-61.8,21.6-82.3,21.6c-7.9,0-15.5-1.2-22.6-3.5c-14.1,28.2-9.5,63.4,14.1,86.9c23.6,23.6,58.9,28.2,87.1,14
		c-2.2-7-3.3-14.5-3.3-22.2C263.3,540.5,271.5,507.2,284.9,478.7z"/>
	<path class="st0" d="M113.6,420.8h-52c-5.7,0-10.3-4.6-10.3-10.3c0-5.7,4.6-10.3,10.3-10.3h52c4-29.3,24.8-53.2,52.4-61.7
		c-0.3-0.6-0.6-1.3-0.9-1.9l-67.8-46.6c-4.7-3.2-5.9-9.6-2.6-14.3c3.2-4.7,9.6-5.9,14.3-2.6L158,307c-0.5-16.7,4.6-33.4,15.1-47.4
		c-42.2-19-85.8-23.2-120.9-12.8c2.8,35.7,21.6,74,53.3,106.1c-45,8.4-82.8,29.5-105.5,57.6c29.1,36,82.8,60.5,144.8,61.5
		C128.1,460.3,116.4,442,113.6,420.8z"/>
	<path class="st1" d="M51.3,410.5c0,5.7,4.6,10.3,10.3,10.3h52c-0.5-3.4-0.7-6.8-0.7-10.3c0-3.5,0.3-6.9,0.7-10.3h-52
		C55.9,400.3,51.3,404.9,51.3,410.5z"/>
	<path class="st1" d="M108.8,273.2c-4.7-3.2-11.1-2-14.3,2.6c-3.2,4.7-2,11.1,2.6,14.3l67.8,46.6c-4.4-9.4-6.7-19.5-7-29.7
		L108.8,273.2z"/>
	<path class="st0" d="M463.8,232.5l20.3-25.9c3.5-4.5,9.9-5.3,14.4-1.8c4.5,3.5,5.3,9.9,1.8,14.4l-17,21.7c5,3,9.6,6.7,13.9,11
		c7.3,7.3,12.8,15.7,16.5,24.8c18.6-38.7,24.1-78.9,16.4-112.3c-41.3,0.7-87.5,22.5-124.6,61.4c2,3.8,3.6,7.8,4.9,12
		C427.1,229.4,446.1,227.7,463.8,232.5z"/>
	<path class="st1" d="M500.3,219.2c3.5-4.5,2.7-10.9-1.8-14.4c-4.5-3.5-10.9-2.7-14.4,1.8l-20.3,25.9c6.8,1.8,13.3,4.6,19.5,8.4
		L500.3,219.2z"/>
	<path class="st2" d="M158,307c0.3,10.2,2.6,20.3,7,29.7c0.3,0.6,0.6,1.3,0.9,1.9c7-2.1,14.4-3.3,22.1-3.3
		c20.5,0,53.8,8.2,82.3,21.6l-40.6-40.6c-4-4-4-10.5,0-14.5c4-4,10.5-4,14.5,0l40.6,40.6c-13.3-28.4-21.6-61.8-21.6-82.3
		c0-7.9,1.2-15.4,3.4-22.5c-28.2-14-63.3-9.3-86.7,14.1c-2.5,2.5-4.8,5.2-6.9,7.9C162.6,273.6,157.6,290.4,158,307z"/>
	<path class="st2" d="M483.3,240.9c-6.1-3.8-12.7-6.6-19.5-8.4c-17.7-4.8-36.8-3.1-53.4,5.3c2.2,7.1,3.4,14.5,3.4,22.3
		c0,20.5-8.2,53.8-21.6,82.3l40.6-40.6c4-4,10.5-4,14.5,0s4,10.5,0,14.5l-40.6,40.6c28.4-13.3,61.8-21.6,82.3-21.6
		c7.8,0,15.3,1.2,22.3,3.4c9.7-19.4,10.5-42.1,2.4-62.1c-3.7-9-9.2-17.4-16.5-24.8C492.9,247.6,488.2,243.9,483.3,240.9z"/>
	<path class="st3" d="M293.1,451.6c-6.9,4.6-14.6,8.8-22.7,12.6l-40.6,40.6c-4,4-4,10.5,0,14.5c2,2,4.6,3,7.3,3c2.6,0,5.2-1,7.3-3
		l40.6-40.6c3.8-8.1,8-15.8,12.6-22.7C295.9,454.6,294.5,453.2,293.1,451.6z"/>
	<path class="st3" d="M384,369.5c6.9-4.6,14.6-8.8,22.7-12.6l40.6-40.6c4-4,4-10.5,0-14.5s-10.5-4-14.5,0l-40.6,40.6
		c-3.8,8.1-8,15.8-12.6,22.7C381.1,366.5,382.6,367.9,384,369.5z"/>
	<path class="st3" d="M440.1,522.4c2.6,0,5.2-1,7.3-3c4-4,4-10.5,0-14.5l-40.6-40.6c-8.1-3.8-15.8-8-22.7-12.6
		c-1.4,1.5-2.8,3-4.4,4.4c4.6,6.9,8.8,14.6,12.6,22.7l40.6,40.6C434.8,521.4,437.5,522.4,440.1,522.4z"/>
	<path class="st3" d="M297.4,365.1c-4.6-6.9-8.8-14.6-12.6-22.7l-40.6-40.6c-4-4-10.5-4-14.5,0c-4,4-4,10.5,0,14.5l40.6,40.6
		c8.1,3.8,15.8,8,22.7,12.6C294.5,367.9,295.9,366.5,297.4,365.1z"/>
	<path class="st4" d="M413.8,561c0-20.5-8.2-53.8-21.6-82.3c-3.8-8.1-8-15.8-12.6-22.7c-8.5,7.7-19.1,13-30.8,14.9v83.2
		c0,5.7-4.6,10.3-10.3,10.3c-5.7,0-10.3-4.6-10.3-10.3v-83.2c-11.7-2-22.4-7.3-30.8-14.9c-4.6,6.9-8.8,14.6-12.6,22.7
		c-13.3,28.4-21.6,61.8-21.6,82.3c0,7.7,1.2,15.2,3.3,22.2c9.5,30.7,38.1,53,71.9,53c25.6,0,48.2-12.8,61.8-32.4
		c4.3-6.2,7.7-13.1,10-20.5C412.6,576.3,413.8,568.8,413.8,561z"/>
	<path class="st4" d="M284.9,342.4c3.8,8.1,8,15.8,12.6,22.7c8.5-7.7,19.1-13,30.8-14.9v-83.2c0-5.7,4.6-10.3,10.3-10.3
		c5.7,0,10.3,4.6,10.3,10.3v83.2c11.7,2,22.4,7.3,30.8,14.9c4.6-6.9,8.8-14.6,12.6-22.7c13.3-28.4,21.6-61.8,21.6-82.3
		c0-7.8-1.2-15.3-3.4-22.3c-1.3-4.2-3-8.2-4.9-12c-12.5-24.3-37.8-40.9-66.9-40.9c-33.7,0-62.2,22.2-71.8,52.7
		c-2.2,7.1-3.4,14.7-3.4,22.5C263.3,280.6,271.5,313.9,284.9,342.4z"/>
	<path class="st4" d="M270.4,464.2c8.1-3.8,15.8-8,22.7-12.6c-7.7-8.5-13-19.1-14.9-30.8h-83.2c-5.7,0-10.3-4.6-10.3-10.3
		c0-5.7,4.6-10.3,10.3-10.3h83.2c2-11.7,7.3-22.4,14.9-30.8c-6.9-4.6-14.6-8.8-22.7-12.6c-28.4-13.3-61.8-21.6-82.3-21.6
		c-7.7,0-15.1,1.2-22.1,3.3c-27.6,8.5-48.4,32.4-52.4,61.7c-0.5,3.4-0.7,6.8-0.7,10.3c0,3.5,0.3,6.9,0.7,10.3
		c2.9,21.1,14.6,39.5,31.2,51.2c6.3,4.4,13.2,7.9,20.7,10.3c7.1,2.2,14.7,3.5,22.6,3.5C208.6,485.8,241.9,477.5,270.4,464.2z"/>
	<path class="st4" d="M406.7,356.9c-8.1,3.8-15.8,8-22.7,12.6c7.7,8.5,13,19.1,14.9,30.8h83.2c5.7,0,10.3,4.6,10.3,10.3
		c0,5.7-4.6,10.3-10.3,10.3h-83.2c-2,11.7-7.3,22.4-14.9,30.8c6.9,4.6,14.6,8.8,22.7,12.6c28.4,13.3,61.8,21.6,82.3,21.6
		c7.8,0,15.3-1.2,22.4-3.4c2.5-0.8,4.9-1.7,7.3-2.7c26.8-11.5,45.5-38.1,45.5-69.1c0-33.8-22.3-62.4-52.9-71.9
		c-7.1-2.2-14.5-3.4-22.3-3.4C468.5,335.3,435.1,343.5,406.7,356.9z"/>
	<path class="st2" d="M277.3,410.5c0-3.5,0.3-6.9,0.9-10.3h-83.2c-5.7,0-10.3,4.6-10.3,10.3c0,5.7,4.6,10.3,10.3,10.3h83.2
		C277.6,417.5,277.3,414,277.3,410.5z"/>
	<path class="st2" d="M399.8,410.5c0,3.5-0.3,6.9-0.9,10.3h83.2c5.7,0,10.3-4.6,10.3-10.3c0-5.7-4.6-10.3-10.3-10.3h-83.2
		C399.5,403.6,399.8,407,399.8,410.5z"/>
	<path class="st2" d="M338.5,471.8c-3.5,0-6.9-0.3-10.3-0.9v83.2c0,5.7,4.6,10.3,10.3,10.3c5.7,0,10.3-4.6,10.3-10.3v-83.2
		C345.5,471.5,342,471.8,338.5,471.8z"/>
	<path class="st2" d="M338.5,349.3c3.5,0,6.9,0.3,10.3,0.9v-83.2c0-5.7-4.6-10.3-10.3-10.3c-5.7,0-10.3,4.6-10.3,10.3v83.2
		C331.6,349.6,335,349.3,338.5,349.3z"/>
	<path class="st5" d="M384,451.6c7.7-8.5,13-19.1,14.9-30.8c0.6-3.3,0.9-6.8,0.9-10.3c0-3.5-0.3-6.9-0.9-10.3
		c-2-11.7-7.3-22.4-14.9-30.8c-1.4-1.5-2.8-3-4.4-4.4c-8.5-7.7-19.1-13-30.8-14.9c-3.3-0.6-6.8-0.9-10.3-0.9s-6.9,0.3-10.3,0.9
		c-11.7,2-22.4,7.3-30.8,14.9c-1.5,1.4-3,2.8-4.4,4.4c-7.7,8.5-13,19.1-14.9,30.8c-0.6,3.3-0.9,6.8-0.9,10.3s0.3,6.9,0.9,10.3
		c2,11.7,7.3,22.4,14.9,30.8c1.4,1.5,2.8,3,4.4,4.4c8.5,7.7,19.1,13,30.8,14.9c3.3,0.6,6.8,0.9,10.3,0.9s6.9-0.3,10.3-0.9
		c11.7-2,22.4-7.3,30.8-14.9C381.1,454.6,382.6,453.2,384,451.6z M338.5,441c-16.8,0-30.5-13.7-30.5-30.5
		c0-16.8,13.7-30.5,30.5-30.5c16.8,0,30.5,13.7,30.5,30.5C369,427.4,355.4,441,338.5,441z"/>
	<circle class="st6" cx="338.5" cy="410.5" r="30.5"/>
</g>
</svg>
