<?xml version="1.0" encoding="utf-8"?>
<!-- Generator: Adobe Illustrator 19.0.0, SVG Export Plug-In . SVG Version: 6.00 Build 0)  -->
<svg version="1.1" id="Layer_1" xmlns="http://www.w3.org/2000/svg" xmlns:xlink="http://www.w3.org/1999/xlink" x="0px" y="0px"
	 viewBox="0 123.3 595.3 595.3" style="enable-background:new 0 123.3 595.3 595.3;" xml:space="preserve">
<style type="text/css">
	.st0{fill:#F8EBC8;}
	.st1{fill:#FF5064;}
	.st2{fill:#FFFAEB;}
	.st3{fill:#FF7D91;}
	.st4{fill:#FFF5DC;}
	.st5{fill:#FF6478;}
</style>
<path class="st0" d="M545.7,586.6L508.9,537c-0.2-0.3-0.4-0.5-0.6-0.8c-18.6-20.5-88.8,1.2-208.8,64.7c-37,19.6-28.3,39.1-27.2,41.2
	c0.2,0.4,0.5,0.8,0.7,1.2c6.7,9.7,24.7,38.7,27,57c0.7,5.6,3.9,10.5,8.9,13.6c5.2,3.2,12.9,4.5,21.8,4.5c27.9,0,68.1-12.6,82.6-17.5
	c3.7-1.3,6.4-4.6,6.9-8.5c0-0.2,3.1-21.3,13.5-21l8.7,0.3c38.3,1.3,63.6,2,66-29.5c0.5-6.1,17.2-25.6,35.7-41.9
	C548.2,596.9,548.8,590.9,545.7,586.6z"/>
<path class="st1" d="M305.4,631.1c-4.5,30.7,23.7,50.8,36.5,49.1c32.3-4.3,38.5-12,66.7-26.5c28.2-14.5,63.3,5.1,72.7-24
	c9.4-29.1,37.6-59-3.4-72.7C436.9,543.3,309.1,606,305.4,631.1z"/>
<path class="st2" d="M242,642.2c-0.6-49.4-95.1-135-132-153.1c-6.7-3.3-16.4-7-24.3-1c-18.9,16.9-51.1,47.2-54.6,59.4
	c-3.1,10.9,5.5,25.1,17.9,43.9c2,3.1,4.7,7,5.9,9.2c-0.1,0.7-0.2,1.5-0.3,2.4c-1.8,12.9-4.8,34.4,8.3,43.1
	c6.5,4.4,25.6,13,51.8,24.8c10.4,4.7,20.1,9,25.7,11.6c1.7,1.6,4.3,8.7,5.6,12.6c2.7,7.5,4.8,13.4,9.7,16.7c1.8,1.2,4,2.7,18.6,2.7
	c11,0,29-0.9,59.2-3.4c5.4-0.5,9.5-5,9.4-10.4L242,642.2z"/>
<path class="st3" d="M121.2,510.4c-31.7-3.8-60.3,37.2-45.8,62c14.5,24.8,7.4,26.1,21,47.1c23.5,36.4,60.8,8.5,68.4,29.9
	c9,25.2,37.6,33.4,49.6,18.8c12-14.5,5.6-38.1,0-47.9C197.3,590,152.6,514.2,121.2,510.4z"/>
<path class="st2" d="M147.8,226.5C147.8,226.5,147.8,226.5,147.8,226.5l-3.9-1.7c-16.6-7.3-44.4-19.6-58-1.4c-4.5,6-9.2,7.2-16.2,9
	c-3.5,0.9-7.5,1.9-11.6,3.7c-9.4,4-14.4,15.8-20.2,29.4c-2.7,6.3-7.2,16.9-9.4,18.6c-19.7,8.4-19.9,42.7-11.8,71.1
	c1.5,5.2-2.9,21.1-7.9,32.7c-1.3,3-1.1,6.5,0.6,9.3l24,40.8c1.9,3.2,5.3,5.1,8.8,5.1c0.7,0,1.4-0.1,2.1-0.2l46.5-9.8
	c25.3-7.7,73.6-118.1,76.1-163.6C168.4,241.4,157.4,230.6,147.8,226.5z"/>
<path class="st3" d="M139.1,261.9c-6.6-10.9-41.1-19.7-57.3-0.9c-16.3,18.8-9.1,56.2-25.7,74.9c-21,23.5-22.2,93.7,35.9,74
	C150.3,390.2,151.1,281.5,139.1,261.9z"/>
<path class="st4" d="M497.5,501.4c-5.9,0-9.9-2.2-12.4-4.2c-9.1-7.3-9.8-21.1-10.8-40.2c-1.1-20.3-2.4-45.6-13.5-71.3
	c-25.4-58.6-15.9-101.3-3.4-115.7c5.4-6.3,30.5-21,51.7-20.2c11.4,0.5,20.7,5.2,26.9,13.7c4.6,6.2,5.9,11.8,7.2,16.7
	c1.6,6.3,2.9,11.8,12.9,20.8c6.6,6,6.5,14.2,6.5,21.4c0,8.7-0.1,18.6,8.7,30.8c9.6,13.2,19.6,52.8,14.8,65.8
	c-1.1,2.9-2.9,5.3-5.3,6.7c-2.7,6.2-5.8,27.9-5.8,41.9c0,20.6-31.4,27.1-69.3,32.9l-4.2,0.7l0,0
	C500.2,501.3,498.8,501.4,497.5,501.4z M500,490.9L500,490.9L500,490.9z M497.3,480.9L497.3,480.9L497.3,480.9z M572.5,407.2
	L572.5,407.2L572.5,407.2z M572.5,407.2C572.5,407.2,572.5,407.2,572.5,407.2C572.5,407.2,572.5,407.2,572.5,407.2z"/>
<path class="st5" d="M492.5,468.9c10.3,11.9,73.4-6.8,62.2-45.3c-11.1-38.5-18.6-40.2-17.8-60.7c1.7-41.1-10.3-79.6-40.2-78.7
	s-29.1,36.8-24,64.2C477.9,375.6,470.2,443.2,492.5,468.9z"/>
<path class="st0" d="M482.4,198.4c-8.1-8.8-10.7-18.3-13.2-27.6c-3.1-11.5-6.7-24.5-21.2-31.2c-43.9-20.3-64.7-8.4-74.7-2.6
	c-18.6-12.1-40.6-16.5-59.9-11.9c-17.5,4.3-28.6,4-44,3.6c-4.9-0.1-10.1-0.3-15.9-0.3c-3.7,0-7.2,1.6-9.8,4.5
	c-7.1,7.9-6.5,24.2-5.6,33.2c2.3,21.7,72,60.9,108.8,77.1c24.1,10.6,53.7,20.9,77.8,20.9c11.4,0,21.6-2.3,29.3-8
	c0.5-0.3,0.9-0.7,1.3-1.1C495.9,213,486.4,202.8,482.4,198.4z"/>
<path class="st1" d="M440.5,243.9c17.7-1.6,20.5-48.8,1.9-61c-18.6-12.2-30.8-32.1-56.5-19.3c-25.7,12.8-22.5,1.3-48.8-8.3
	c-26.3-9.6-69.9-1.9-70.6,13.5S398.2,247.7,440.5,243.9z"/>
<path class="st0" d="M198.9,356.4c-3.4-26.3-14.6-47.6-31.5-60c-13.1-9.6-28.8-13.3-44.3-10.6c-17.8,3.2-30.9,11-39,23.3
	c-12,18.2-9.2,40.9-6.4,52.8c2.7,11.6,1.5,22.9,0.4,33.8l-0.6,6.1c-1.3,14.5,0.2,19.1,5.4,34.4l1.1,3.4c3.9,11.8,2.3,14.2-1.2,19.3
	l-1.2,1.7c-9,13.5,4.7,43.9,10.9,50.2c1.9,1.9,4.2,4.2,16.1,4.2c10.6,0,28.9-1.8,61.3-7.3c1.4-0.2,2.7-0.7,3.8-1.5
	C210,483,207.3,420.5,198.9,356.4z"/>
<path class="st1" d="M151.1,321.7c-19.3-14.5-58.2,3.4-43.6,30.8c14.5,27.4,14.5,43.6,10.3,64.2c-4.3,20.5-16.3,53.9,23.1,62.5
	c39.4,8.6,59-17.1,46.2-55.6S178.5,342.3,151.1,321.7z"/>
<path class="st4" d="M325.7,545.4c-0.1-0.5-0.3-1-0.5-1.4c-14.1-33.6-81.5-84-128.3-78.4c-10.4,1.2-19,1.5-26.5,1.7
	c-22.8,0.6-39.2,1.1-48.6,33.9c-0.2,0.6-0.3,1.3-0.4,2c-2.6,30.9-6.7,83.6-6.2,89.1c1.4,13.2,6.3,23,14.7,28.9
	c8,5.7,18.8,7.3,30.3,4.6c11.9-2.8,14.4-0.4,23.8,8.7c1.6,1.6,3.4,3.3,5.3,5c7.2,6.7,19.4,11.6,34.2,11.6c8.4,0,17.7-1.6,27.5-5.3
	c6.5-2.5,19.9-3.4,31.7-4.2c25.6-1.7,47.7-3.2,51.9-18.9C339.9,603,328.1,554.8,325.7,545.4z"/>
<path class="st5" d="M307.7,548.5c0.9,3.4,4.3,63.3-30.8,63.3s-65.9-31.7-89.8-24c-24,7.7-45.3-15.4-41.9-44.5
	c3.4-29.1,19.7-53,40.2-53S293.1,490.3,307.7,548.5z"/>
<path class="st2" d="M305.4,631.1c13.7,15.1,31.6,45.2,56,32c20.3-11,26.4-43.2,45.6-43.2c19.2,0,52.9-8,51.6-21.2
	c-2.4-24.4,14.4-14,21.6-26c7.2-12,2.4-24.8,2.4-24.8s-50.9-67.9-81.7-60.2c-30.8,7.7-94.1,28.2-97.5,46.2
	C300,551.9,282.6,606,305.4,631.1z"/>
<path class="st5" d="M319.2,528.4c0,0-9.8,107.4,19.3,101.4c29.1-6,28.2-29.9,47.9-29.9c19.7,0,52.2,0.9,53.9-23.1
	c1.7-24,4.3-47.9-19.7-62.5C396.7,499.7,336.8,489.4,319.2,528.4z"/>
<path class="st0" d="M508.4,491.1c-3.7-2.7-4.4-16.5,1.1-34.4c8.6-28.4-8.3-38.8-6.4-48.6c0.5-2.7,2.9-6.8,4.4-9.7
	c3-6.3,6.1-12.8,7.4-18.5c5.5-24.6-55.2-43.1-55.8-43.3c-19.6-5.6-73-13.3-85.2,17.9c-10.7,27.6-42,120.7,6.6,159.9
	c1.5,1.3,18.2,15.1,41.3,30.3c14.5,9.5,27.8,12.5,40.5,12.5c11,0,21.6-2.3,31.9-4.5l2.6-0.5c9.8-2.1,17.1-11.1,20-24.6
	C519.6,514.4,518.1,498.2,508.4,491.1z"/>
<path class="st1" d="M424.5,356.8c18.8-2.9,57.1,1.9,49.4,32.7c-7.7,30.8-1.8,39.5,7.7,66.1c4.8,13.5,15.4,75.7-25,71.2
	s-71.2-24.4-70.6-41.1C386.6,469.1,395.6,361.3,424.5,356.8z"/>
<path class="st2" d="M471.1,268c-3.6-3.6-7.1-7-9.3-9.7c-9.3-11.6-14.5-18.9-14.5-33.2c0-24.7-19.9-27-35.8-28.8
	c-2.5-0.3-5.1-0.6-7.8-1c-6.7-0.9-12-0.1-16.3,0.5c-6.3,0.9-9.4,1.4-16.1-3.2c-10.4-7.2-39.7-18-63.8-5.5c-3.5,1.8-5.7,5.5-5.5,9.5
	l1.7,48.2c1.1,30.4,13.6,58.9,35.4,80.2l45.2,44.3c2,1.9,4.5,2.9,7.2,2.9c1,0,2-0.1,2.9-0.4c29.2-8.7,62.4-17.9,69.3-18.8
	c10.6,1.5,14.8-10.5,19.2-23.1c2.2-6.4,4.7-13.6,7.3-17.9C499.6,296.3,483.8,280.6,471.1,268z"/>
<path class="st3" d="M318,229.8c3.6-12.7,27-33.4,47.5-14.8s33.4-12.8,56.5,21.8c23.1,34.7,64.2,75.7,39.1,87.9
	c-25,12.2-71.9,34-102,7.7C328.9,306.1,309.6,259.3,318,229.8z"/>
<path class="st4" d="M299.5,164.9c-10.4-3.1-17.8-2.4-23.8-1.8c-4.7,0.5-7.3,0.6-10.6-0.5c-25.4-8.8-51.1-14.7-67,1.2
	c-3.8,3.8-6.2,7.8-8.3,11.2c-3.9,6.4-6.5,10.6-18.2,13.7c-27.1,7.1-31.7,15.9-31.7,38.7c0,15.3-2.6,22.6-11.8,32.7
	c-13.5,15-10.8,57-3.2,64.5c1.5,1.5,3.8,3.8,45.3,21.4c0.4,0.2,0.9,0.3,1.3,0.5c1.6,0.4,22.7,6,48.8,6c22.1,0,47.8-4,68.1-18.4
	c20.6-14.6,32.2-37.2,34.4-67.1v0C323.5,257.6,329,173.7,299.5,164.9z"/>
<path class="st5" d="M294.2,278.5c1-16,4.5-79.3-23.1-83.4c-25.7-3.8-53.9,6.4-77,14.8c-32,11.6-24.4,41.7-36.6,73.8
	c-7.8,20.5,7.1,52,57.8,58.4C237.5,344.9,292.3,309.3,294.2,278.5z"/>
<path class="st0" d="M408.3,322.8c-5.9-12.7-16-17.5-24.1-21.3c-4.7-2.2-8.8-4.1-11.2-7.2c-0.5-0.7-1-3.5-1.4-5.4
	c-1.4-8.3-4.2-25.6-32.1-24.8c-4.6,0.1-5.8-0.9-8.3-2.8c-3.6-2.8-9.6-7.4-20.8-5c-7.5,1.6-11.9,7.1-15.1,11.1
	c-0.9,1.1-2.2,2.7-3,3.4c-2.8-0.5-4.8-2.1-8.1-4.8c-4.5-3.7-11.2-9.3-21.3-7.4c-9.9,1.9-14,4.8-18.4,8.3c-2.4,2-4.7,3.8-11.4,6.1
	c-6.3,2.1-11,6.5-13.6,12.7c-5.3,12.7-1.3,33.3,12,61.1c0,0,0,0,0,0c3.9,8,39.1,54.2,71.2,67.5c4.2,1.7,8.5,2.5,12.9,2.5
	c32.7,0,70.2-41.5,75-46.9C398.5,360.8,415.4,338.2,408.3,322.8z"/>
<path class="st1" d="M361.6,370.5c7.2-11.6,34.7-41.5,15.4-48.3s-18-10.3-24.4-22.7c-6.4-12.4-34.7-1.3-61.6-4.3
	c-27-3-36.8-4.7-44.9,5.6c-8.1,10.3-15,35.5,3,56.5c18,21,46.2,43,85.1,32.9C345.8,387.2,356,379.5,361.6,370.5z"/>
<path class="st4" d="M424.5,397.2c-2-20.3-8-31.3-24-38.4c-11.7-5.2-36.1-8.6-68.7,26.4c-0.7,0.7-1.2,1.5-1.6,2.4l-59.4,117.3
	c-1,2-1.4,4.3-0.9,6.6c1.5,7.7,11.3,37.8,32.6,44.5c2.4,0.7,5.1,1.3,8.2,1.3c6.9,0,15.4-2.7,24.5-11.5c10.3-10.1,27.9-18.7,42-25.7
	c18.8-9.3,29.2-15,30.8-25.4c2.3-15.2-6.7-25.1,6.8-38.2c7.7-7.4,0.1-20.4,1.6-31.5C418.1,411.4,425.1,403.7,424.5,397.2z"/>
<path class="st5" d="M288,498.4c0.5,11.5,12,45.8,31.2,29.9c19.3-15.8,33.9-20.8,46.2-29.9c16.7-12.4,12.8-32.5,19.7-47.9
	s19.8-38.2,15.3-53.9c-5.3-18.6-24.7-30.4-66.6,0.9C291.9,428.7,287.2,478.7,288,498.4z"/>
<path class="st2" d="M299.1,477.5l-43.7-129.9c-0.7-2.2-2.2-4-4.1-5.3c-5-3.3-50.1-32-82.1-14.6c-25.7,14-18.9,37.7-14.8,51.8
	c2.1,7.4,4.3,15.1,2,18.2c-11.5,15.2-4.3,35.1,4.5,50c4.4,7.5,4.5,16.6,0.2,24.2c-2.6,4.7-4.5,10.1-4.4,15.7
	c0.1,5.6,2.1,13.7,11.4,20.5c10.6,7.7,18.2,16.4,25,24.1c11.8,13.4,22.9,26.1,43.2,26.1c2,0,4.1-0.1,6.3-0.4
	c35.8-4.3,54.6-67.4,56.7-74.6C299.8,481.5,299.8,479.4,299.1,477.5z"/>
<path class="st3" d="M251.9,362.6c-8.9-9.1-57.1-28.9-66.1-14.1c-9,14.8,10.9,36.6,4.5,52c-6.4,15.4-18,21.8-3.2,41.1
	c14.8,19.3,5.5,28.6,12.5,49.7c7.1,21.2,35.6,39.5,56.1,20.9c20.5-18.6,38.4-44.2,35.6-64.8S280.1,391.5,251.9,362.6z"/>
<path class="st2" d="M318.9,386.7c-4.5-0.7-8.8-2.3-12.1-3.8c-8.2-4.4-2.8-39.7-33.5-47.5c-13.1-3.3-27,1.3-36.3,11.9
	c-10.4,11.8-12.6,28.8-6.1,45.4c3.9,10.1,23.3,56.4,51.2,56.4c2.9,0,6-0.5,9.1-1.6c30.5-10.9,36.1-47.5,36.3-49.1
	C328.4,392.7,324.5,387.5,318.9,386.7z"/>
<path class="st3" d="M311.1,397c-7.3-4.4-21.4-12.8-24-26.1s-20.1-26.5-35.1-16.3c-15,10.3-10.7,29.9-2.6,44.1s26.5,34.2,46.2,27
	C315.4,418.4,319.7,402.2,311.1,397z"/>
<path class="st4" d="M304.8,472.9l-10.3-42.6c-1.2-4.8-5.6-8-10.6-7.8c-4.8,0.3-11.6-7.7-15-22.9c-1-4.4-4.7-12.3-18.7-16
	c-12.5-3.3-35.4-3-45.2,7.9c-4.5,5-5.6,11.5-3.2,17.8c5.3,13.8,12.8,27,22.2,43.7c2.5,4.4,5.2,9.1,7.9,14.1
	c9.7,17.5,23.1,21.6,36.3,21.6c6.4,0,12.7-1,18.6-1.9c3-0.5,6-0.9,9.1-1.3c2.9-0.3,5.5-1.9,7.2-4.3
	C305,478.8,305.5,475.8,304.8,472.9z"/>
<path class="st5" d="M294.4,429.7L294.4,429.7c-1.2-4.9-5.8-7.1-10.9-7.3c-4.8-0.2-11.3-8.1-14.6-22.9c-0.6-2.6-2.2-6.4-6.3-9.9
	c-18,0.2-29.1,11.8-19.8,37.1c9.6,26.3,21.8,35.9,36.6,34.7c0,0,3.6-3.5,8.3-8.2C293.9,447.1,296.4,438.2,294.4,429.7z"/>
<path class="st0" d="M363.5,402.1c-7-13-21-18.9-36.5-15.6c-1.1,0.2-5.3,0.5-8.2,0.1c-3.6-0.5-7.2,1-9.5,3.9l-33.2,42.6
	c-1.6,2-2.3,4.6-2.1,7.1c2.4,30.5,15.1,42.2,25.3,46.7c4.6,2,9.3,2.9,14,2.9c9.5,0,18.6-3.7,24.8-8.5c9.5-7.5,11.9-16.5,13.7-23.1
	c1.3-4.8,2-7.5,4.3-9.7C368.3,436.4,371.4,416.9,363.5,402.1z"/>
<path class="st1" d="M344.5,413.3c-3-10-20-17.8-43-12.8l-21.2,27.2c1.7,13.5,6.7,39.5,20.6,39.5c18.8,0,17.4-16.5,26.5-24.4
	C336.8,434.7,348.8,427.4,344.5,413.3z"/>
</svg>
