<?xml version="1.0" encoding="utf-8"?>
<!-- Generator: Adobe Illustrator 19.0.0, SVG Export Plug-In . SVG Version: 6.00 Build 0)  -->
<svg version="1.1" id="Layer_1" xmlns="http://www.w3.org/2000/svg" xmlns:xlink="http://www.w3.org/1999/xlink" x="0px" y="0px"
	 viewBox="0 123.3 595.3 595.3" style="enable-background:new 0 123.3 595.3 595.3;" xml:space="preserve">
<style type="text/css">
	.st0{fill:#BF392C;}
	.st1{fill:#EFC75E;}
	.st2{fill:#D7B354;}
	.st3{fill:#AC3327;}
</style>
<g>
	<path class="st0" d="M495.2,161c-11.5-23.6-35.4-37.7-63.9-37.7c-65,0-111.1,70.2-133.7,114.5c-22.7-44.3-68.7-114.1-133.5-114.1
		c-41.1,0-71,29.3-71,69.1c0,70.5,67.2,116.5,202.4,116.5s206.8-59.1,206.8-115.9C502.2,182.1,500.1,171,495.2,161z M175.5,231
		c-19.7-11.8-26.7-24.9-26.7-33.4c0-10.8,11.5-18.6,27.3-18.6c38.1,0,86.8,62.6,103.2,93.2C235.4,268.9,190.5,239.9,175.5,231z
		 M443.8,207.6c-9.9,19.9-62.1,59.7-127.4,64.5c16.5-30.6,65.3-93.2,102.8-93.2c14.5,0,22.8,6.3,25.7,12.2
		C447.3,195.8,446.9,201.4,443.8,207.6z"/>
	<path class="st1" d="M595.2,309.4H0v148.8h18.6v260.4h558V458.2h18.6C595.2,458.2,595.2,309.4,595.2,309.4z"/>
	<path class="st2" d="M18.6,458.2h558v37.2h-558V458.2z"/>
	<path class="st0" d="M260.4,309.4h74.4v409.2h-74.4V309.4z"/>
	<rect x="260.4" y="458.2" class="st3" width="74.4" height="37.2"/>
</g>
</svg>
