<?xml version="1.0" encoding="utf-8"?>
<!-- Generator: Adobe Illustrator 19.0.0, SVG Export Plug-In . SVG Version: 6.00 Build 0)  -->
<svg version="1.1" id="Capa_1" xmlns="http://www.w3.org/2000/svg" xmlns:xlink="http://www.w3.org/1999/xlink" x="0px" y="0px"
	 viewBox="55 123.3 485.4 595.3" style="enable-background:new 55 123.3 485.4 595.3;" xml:space="preserve">
<style type="text/css">
	.st0{fill:#FAC176;}
	.st1{fill:#E8E8D3;}
	.st2{fill:#ECF0F1;}
	.st3{fill:#BDC3C7;}
	.st4{fill:#556080;}
	.st5{fill:#FDD7AD;}
	.st6{fill:#6D8C60;}
</style>
<g>
	<path class="st0" d="M273.7,604.2v-33.9c-0.8-0.7-1.7-1.2-2.5-2L150.4,445.4c-6.3-5.4,10.1,5.2,16.1,2.3l47.3,10.9l145.6,145.6
		H273.7z M368.3,604.2h113.4v-46.9c18.9-14.2,31.2-36.8,31.2-62.3c0-10.5-2.1-20.4-5.9-29.5L368.3,604.2z"/>
	<path class="st1" d="M231.4,123.3L55,299.8l95.6,95.6c6.5-5.9,15-9.6,24.4-9.6h104c20,0,36.4,16.4,36.4,36.4s-16.4,36.4-36.4,36.4
		h-65.2l150.1,150.1l176.5-176.5L231.4,123.3z"/>
	<rect x="252.9" y="604.2" class="st2" width="249.6" height="114.4"/>
	<path class="st3" d="M419.3,718.6H252.9V604.2h98c37.8,0,68.4,30.6,68.4,68.4V718.6z"/>
	<circle class="st4" cx="351.7" cy="661.4" r="26"/>
	<path class="st0" d="M335.1,226.7c12.8-5.6,21.8-18.4,21.8-33.3c0-20.1-16.3-36.4-36.4-36.4c-14.9,0-27.7,9-33.3,21.8L335.1,226.7z
		"/>
	<path class="st0" d="M387.1,278.7c12.8-5.6,21.8-18.4,21.8-33.3c0-20.1-16.3-36.4-36.4-36.4c-14.9,0-27.7,9-33.3,21.8L387.1,278.7z
		"/>
	<path class="st0" d="M439.1,330.7c12.8-5.6,21.8-18.4,21.8-33.3c0-20.1-16.3-36.4-36.4-36.4c-14.9,0-27.7,9-33.3,21.8L439.1,330.7z
		"/>
	<path class="st0" d="M491.1,382.7c12.8-5.6,21.8-18.4,21.8-33.3c0-20.1-16.3-36.4-36.4-36.4c-14.9,0-27.7,9-33.3,21.8L491.1,382.7z
		"/>
	<path class="st5" d="M278.9,458.6h-104c-20,0-36.4-16.4-36.4-36.4l0,0c0-20,16.4-36.4,36.4-36.4h104c20,0,36.4,16.4,36.4,36.4l0,0
		C315.3,442.2,299,458.6,278.9,458.6z"/>
	<path class="st6" d="M297.6,248.3c-4.1,4.1-10.6,4.1-14.7,0l-22.8-22.8c-16.9,11.2-40.5,11.2-57.4,0l-45.6,45.6
		c11.5,17.3,11.5,40,0,57.4l22.8,22.8c4.1,4.1,4.1,10.6,0,14.7c-2,2-4.7,3-7.4,3c-2.7,0-5.3-1-7.4-3l-36.8-36.8l7.4-7.4
		c12.2-12.2,12.2-32,0-44.1l-7.4-7.4l73.5-73.5l7.4,7.4c11.8,11.8,32.3,11.8,44.1,0l7.4-7.4l36.8,36.8
		C301.7,237.7,301.7,244.3,297.6,248.3z M466.8,402.8L430,366c-4.1-4.1-10.6-4.1-14.7,0c-4.1,4.1-4.1,10.6,0,14.7l22.8,22.8
		c-11.5,17.3-11.5,40,0,57.4l-45.6,45.6c-16.9-11.2-40.5-11.2-57.4,0l-22.8-22.8c-4.1-4.1-10.6-4.1-14.7,0c-4.1,4.1-4.1,10.6,0,14.7
		l36.8,36.8l7.4-7.4c11.8-11.8,32.3-11.8,44.1,0l7.4,7.4l73.5-73.5l-7.4-7.4c-12.2-12.2-12.2-32,0-44.1L466.8,402.8z M488.8,424.8
		c-4.1-4.1-10.6-4.1-14.7,0c-4.1,4.1-4.1,10.6,0,14.7c4.1,4.1,10.6,4.1,14.7,0C492.9,435.5,492.9,428.9,488.8,424.8z M356.5,542.5
		c-4.1,4.1-4.1,10.6,0,14.7c4.1,4.1,10.6,4.1,14.7,0c4.1-4.1,4.1-10.6,0-14.7C367.1,538.4,360.5,538.4,356.5,542.5z M238.8,189.5
		c4.1-4.1,4.1-10.6,0-14.7c-4.1-4.1-10.6-4.1-14.7,0c-4.1,4.1-4.1,10.6,0,14.7C228.2,193.5,234.7,193.5,238.8,189.5z M106.4,292.4
		c-4.1,4.1-4.1,10.6,0,14.7c4.1,4.1,10.6,4.1,14.7,0c4.1-4.1,4.1-10.6,0-14.7C117.1,288.4,110.5,288.4,106.4,292.4z"/>
	<path class="st6" d="M363.8,299.8c-36.6-36.6-95.8-36.6-132.4,0c-23.3,23.3-31.7,56-25.2,86h72.7c20,0,36.4,16.4,36.4,36.4
		c0,18.9-14.6,34.3-33,36.1c28.8,4.7,59.3-3.9,81.5-26.1C400.4,395.6,400.4,336.3,363.8,299.8z"/>
</g>
</svg>
