<?xml version="1.0" encoding="utf-8"?>
<!-- Generator: Adobe Illustrator 19.0.0, SVG Export Plug-In . SVG Version: 6.00 Build 0)  -->
<svg version="1.1"  xmlns="http://www.w3.org/2000/svg" xmlns:xlink="http://www.w3.org/1999/xlink" x="0px" y="0px"
	 viewBox="20.2 123.3 554.8 595.3" style="enable-background:new 20.2 123.3 554.8 595.3;" xml:space="preserve">
<style type="text/css">
	.st0{fill:#cd9a8a;}
</style>
<g>
	<path class="st0" d="M512.9,537.6c-36-30.8-72.5-49.4-108-18.7l-21.2,18.6c-15.5,13.5-44.4,76.4-155.9-51.9
		c-111.5-128.2-45.2-148.1-29.6-161.5l21.3-18.6c35.3-30.8,22-69.5-3.5-109.4L200.6,172c-25.6-39.8-53.5-65.9-88.9-35.2l-19.1,16.7
		c-15.7,11.4-59.4,48.5-70,118.9C9.8,356.9,50.1,453.7,142.4,559.9c92.2,106.2,182.5,159.6,268.1,158.7
		c71.1-0.8,114-38.9,127.4-52.8l19.2-16.7c35.3-30.7,13.4-62-22.6-92.8L512.9,537.6z"/>
</g>
</svg>
