<?xml version="1.0" encoding="utf-8"?>
<!-- Generator: Adobe Illustrator 19.0.0, SVG Export Plug-In . SVG Version: 6.00 Build 0)  -->
<svg version="1.1" id="Capa_1" xmlns="http://www.w3.org/2000/svg" xmlns:xlink="http://www.w3.org/1999/xlink" x="0px" y="0px"
	 viewBox="8.9 123.3 577.6 595.3" style="enable-background:new 8.9 123.3 577.6 595.3;" xml:space="preserve">
<g>
	<g>
		<path fill="#cd9a8a" d="M410,511.9c38.1-41.2,61.8-96.4,61.8-157.1c0-127.4-103.7-231.5-231.5-231.5S8.9,227.3,8.9,354.8s103.7,231.5,231.5,231.5
			c52,0,99.9-17.1,138.6-46.1l172.1,172.1c4.2,4.2,9.4,6.3,14.7,6.3s10.8-2.1,14.7-6.3c8-8,8-21.3,0-29.7L410,511.9z M50.8,354.8
			c0-104.4,84.8-189.6,189.6-189.6c104.4,0,189.6,84.8,189.6,189.6s-84.8,189.6-189.6,189.6S50.8,459.2,50.8,354.8z"/>
	</g>
</g>
</svg>
