<?xml version="1.0" encoding="utf-8"?>
<!-- Generator: Adobe Illustrator 19.0.0, SVG Export Plug-In . SVG Version: 6.00 Build 0)  -->
<svg version="1.1" id="Capa_1" xmlns="http://www.w3.org/2000/svg" xmlns:xlink="http://www.w3.org/1999/xlink" x="0px" y="0px"
	 viewBox="0 123.3 595.3 595.3" style="enable-background:new 0 123.3 595.3 595.3;" xml:space="preserve">
<style type="text/css">
	.st0{fill:#4D76A1;}
	.st1{fill:#FFFFFF;}
</style>
<g>
	<g>
		<circle id="XMLID_11_" class="st0" cx="297.6" cy="420.9" r="297.6"/>
	</g>
	<path class="st1" d="M286.4,551.5h23.4c0,0,7.1-0.8,10.7-4.7c3.3-3.6,3.2-10.3,3.2-10.3s-0.5-31.3,14.1-36
		c14.3-4.5,32.8,30.3,52.3,43.7c14.8,10.1,26,7.9,26,7.9l52.2-0.7c0,0,27.3-1.7,14.4-23.1c-1.1-1.8-7.5-15.9-38.8-44.9
		c-32.7-30.4-28.3-25.5,11.1-78c24-32,33.6-51.5,30.6-59.9c-2.9-8-20.5-5.9-20.5-5.9l-58.8,0.4c0,0-4.4-0.6-7.6,1.3
		c-3.2,1.9-5.2,6.3-5.2,6.3s-9.3,24.8-21.7,45.8c-26.2,44.4-36.6,46.8-40.9,44c-9.9-6.4-7.5-25.8-7.5-39.6c0-43.1,6.5-61-12.7-65.7
		c-6.4-1.5-11.1-2.6-27.4-2.7c-21-0.2-38.7,0.1-48.8,5c-6.7,3.3-11.8,10.6-8.7,11c3.9,0.5,12.7,2.4,17.3,8.7
		c6,8.2,5.8,26.6,5.8,26.6s3.5,50.7-8.1,57c-7.9,4.3-18.8-4.5-42.1-44.8c-12-20.6-21-43.5-21-43.5s-1.7-4.3-4.8-6.5
		c-3.8-2.8-9-3.6-9-3.6l-55.8,0.4c0,0-8.4,0.2-11.5,3.9c-2.7,3.2-0.2,9.9-0.2,9.9s43.7,102.3,93.2,153.8
		C234.9,554.6,286.4,551.5,286.4,551.5L286.4,551.5z"/>
</g>
</svg>
