<svg id="Capa_1" xmlns="http://www.w3.org/2000/svg" viewBox="0 143.8 595.3 554.2"><style>.st0{fill:#e0c6a9}.st1{fill:#ffecd7}.st2{fill:#ccb297}.st3{fill:#f0d7b8}.st4{fill:#72543a}.st5{fill:#ceb69e}</style><path class="st0" d="M10.3 143.8h574.8v143.7H10.3z"/><path class="st1" d="M513.2 205.4l61.6-61.6h20.5v143.7h-20.5l-61.6-82.1"/><path class="st2" d="M513.2 205.4v82.1h61.6z"/><path class="st1" d="M82.1 205.4l-61.6-61.6H0v143.7h20.5l61.6-82.1"/><path class="st2" d="M82.1 205.4v82.1H20.5z"/><path class="st3" d="M556.9 698.1H38.4C17.2 698.1 0 680.9 0 659.7V287.5h595.3v372.1c0 21.3-17.2 38.5-38.4 38.5z"/><circle class="st4" cx="174.5" cy="369.6" r="30.8"/><circle class="st4" cx="420.8" cy="369.6" r="30.8"/><path class="st5" d="M297.6 564.6c-73.6 0-133.4-59.9-133.4-133.4v-61.6c0-5.7 4.6-10.3 10.3-10.3 5.7 0 10.3 4.6 10.3 10.3v61.6c0 62.2 50.7 112.9 112.9 112.9s112.9-50.7 112.9-112.9v-61.6c0-5.7 4.6-10.3 10.3-10.3 5.7 0 10.3 4.6 10.3 10.3v61.6c-.1 73.6-60 133.4-133.6 133.4z"/></svg>