<svg fill="#cd9a8a" xmlns="http://www.w3.org/2000/svg" xmlns:xlink="http://www.w3.org/1999/xlink" viewBox="0 0 100.5 98"><style>.st0{clip-path:url(#SVGID_2_)}.st1{clip-path:url(#SVGID_4_)}</style><defs><path id="SVGID_1_" d="M51.1 86.8c-21.1 0-38.2-17.2-38.2-38.2S30 10.3 51.1 10.3s38.2 17.2 38.2 38.2-17.1 38.3-38.2 38.3zm0-86.8C24.3 0 2.5 21.8 2.5 48.6s21.8 48.6 48.6 48.6 48.6-21.8 48.6-48.6S77.9 0 51.1 0z"/></defs><clipPath id="SVGID_2_"><use xlink:href="#SVGID_1_" overflow="visible"/></clipPath><path class="st0" d="M-2.5-5h107.2v107.2H-2.5z"/><defs><path id="SVGID_3_" d="M76.4 47.1H54.6V20.8c0-2.2-1.8-4-4-4s-4 1.8-4 4v30.3c0 2.2 1.8 4 4 4h25.8c2.2 0 4-1.8 4-4s-1.8-4-4-4z"/></defs><clipPath id="SVGID_4_"><use xlink:href="#SVGID_3_" overflow="visible"/></clipPath><path class="st1" d="M41.6 11.8h43.8v48.3H41.6z"/></svg>