<svg id="Capa_1" xmlns="http://www.w3.org/2000/svg" viewBox="55.8 123.3 483.7 595.3"><style>.st0{fill:#ffd7a3}.st1{fill:#fdc88e}.st2{fill:#ffe1b2}.st3{fill:#ff6953}.st4{fill:#e54f4f}.st5{fill:#7e5449}.st6{fill:#ffb422}.st7{fill:#393950}</style><path class="st0" d="M195.5 492.8c20.8-13.4 18.5-53.3 18.5-62.6h167.4c0 9.3-2.6 49.2 18.2 62.6L297.6 607 195.5 492.8z"/><path class="st1" d="M362.7 532.6l36.8-39.8c-20.8-13.4-18.2-53.3-18.2-62.6H213.9c12 34.6 91.5 93.8 148.8 102.4z"/><path class="st2" d="M427.9 309.3c0 74.5-42.9 167.4-130.2 167.4s-130.2-92.9-130.2-167.4S225.7 207 297.6 207s130.3 27.8 130.3 102.3z"/><path class="st3" d="M511.6 718.6c15.4 0 27.9-12.5 27.9-27.9V601c0-40.9-31.9-84.6-70.9-97.1l-58.2-18.6c-31.3 23.9-76 56.6-112.8 56.6s-81.5-32.7-112.8-56.6l-58.2 18.6c-39 12.5-70.9 56.2-70.9 97.1v89.7c0 15.4 12.5 27.9 27.9 27.9h428z"/><path class="st4" d="M297.6 541.9l-38.8 38.8c-4 4-10.7 3.5-14.1-1.1l-68-93.5 21.7-21.7c3.5-3.5 9.1-3.6 12.8-.3l86.4 77.8zm0 0l38.8 38.8c4 4 10.7 3.5 14.1-1.1l68-93.5-21.7-21.7c-3.5-3.5-9.1-3.6-12.8-.3l-86.4 77.8z"/><circle class="st4" cx="297.6" cy="634.9" r="9.3"/><circle class="st4" cx="297.6" cy="588.4" r="9.3"/><path class="st2" d="M171.9 318.6c-13.9-3.5-23.1 4-23.1 18.6 0 19.4 18.7 66.9 38.5 37.2s-15.4-55.8-15.4-55.8zm249.4 0c15.2-3.5 25.2 4 25.2 18.6 0 19.4-20.5 66.9-42 37.2s16.8-55.8 16.8-55.8z"/><path class="st5" d="M195.3 279.7c-3.9 10.1-9.3 55.8-9.3 55.8l-18.6-9.3-5.2-61.6 33.1 15.1zm204.7 0c3.9 10.1 9.3 55.8 9.3 55.8l18.6-9.3 5.2-61.6-33.1 15.1z"/><path class="st6" d="M394.6 152.8l-70.9-25c-16.8-5.9-35.2-5.9-52.1 0l-70.9 25c-23.1 8.2-38.5 29.8-38.5 54v83.9h270.9v-83.9c0-24.2-15.4-45.9-38.5-54z"/><path class="st4" d="M297.6 244.2c-56.5 0-141.1 20.8-141.1 46.5h282.1c.1-25.7-84.5-46.5-141-46.5z"/><path class="st7" d="M442.3 495.5L317.4 718.6h64l112.8-201.4c-7.9-5.8-16.5-10.4-25.5-13.3l-26.4-8.4z"/><ellipse class="st3" cx="297.6" cy="188.4" rx="55.8" ry="37.2"/></svg>