<svg fill="#cd9a8a" xmlns="http://www.w3.org/2000/svg" viewBox="0 123.4 595.3 595.1"><path d="M297.6 123.3C133.3 123.3 0 256.6 0 420.9c0 164.4 133.3 297.6 297.6 297.6s297.6-133.3 297.6-297.6c.1-164.3-133.2-297.6-297.6-297.6zm0 104.5l176.1 109.8H121.5l176.1-109.8zM476 513.1c0 17.6-14.3 31.9-31.9 31.9H151.2c-17.6 0-31.9-14.3-31.9-31.9V344.7c0-1.9.2-3.7.5-5.5l168.3 104.9.6.3c.2.1.4.2.7.4 1.2.6 2.4 1.1 3.7 1.4.1 0 .3.1.4.1 1.4.3 2.8.5 4.2.5 1.4 0 2.8-.2 4.2-.5.1 0 .3 0 .4-.1 1.3-.3 2.5-.8 3.7-1.4.2-.1.5-.2.7-.4l.6-.3 168.3-104.9c.3 1.8.5 3.6.5 5.5l-.1 168.4z"/></svg>