<svg id="Layer_1" xmlns="http://www.w3.org/2000/svg" viewBox="134 185.9 339.7 492.6"><style>.st0{fill:#2f8442}.st1{opacity:.8}.st2{fill:#e0dad2}.st3{opacity:.5}.st4{fill:#f6a2a3}.st5{fill:#e84849}.st6{fill:#f4e028}.st7{fill:#e5ce27}</style><path class="st0" d="M188.9 368.3s68.3 205.4 94.4 305.1l7.7-3s-82.4-256.8-94.3-301.2c-10.5-39.2-7.8-.9-7.8-.9zm212.3.7s-79.4 205.4-88 308.1l8.2 1.5s29.7-161.1 86.8-306.1c14.9-37.8-7-3.5-7-3.5z"/><path class="st0" d="M336.5 360.6s-6.2 205.1 1.1 296.9l6.8 1.1s-7-260.2-1.2-295.9c5.9-35.9-6.7-2.1-6.7-2.1zm-72.4-6.5s-1.4 214.1 6.1 309.6l7.2-.3s-12.4-270-6.3-307.2c6.1-37.2-7-2.1-7-2.1z"/><path class="st0" d="M232.2 296.6s23.7 154.2 41.8 221.8l8.8-1.6s-44.6-192.1-45.2-219.6c-.7-27.5-5.4-.6-5.4-.6zm65-29.1s-15.8 290.3 2 391.7l8.2-2.2s-5.2-347.5-2.4-388c2.6-40.4-7.8-1.5-7.8-1.5z"/><g class="st1"><path class="st2" d="M366.7 636.2H234.6c-10.5 0 15.9-69.4 15.9-69.4L160.3 394c0-20.1 16.3-36.3 36.3-36.3h207.3c20.1 0 36.3 16.2 36.3 36.3L350 565.4s25.7 70.8 16.7 70.8z"/></g><g class="st3"><path class="st2" d="M304.3 636.2h-69.7c-9 0 15.9-69.4 15.9-69.4L160.3 394c0-20.1 16.3-36.3 36.3-36.3l166.7 83-59 195.5z"/></g><path class="st4" d="M209.2 290.8c1.2 14-5.4 28.6-14.8 29.4-9.5.8-18.3-12.6-19.5-26.6-1.1-14 5.8-23.2 15.3-24 9.5-.7 17.9 7.2 19 21.2z"/><path class="st5" d="M205.3 296.1c.8 10.2-4 20.3-10.9 20.9-7 .6-13.4-8.6-14.2-18.8-.8-10.2 4.2-17.6 11.2-18.2 6.9-.6 13.1 5.9 13.9 16.1z"/><path class="st4" d="M232.7 313.1c-9.1 10.7-24 16.4-31.3 10.3-7.3-6.2-4-21.9 5-32.5 9.1-10.7 20.5-12.3 27.8-6.1 7.2 6.1 7.5 17.6-1.5 28.3z"/><path class="st5" d="M226.2 314.1c-6.6 7.8-17.2 11.6-22.5 7.1-5.3-4.5-3.4-15.6 3.3-23.4 6.6-7.8 15.5-9.5 20.8-5 5.2 4.5 5 13.5-1.6 21.3z"/><path class="st4" d="M191.5 366.5c-6.5-12.4-6.2-28.4 2.2-32.8 8.4-4.4 21.8 4.5 28.3 16.9 6.5 12.4 3.7 23.6-4.7 28-8.5 4.4-19.3.3-25.8-12.1z"/><path class="st5" d="M193 360.1c-4.8-9.1-4.3-20.3 1.9-23.5 6.2-3.2 15.7 2.7 20.4 11.8 4.8 9.1 3 17.9-3.2 21.1-6.1 3.2-14.4-.3-19.1-9.4z"/><path class="st4" d="M155 319.4c13.9-1.3 28.7 5 29.6 14.5.9 9.5-12.4 18.4-26.3 19.8-14 1.3-23.3-5.6-24.2-15-.9-9.5 7-18 20.9-19.3z"/><path class="st5" d="M160.4 323.2c10.2-1 20.4 3.7 21 10.7.7 6.9-8.5 13.5-18.7 14.4s-17.7-4-18.3-10.9c-.6-6.9 5.8-13.2 16-14.2z"/><path class="st4" d="M175.1 291.4c10.8 8.9 16.7 23.8 10.6 31.2-6.1 7.3-21.8 4.3-32.6-4.6-10.8-8.9-12.5-20.4-6.5-27.7 6.1-7.5 17.7-7.9 28.5 1.1z"/><path class="st5" d="M176.1 297.8c7.9 6.5 11.8 17.1 7.3 22.4-4.4 5.4-15.5 3.5-23.4-3-7.9-6.6-9.7-15.3-5.2-20.7 4.5-5.3 13.4-5.2 21.3 1.3z"/><path class="st4" d="M228.9 357.3c-14 0-28.1-7.7-28.1-17.2s14.1-17.2 28.1-17.2c14 0 22.6 7.7 22.7 17.2-.1 9.5-8.7 17.2-22.7 17.2z"/><path class="st5" d="M223.9 353c-10.3 0-20-5.6-20-12.6s9.7-12.6 19.9-12.6c10.3 0 17.2 5.6 17.2 12.6.2 6.9-6.8 12.6-17.1 12.6z"/><path class="st4" d="M159.9 357c4.2-13.4 15.7-24.5 24.8-21.7 9.1 2.8 12.2 18.5 8.1 31.9-4.2 13.4-14.1 19.3-23.2 16.5-9.1-2.8-13.9-13.3-9.7-26.7z"/><path class="st5" d="M165.5 353.6c3.1-9.8 11.3-17.4 18-15.3 6.7 2.1 9.2 13 6.1 22.8-3.1 9.8-10.5 14.8-17.2 12.7-6.7-2.1-10-10.4-6.9-20.2z"/><ellipse transform="rotate(-4.691 191.291 332.622) scale(.99995)" class="st6" cx="191.3" cy="332.6" rx="22.6" ry="20"/><ellipse transform="rotate(-4.68 191.26 332.632)" class="st7" cx="191.3" cy="332.6" rx="14.9" ry="13.2"/><path class="st4" d="M446.1 302.7c-3.6 13.5-14.6 25.2-23.8 22.8-9.2-2.4-13.1-18-9.5-31.5 3.6-13.5 13.2-19.9 22.4-17.5 9.2 2.3 14.5 12.6 10.9 26.2z"/><path class="st5" d="M440.7 306.4c-2.6 9.9-10.5 17.9-17.3 16.1-6.7-1.8-9.7-12.6-7.1-22.5 2.6-9.9 9.9-15.2 16.6-13.5 6.7 1.8 10.4 10 7.8 19.9z"/><path class="st4" d="M460.8 331.5c-12.1 7-28.1 7.5-32.9-.7-4.8-8.2 3.5-22 15.6-29s23.4-4.8 28.2 3.4c4.8 8.2 1.2 19.2-10.9 26.3z"/><path class="st5" d="M454.4 330.3c-8.9 5.2-20.1 5.2-23.6-.8s2-15.8 10.9-20.9c8.9-5.2 17.7-3.8 21.2 2.2 3.5 5.9.3 14.3-8.5 19.5z"/><path class="st4" d="M404.2 368.1c-2-13.8 3.6-28.9 13-30.2 9.4-1.4 19.1 11.4 21.1 25.3 2 13.8-4.4 23.5-13.8 24.9-9.4 1.3-18.3-6.1-20.3-20z"/><path class="st5" d="M407.8 362.6c-1.5-10.2 2.7-20.6 9.6-21.6 6.9-1 13.9 7.8 15.3 17.9 1.5 10.2-3.1 17.9-10 18.9-6.9 1.1-13.5-5-14.9-15.2z"/><path class="st4" d="M385.5 311.6c13.6 3.4 25.4 14.3 23.1 23.5-2.3 9.2-17.8 13.3-31.4 9.9-13.6-3.4-20.1-13-17.8-22.2 2.3-9.2 12.5-14.6 26.1-11.2z"/><path class="st5" d="M389.3 317c10 2.5 18 10.3 16.3 17.1-1.7 6.8-12.5 9.9-22.4 7.4-10-2.5-15.3-9.7-13.6-16.4 1.6-6.8 9.7-10.6 19.7-8.1z"/><path class="st4" d="M413.7 291.8c7.2 12 7.8 28-.3 32.9s-22-3.2-29.2-15.2c-7.2-12-5-23.4 3.1-28.3 8.2-4.8 19.2-1.4 26.4 10.6z"/><path class="st5" d="M412.6 298.3c5.3 8.8 5.4 20-.6 23.6-6 3.6-15.8-1.8-21.1-10.6-5.3-8.8-4-17.7 2-21.3 6-3.6 14.4-.5 19.7 8.3z"/><path class="st4" d="M442.6 371.9c-13.2-4.7-23.9-16.6-20.8-25.6 3.2-9 19-11.6 32.2-6.9 13.2 4.6 18.8 14.8 15.6 23.7-3.1 9.1-13.8 13.5-27 8.8z"/><path class="st5" d="M439.3 366.2c-9.7-3.4-17-12-14.6-18.5 2.3-6.6 13.3-8.7 23-5.3 9.7 3.4 14.4 11 12.1 17.6-2.4 6.6-10.8 9.6-20.5 6.2z"/><path class="st4" d="M377.6 348.7c8.4-11.2 23-17.9 30.6-12.2 7.6 5.7 5.4 21.6-3 32.8-8.4 11.2-19.7 13.5-27.3 7.8-7.7-5.6-8.7-17.2-.3-28.4z"/><path class="st5" d="M384 347.3c6.1-8.2 16.5-12.6 22-8.4 5.6 4.2 4.3 15.3-1.8 23.5-6.2 8.2-14.8 10.4-20.4 6.2-5.6-4.1-6-13 .2-21.3z"/><ellipse transform="rotate(14.738 415.276 336.2)" class="st6" cx="415.3" cy="336.2" rx="22.6" ry="20"/><ellipse transform="rotate(14.744 415.283 336.155)" class="st7" cx="415.3" cy="336.2" rx="14.9" ry="13.2"/><path class="st4" d="M363.1 300.1c-1.2 12.4-9.2 24.3-17.7 23.5-8.5-.8-14.1-14-12.9-26.4 1.2-12.5 8.8-19.5 17.2-18.7 8.5.8 14.6 9.1 13.4 21.6z"/><path class="st5" d="M358.9 304.1c-.9 9.1-6.7 17.3-12.9 16.7-6.2-.6-10.4-9.7-9.5-18.8.9-9.1 6.5-14.8 12.7-14.2s10.6 7.2 9.7 16.3z"/><path class="st4" d="M380.2 323.3c-9.6 8-23.7 10.7-29.1 4.1-5.4-6.5-.1-19.9 9.5-27.8 9.6-8 20-7.6 25.4-1 5.4 6.6 3.9 16.8-5.8 24.7z"/><path class="st5" d="M374.4 323.2c-7.1 5.8-16.9 7.5-20.9 2.7s-.5-14.2 6.6-20c7.1-5.8 15.1-5.9 19.1-1.1 3.8 4.7 2.3 12.6-4.8 18.4z"/><path class="st4" d="M335.6 363.8c-3.8-11.9-1-26 7.1-28.5 8.1-2.6 18.4 7.3 22.2 19.3 3.8 11.9-.5 21.3-8.6 23.9-8 2.5-16.9-2.8-20.7-14.7z"/><path class="st5" d="M338 358.4c-2.8-8.8-.6-18.5 5.4-20.4 5.9-1.9 13.3 4.8 16.1 13.6 2.8 8.7-.2 16.2-6.1 18.1-6 1.9-12.7-2.5-15.4-11.3z"/><path class="st4" d="M311 316.7c12.5 1 24.4 8.9 23.7 17.4-.7 8.4-13.8 14.3-26.3 13.2-12.5-1-19.6-8.5-18.9-17 .8-8.4 9-14.6 21.5-13.6z"/><path class="st5" d="M315.1 320.9c9.1.8 17.3 6.5 16.8 12.7-.5 6.2-9.6 10.5-18.7 9.8-9.1-.8-14.9-6.3-14.4-12.5.6-6.3 7.2-10.8 16.3-10z"/><path class="st4" d="M333 295.2c8.1 9.5 10.9 23.6 4.5 29.1-6.5 5.5-19.9.3-27.9-9.2-8.1-9.6-7.8-19.9-1.3-25.4 6.4-5.5 16.6-4.1 24.7 5.5z"/><path class="st5" d="M332.9 301.1c5.9 7 7.7 16.8 2.9 20.9-4.8 4-14.2.7-20.1-6.3-5.9-7-6.1-15-1.3-19 4.7-4.1 12.6-2.6 18.5 4.4z"/><path class="st4" d="M370 361.6c-12.3-2.2-23.5-11.2-22-19.5 1.5-8.4 15.1-12.9 27.4-10.7 12.3 2.2 18.7 10.3 17.2 18.7-1.5 8.3-10.3 13.7-22.6 11.5z"/><path class="st5" d="M366.3 357c-9-1.6-16.7-8.1-15.6-14.2 1.1-6.1 10.5-9.6 19.5-8 9 1.6 14.3 7.7 13.2 13.8-1.1 6.2-8.1 10-17.1 8.4z"/><path class="st4" d="M309.3 350.5c5.8-11.1 17.7-19.1 25.2-15.2 7.5 3.9 7.8 18.2 2.1 29.3-5.8 11.1-15.4 14.8-23 10.9-7.5-3.8-10-13.9-4.3-25z"/><path class="st5" d="M314.8 348.4c4.2-8.1 12.7-13.5 18.2-10.6 5.5 2.9 6 12.9 1.8 21s-11.6 11.3-17.1 8.5c-5.5-2.9-7.1-10.8-2.9-18.9z"/><ellipse transform="rotate(5.44 340.757 334.018)" class="st6" cx="340.8" cy="334" rx="20.2" ry="17.9"/><ellipse transform="rotate(5.438 340.73 334.043)" class="st7" cx="340.8" cy="334" rx="13.3" ry="11.8"/><path class="st4" d="M300.6 307.6c-1.2 13-9.6 25.3-18.4 24.5-8.8-.8-14.7-14.5-13.5-27.5 1.2-13 9.1-20.3 17.9-19.5 8.9.8 15.3 9.5 14 22.5z"/><path class="st5" d="M296.2 311.8c-.9 9.5-7 18-13.4 17.4-6.5-.6-10.8-10.1-9.9-19.6.9-9.5 6.8-15.5 13.2-14.8 6.4.5 11 7.5 10.1 17z"/><path class="st4" d="M318.4 331.8c-10.1 8.3-24.7 11.1-30.3 4.3-5.6-6.8-.1-20.7 9.9-29 10.1-8.3 20.8-7.9 26.4-1.1 5.7 6.9 4.1 17.5-6 25.8z"/><path class="st5" d="M312.3 331.7c-7.4 6.1-17.7 7.8-21.8 2.8-4.1-5-.5-14.8 6.8-20.9 7.4-6.1 15.7-6.2 19.8-1.2 4.2 5 2.6 13.2-4.8 19.3z"/><path class="st4" d="M272 374c-3.9-12.4-1-27.1 7.4-29.7 8.4-2.7 19.2 7.6 23.1 20.1 3.9 12.4-.5 22.2-8.9 24.9-8.5 2.6-17.7-2.9-21.6-15.3z"/><path class="st5" d="M274.4 368.4c-2.9-9.1-.6-19.3 5.6-21.2 6.2-2 13.9 5 16.8 14.2 2.9 9.1-.2 16.9-6.4 18.8-6.2 1.9-13.1-2.7-16-11.8z"/><path class="st4" d="M246.3 324.9c13 1.1 25.4 9.3 24.7 18.1-.7 8.8-14.4 14.9-27.4 13.8-13-1.1-20.4-8.9-19.7-17.7.8-8.8 9.4-15.3 22.4-14.2z"/><path class="st5" d="M250.6 329.3c9.5.8 18.1 6.8 17.5 13.2-.5 6.5-9.9 11-19.5 10.2-9.5-.8-15.5-6.6-15-13 .6-6.6 7.4-11.2 17-10.4z"/><path class="st4" d="M269.2 302.5c8.4 9.9 11.4 24.6 4.7 30.3-6.7 5.7-20.7.4-29.1-9.6-8.4-10-8.1-20.7-1.4-26.4s17.4-4.3 25.8 5.7z"/><path class="st5" d="M269.2 308.6c6.2 7.3 8 17.5 3 21.7-4.9 4.2-14.8.7-21-6.6-6.2-7.3-6.3-15.6-1.4-19.8 5-4.2 13.2-2.6 19.4 4.7z"/><path class="st4" d="M307.7 371.7c-12.8-2.3-24.5-11.6-22.9-20.3 1.6-8.7 15.7-13.5 28.5-11.2 12.8 2.3 19.5 10.7 17.9 19.5-1.5 8.6-10.6 14.3-23.5 12z"/><path class="st5" d="M303.9 366.9c-9.4-1.7-17.4-8.4-16.2-14.8 1.1-6.4 10.9-10 20.3-8.3 9.4 1.7 14.9 8 13.7 14.4-1.1 6.4-8.4 10.4-17.8 8.7z"/><path class="st4" d="M244.6 360.1c6-11.5 18.4-19.9 26.3-15.8 7.8 4.1 8.2 19 2.2 30.6-6 11.6-16.1 15.4-23.9 11.3-8-4.1-10.6-14.5-4.6-26.1z"/><path class="st5" d="M250.3 357.9c4.4-8.5 13.2-14 19-11.1 5.8 3 6.3 13.4 1.9 21.9-4.4 8.5-12 11.8-17.8 8.8-5.9-3-7.5-11.1-3.1-19.6z"/><ellipse transform="rotate(5.438 277.285 342.963)" class="st6" cx="277.3" cy="342.9" rx="21" ry="18.6"/><ellipse transform="rotate(5.45 277.305 342.926) scale(1.00002)" class="st7" cx="277.3" cy="342.9" rx="13.9" ry="12.3"/><path class="st4" d="M248.4 250.8c.8 9.5-3.6 19.5-10 20-6.4.6-12.5-8.5-13.3-18-.8-9.5 3.9-15.8 10.3-16.3 6.4-.6 12.1 4.8 13 14.3z"/><path class="st5" d="M245.8 254.4c.6 6.9-2.6 13.8-7.3 14.2-4.7.4-9.1-5.8-9.7-12.7-.6-7 2.8-12 7.5-12.4 4.6-.4 8.8 4 9.5 10.9z"/><path class="st4" d="M264.4 265.9c-6.1 7.3-16.3 11.2-21.2 7.1-4.9-4.1-2.8-14.8 3.3-22.1 6.1-7.3 13.9-8.4 18.8-4.3 4.9 4.1 5.2 12-.9 19.3z"/><path class="st5" d="M260 266.6c-4.5 5.3-11.6 7.9-15.3 4.9-3.6-3-2.3-10.5 2.1-15.9 4.5-5.3 10.5-6.5 14.1-3.5 3.6 3 3.5 9.1-.9 14.5z"/><path class="st4" d="M236.6 302.2c-4.5-8.4-4.3-19.3 1.4-22.3 5.7-3 14.8 2.9 19.3 11.3s2.6 16-3.1 19.1c-5.8 3.1-13.1.3-17.6-8.1z"/><path class="st5" d="M237.6 297.9c-3.3-6.2-3-13.8 1.2-16 4.2-2.2 10.7 1.8 13.9 7.9 3.3 6.2 2.1 12.1-2.1 14.3-4.1 2.3-9.7 0-13-6.2z"/><path class="st4" d="M211.7 270.4c9.5-1 19.5 3.3 20.1 9.7.6 6.4-8.3 12.6-17.8 13.5-9.5 1-15.8-3.7-16.5-10.1-.6-6.3 4.7-12.1 14.2-13.1z"/><path class="st5" d="M215.3 273c6.9-.7 13.9 2.5 14.3 7.2.5 4.7-5.7 9.2-12.6 9.9-6.9.7-12-2.6-12.5-7.4-.4-4.7 3.9-9 10.8-9.7z"/><path class="st4" d="M225.2 251.3c7.4 6 11.4 16.1 7.3 21.1-4.1 5-14.8 3-22.1-3-7.4-6-8.6-13.8-4.5-18.8s11.9-5.3 19.3.7z"/><path class="st5" d="M225.9 255.7c5.4 4.4 8.1 11.5 5 15.2-3 3.7-10.5 2.5-15.9-1.9s-6.6-10.4-3.6-14c3.1-3.7 9.1-3.7 14.5.7z"/><path class="st4" d="M262 295.9c-9.5.1-19.1-5.1-19.1-11.6s9.5-11.7 19-11.8c9.5-.1 15.4 5.1 15.4 11.6 0 6.4-5.8 11.7-15.3 11.8z"/><path class="st5" d="M258.6 293c-7 .1-13.6-3.7-13.6-8.5 0-4.7 6.5-8.6 13.5-8.6s11.7 3.8 11.7 8.5c.1 4.6-4.6 8.5-11.6 8.6z"/><path class="st4" d="M215.1 296c2.8-9.1 10.6-16.7 16.7-14.8 6.2 1.9 8.4 12.5 5.6 21.6-2.8 9.1-9.5 13.2-15.7 11.3-6.1-1.9-9.4-9.1-6.6-18.1z"/><path class="st5" d="M218.9 293.6c2-6.7 7.6-11.8 12.1-10.4 4.5 1.4 6.3 8.8 4.2 15.5-2 6.7-7.1 10.1-11.6 8.7-4.5-1.5-6.7-7.1-4.7-13.8z"/><ellipse transform="rotate(-5.01 236.325 279.284) scale(1.00002)" class="st6" cx="236.3" cy="279.3" rx="15.3" ry="13.6"/><ellipse transform="rotate(-5.025 236.307 279.251)" class="st7" cx="236.3" cy="279.3" rx="10.1" ry="9"/><path class="st4" d="M324 208.6c0 14-7.7 28.1-17.2 28.1s-17.2-14.1-17.2-28.1c0-14 7.7-22.6 17.2-22.6 9.5-.1 17.2 8.6 17.2 22.6z"/><path class="st5" d="M319.7 213.5c0 10.3-5.6 19.9-12.6 19.9s-12.6-9.7-12.6-19.9c0-10.3 5.6-17.2 12.6-17.2s12.6 6.9 12.6 17.2z"/><path class="st4" d="M345.5 232.7c-9.9 9.9-25.3 14.4-32 7.7-6.7-6.7-2.2-22.1 7.7-32 9.9-9.9 21.5-10.6 28.2-3.8 6.7 6.6 6 18.2-3.9 28.1z"/><path class="st5" d="M338.9 233.2c-7.3 7.3-18.1 10.1-23 5.2-4.9-4.9-2.1-15.8 5.2-23 7.3-7.3 16.2-8.2 21.1-3.3 4.9 4.9 4 13.8-3.3 21.1z"/><path class="st4" d="M300.1 282.5c-5.5-12.9-3.9-28.9 4.9-32.6 8.8-3.7 21.3 6.2 26.8 19.1 5.5 12.9 1.7 23.9-7 27.6-8.8 3.8-19.3-1.2-24.7-14.1z"/><path class="st5" d="M302.1 276.3c-4-9.5-2.6-20.6 3.8-23.3 6.4-2.7 15.4 4 19.4 13.4 4 9.4 1.5 18.1-4.9 20.8-6.4 2.7-14.3-1.5-18.3-10.9z"/><path class="st4" d="M267.6 232.6c14-.2 28.2 7.4 28.3 16.9.1 9.5-13.9 17.4-27.9 17.5-14 .2-22.7-7.4-22.8-16.9-.1-9.5 8.4-17.3 22.4-17.5z"/><path class="st5" d="M272.6 236.9c10.3-.1 20 5.4 20.1 12.4.1 7-9.5 12.7-19.8 12.8-10.3.1-17.3-5.4-17.4-12.4 0-7 6.9-12.7 17.1-12.8z"/><path class="st4" d="M289.9 206.3c10 9.8 14.7 25.1 8.1 31.9-6.6 6.8-22.1 2.5-32.1-7.3s-10.8-21.3-4.2-28.1c6.6-6.8 18.1-6.3 28.2 3.5z"/><path class="st5" d="M290.4 212.9c7.3 7.2 10.3 18 5.5 22.9-4.9 5-15.7 2.3-23.1-4.9-7.3-7.2-8.4-16.1-3.5-21.1 4.8-4.9 13.8-4.1 21.1 3.1z"/><path class="st4" d="M338.1 276.4c-14-1.1-27.4-10-26.6-19.4.8-9.5 15.4-16 29.4-14.9 14 1.1 21.9 9.5 21.2 19-.8 9.5-10 16.4-24 15.3z"/><path class="st5" d="M333.5 271.7c-10.2-.8-19.4-7.2-18.9-14.2.6-7 10.7-11.8 20.9-11 10.2.8 16.7 7 16.1 14-.4 7-7.9 12.1-18.1 11.2z"/><path class="st4" d="M269.4 270.5c5.2-13 17.7-23.1 26.5-19.6 8.8 3.6 10.7 19.5 5.4 32.5-5.2 13-15.6 18.1-24.4 14.5-8.9-3.5-12.8-14.4-7.5-27.4z"/><path class="st5" d="M275.2 267.5c3.8-9.5 12.7-16.4 19.2-13.8 6.5 2.6 8.1 13.7 4.2 23.2-3.8 9.5-11.7 13.9-18.2 11.2-6.4-2.5-9-11-5.2-20.6z"/><ellipse class="st6" cx="302.6" cy="248.8" rx="22.6" ry="20"/><ellipse class="st7" cx="302.6" cy="248.8" rx="14.9" ry="13.2"/><path class="st4" d="M374.8 249.1c.8 9.5-3.6 19.5-10 20-6.4.6-12.5-8.5-13.3-18-.8-9.5 3.9-15.8 10.3-16.3 6.5-.5 12.2 4.9 13 14.3z"/><path class="st5" d="M372.2 252.8c.6 6.9-2.6 13.8-7.3 14.2-4.7.4-9.1-5.8-9.7-12.7-.6-7 2.8-12 7.5-12.4 4.7-.5 8.9 3.9 9.5 10.9z"/><path class="st4" d="M390.8 264.2c-6.1 7.3-16.3 11.2-21.2 7.1-4.9-4.1-2.8-14.8 3.3-22.1 6.1-7.3 13.9-8.4 18.8-4.3 5 4.2 5.2 12-.9 19.3z"/><path class="st5" d="M386.4 264.9c-4.5 5.3-11.6 7.9-15.3 4.9-3.6-3-2.3-10.5 2.1-15.9 4.5-5.3 10.5-6.5 14.1-3.5 3.7 3.1 3.6 9.2-.9 14.5z"/><path class="st4" d="M363.1 300.6c-4.5-8.4-4.3-19.3 1.4-22.3 5.7-3 14.8 2.9 19.3 11.3s2.6 16-3.1 19.1c-5.8 3-13.2.3-17.6-8.1z"/><path class="st5" d="M364.1 296.3c-3.3-6.2-3-13.8 1.2-16 4.2-2.2 10.6 1.8 13.9 7.9 3.3 6.2 2.1 12.1-2.1 14.3-4.2 2.3-9.8-.1-13-6.2z"/><path class="st4" d="M338.1 268.8c9.5-1 19.5 3.3 20.1 9.7.6 6.4-8.4 12.6-17.8 13.5-9.5 1-15.8-3.7-16.5-10.1-.5-6.4 4.8-12.2 14.2-13.1z"/><path class="st5" d="M341.8 271.4c6.9-.7 13.9 2.5 14.3 7.2.5 4.7-5.7 9.2-12.6 9.9-6.9.7-12-2.6-12.5-7.4-.5-4.8 3.8-9.1 10.8-9.7z"/><path class="st4" d="M351.6 249.6c7.3 6 11.4 16.1 7.3 21.1-4.1 5-14.8 3-22.1-3-7.4-6-8.6-13.8-4.5-18.8 4.1-4.9 12-5.3 19.3.7z"/><path class="st5" d="M352.4 254c5.4 4.4 8.1 11.5 5.1 15.2-3 3.7-10.5 2.5-15.9-1.9s-6.6-10.4-3.6-14c2.9-3.7 9-3.7 14.4.7z"/><path class="st4" d="M388.4 294.2c-9.5.1-19.1-5.1-19.1-11.6s9.5-11.8 19-11.8c9.5-.1 15.4 5.1 15.4 11.6.1 6.5-5.8 11.7-15.3 11.8z"/><path class="st5" d="M385.1 291.3c-7 .1-13.6-3.7-13.6-8.5 0-4.7 6.5-8.6 13.5-8.6s11.7 3.8 11.8 8.5c-.1 4.7-4.8 8.6-11.7 8.6z"/><path class="st4" d="M341.6 294.3c2.8-9.1 10.6-16.7 16.7-14.8 6.2 1.9 8.4 12.5 5.6 21.6-2.8 9.1-9.5 13.2-15.7 11.3-6.1-1.9-9.4-9-6.6-18.1z"/><path class="st5" d="M345.4 291.9c2-6.7 7.6-11.8 12.2-10.5 4.5 1.4 6.3 8.8 4.2 15.5-2 6.7-7.1 10.1-11.6 8.7-4.6-1.4-6.9-7-4.8-13.7z"/><ellipse transform="rotate(-5.01 362.8 277.602) scale(1.00002)" class="st6" cx="362.8" cy="277.6" rx="15.3" ry="13.6"/><ellipse transform="rotate(-5.02 362.748 277.569)" class="st7" cx="362.8" cy="277.6" rx="10.1" ry="9"/><path class="st5" d="M350 565.4l2.9-5.6-60.7 6.7-45.4-6.7 3.7 7.1s-.3.7-.7 1.8l45.5 6.7 55.9-6.7c-.7-2.1-1.2-3.3-1.2-3.3z"/></svg>