<svg id="Capa_1" xmlns="http://www.w3.org/2000/svg" viewBox="49.6 123.3 496.1 595.3"><style>.st0{fill:#e6e6e6}.st1{fill:#9e6c53}.st2{fill:#8a5336}.st3{fill:#ebba16}</style><path class="st0" d="M415.3 342.5c19.5-13 31.2-34.9 31.2-58.3V172.9H148.8v111.3c0 23.4 11.7 45.3 31.2 58.3l92.5 67.9c3.4 2.5 5.3 6.4 5.3 10.5 0 4.2-2 8.1-5.3 10.5l-92.5 68c-19.5 13-31.2 34.9-31.2 58.3V669h297.6V557.6c0-23.4-11.7-45.3-31.2-58.3l-92.5-67.9c-3.4-2.5-5.3-6.4-5.3-10.5 0-4.2 2-8.1 5.3-10.5l92.6-67.9z"/><path class="st1" d="M99.2 669h396.9v39.7H99.2zm0-535.8h396.9v39.7H99.2z"/><path class="st2" d="M535.8 698.7H59.5c-5.5 0-9.9 4.4-9.9 9.9s4.4 9.9 9.9 9.9h476.2c5.5 0 9.9-4.4 9.9-9.9s-4.4-9.9-9.8-9.9zM59.5 143.1h476.2c5.5 0 9.9-4.4 9.9-9.9s-4.4-9.9-9.9-9.9H59.5c-5.5 0-9.9 4.4-9.9 9.9s4.5 9.9 9.9 9.9z"/><path class="st3" d="M398.8 317.8c11.2-7.5 17.9-20 17.9-33.5 0-13-8.8-24.3-21.4-27.4L246 219.5c-34.2-8.6-67.4 17.3-67.4 52.6v12.1c0 13.5 6.7 26 17.9 33.5l91.2 66.9v157.5c0 36-37.3 59.9-70 44.8-17.6-8.1-38.9 3.9-39.1 23.3V669h238.1V557.2c-.2-19.2-18.7-33-37.6-29.7l-20.3 3.5c-26.7 4.7-51.2-15.9-51.2-43V384.7l91.2-66.9z"/></svg>