<svg id="Capa_1" xmlns="http://www.w3.org/2000/svg" viewBox="0 123.3 595.3 595.3"><style>.st0{fill:#f4bf1a}.st1{fill:#ffd949}.st2{fill:#dca815}.st3{fill:#d1d4d2}</style><g id="XMLID_90_"><path id="XMLID_122_" class="st0" d="M450.8 577C347 680.8 193.3 698.2 93.1 622.6c6.1 8.1 12.8 16 20.2 23.3 98.2 98.2 268.8 86.8 381-25.4 112.2-112.2 123.6-282.8 25.4-381-7.4-7.4-15.2-14.1-23.3-20.2C572 319.5 554.5 473.2 450.8 577"/><path id="XMLID_121_" class="st1" d="M476.2 196c98.2 98.2 86.8 268.8-25.4 381S168 700.6 69.8 602.4s-86.8-268.8 25.4-381S378 97.8 476.2 196"/><path id="XMLID_89_" class="st0" d="M237 628.1c-53.8 0-102.9-19.5-138.2-54.8-82-82-70.6-226.9 25.4-322.9 51-51 118.3-80.2 184.7-80.2 53.8 0 102.9 19.5 138.2 54.8 82 82 70.6 226.9-25.4 322.9-50.9 51-118.3 80.2-184.7 80.2"/><path id="XMLID_119_" class="st2" d="M457.7 569.4l43.7 43.7c4.7-5 9.3-10.2 13.6-15.4l-43.6-43.6c-4.3 5.2-9 10.3-13.7 15.3"/><path id="XMLID_118_" class="st2" d="M419.7 604l43.7 43.7c5.4-4.2 10.7-8.6 15.8-13.2l-43.6-43.6c-5.2 4.6-10.5 8.9-15.9 13.1"/><path id="XMLID_117_" class="st2" d="M490 529.2l43.7 43.7c4-5.9 7.7-11.8 11.2-17.8l-43.6-43.6c-3.5 6-7.3 11.9-11.3 17.7"/><path id="XMLID_116_" class="st2" d="M516.1 482.7l43.7 43.7c3.1-6.8 5.9-13.7 8.4-20.6l-43.7-43.7c-2.4 7-5.3 13.8-8.4 20.6"/><path id="XMLID_115_" class="st2" d="M375.8 632.7l43.7 43.7c6.2-3.3 12.3-6.9 18.4-10.7L394.2 622c-6.1 3.8-12.2 7.4-18.4 10.7"/><path id="XMLID_114_" class="st2" d="M325.2 654.6l43.7 43.7c7.1-2.3 14.2-4.9 21.2-7.8l-43.7-43.7c-7 2.9-14.1 5.5-21.2 7.8"/><path id="XMLID_113_" class="st2" d="M252 668.6l43.7 43.7c8.7-.5 17.5-1.4 26.3-2.7l-43.7-43.7c-8.8 1.2-17.5 2.2-26.3 2.7"/><path id="XMLID_112_" class="st2" d="M171.3 660.4l43.8 43.8c11.7 3.1 23.7 5.4 35.8 6.8l-43.8-43.8c-12.1-1.4-24.1-3.7-35.8-6.8"/><path id="XMLID_111_" class="st2" d="M537.5 417l43.6 43.6c1.7-8.4 2.9-16.8 3.8-25.2l-43.7-43.7c-.8 8.4-2.1 16.8-3.7 25.3"/><path id="XMLID_88_" class="st2" d="M586.1 393c-.6-11.1-1.8-22-3.8-32.8l-43.9-43.9c2 10.9 3.6 22 4.2 33.2l43.5 43.5z"/><path id="XMLID_109_" class="st3" d="M58.7 708.3c-28.3 0-51.3-23-51.3-51.3 0-5.7 4.6-10.3 10.3-10.3S28 651.3 28 657c0 17 13.8 30.8 30.8 30.8 5.7 0 10.3 4.6 10.3 10.3s-4.8 10.2-10.4 10.2"/><path id="XMLID_108_" class="st3" d="M571.8 195.1c-5.7 0-10.3-4.6-10.3-10.3 0-22.6-13.8-41.1-30.8-41.1-5.7 0-10.3-4.6-10.3-10.3 0-5.7 4.6-10.3 10.3-10.3 28.3 0 51.3 27.6 51.3 61.6.1 5.9-4.5 10.4-10.2 10.4"/><path id="XMLID_107_" class="st3" d="M469.2 698.1c-5.7 0-10.3-4.6-10.3-10.3s4.6-10.3 10.3-10.3c50.9 0 92.4-41.4 92.4-92.4 0-5.7 4.6-10.3 10.3-10.3s10.3 4.6 10.3 10.3c-.1 62.3-50.8 113-113 113"/><path id="XMLID_106_" class="st3" d="M541 718.6c-5.7 0-10.3-4.6-10.3-10.3S535.3 698 541 698c16.7 0 30.8-9.4 30.8-20.5 0-5.7 4.6-10.3 10.3-10.3s10.3 4.6 10.3 10.3c0 22.7-23.1 41.1-51.4 41.1"/><path id="XMLID_105_" class="st1" d="M392.3 358.1c-2.5-59.7-46.5-82.8-113.9-82.9-3 0-5.9.1-8.8.3-21 1.4-40.6-2-54.7-11.5-5.7-3.9-10.3-7.9-13.1-12.2-1.3-1.9-4.9-.6-5.1 1.9-.3 4.2-.6 9.2-.5 14.7.3 20.8-1.8 17.7-14.4 37.3-7 10.8-12.6 23-16.7 36.1-9.2 3.8-16.7 11.8-18.8 21.7l-2.8 13.1c-2.6 11.9 3.1 23.1 13.3 28 1.5 29.6 12.5 56 38.7 74.6l-3.3 17.9c-.9 4.6-4.2 8.2-8.6 9.3l-61.3 14.9c-15.9 4.7-28.1 18.7-32.1 36.8l-1 4.3c3.1 3.7 6.2 7.4 9.7 10.9 35.3 35.3 84.4 54.8 138.2 54.8 45.8 0 92.1-13.9 133.2-39.3l-69.9-53.9c-4.6-3.5-7-8.9-6.3-14l2.8-20.1c39.2-6.9 65.1-31.4 80.2-65.1 17.6-2 31.8-13.6 33.3-29.2l1.6-17.2c1.1-12.9-7.1-24.7-19.7-31.2"/></g></svg>