<svg id="Capa_1" xmlns="http://www.w3.org/2000/svg" viewBox="0 124.5 595.3 592.9"><style>.st0{fill:#5e3118}.st1{fill:#77442b}.st2{fill:#eaead6}.st3{fill:#bfbda3}.st4{fill:#6d8c60}.st5{fill:#91553d}.st6{fill:#6d3d25}.st7{fill:#e4c05c}</style><path class="st0" d="M426.2 183.7L564.5 322l-5.4 5.4h36.2V183.7zm-178.1 0H71.8C32.2 183.7 0 215.9 0 255.5s32.2 71.8 71.8 71.8h43.4l-5.4-5.4 138.3-138.2z"/><path class="st1" d="M169.8 209.2c-6.6.5-13.3.8-20.1 1.1-5.7.2-10.1 5-9.9 10.6.2 5.5 4.8 9.9 10.2 9.9h.4c7.1-.2 14.1-.6 20.9-1.1 5.7-.4 9.9-5.3 9.5-11s-5.3-10-11-9.5zm-61.1 2.1c-7.1.2-14.2.5-20.9.9-5.7.3-10 5.2-9.6 10.9.3 5.4 4.9 9.6 10.2 9.6h.6c6.5-.4 13.3-.7 20.2-.8 5.7-.2 10.1-4.9 10-10.5s-5-9.9-10.5-10.1zm-64 7.7c-9.3 3-16.4 7.1-21.8 12.4-4 4-4 10.5 0 14.5 2 2 4.6 3 7.3 3s5.3-1 7.3-3c3-2.9 7.5-5.5 13.6-7.5 5.4-1.8 8.3-7.6 6.6-13-1.8-5.3-7.5-8.2-13-6.4zm468.5-4.5h-20.5c-5.7 0-10.3 4.6-10.3 10.3S487 235 492.6 235h20.5c5.7 0 10.3-4.6 10.3-10.3s-4.6-10.2-10.2-10.2zm61.6 0h-20.5c-5.7 0-10.3 4.6-10.3 10.3s4.6 10.3 10.3 10.3h20.5c5.7 0 10.3-4.6 10.3-10.3s-4.7-10.3-10.3-10.3z"/><path class="st2" d="M570.2 327.4L367.4 124.9c-.6-.6-1.5-.6-2 0L162.7 327.4h407.5z"/><path class="st3" d="M162.9 327.4l174.2-174.2-28.3-28.3c-.6-.6-1.5-.6-2 0L104.1 327.4h58.8z"/><path class="st4" d="M485.8 333.8l3.2-3.2-122-121.7c-.3-.3-.9-.3-1.2 0L244 330.6l3.2 3.2h238.6z"/><path class="st1" d="M0 255.5v398.7c0 34.9 28.3 63.1 63.1 63.1h532.1v-390H71.8C32.2 327.4 0 295.2 0 255.5z"/><path class="st5" d="M533.7 378.7h-20.5c-5.7 0-10.3-4.6-10.3-10.3 0-5.7 4.6-10.3 10.3-10.3h20.5c5.7 0 10.3 4.6 10.3 10.3 0 5.7-4.6 10.3-10.3 10.3zm-61.6 0h-20.5c-5.7 0-10.3-4.6-10.3-10.3 0-5.7 4.6-10.3 10.3-10.3h20.5c5.7 0 10.3 4.6 10.3 10.3 0 5.7-4.6 10.3-10.3 10.3zm-61.6 0H390c-5.7 0-10.3-4.6-10.3-10.3 0-5.7 4.6-10.3 10.3-10.3h20.5c5.7 0 10.3 4.6 10.3 10.3 0 5.7-4.6 10.3-10.3 10.3zm-61.5 0h-20.5c-5.7 0-10.3-4.6-10.3-10.3 0-5.7 4.6-10.3 10.3-10.3H349c5.7 0 10.3 4.6 10.3 10.3-.1 5.7-4.7 10.3-10.3 10.3zm-61.6 0h-20.5c-5.7 0-10.3-4.6-10.3-10.3 0-5.7 4.6-10.3 10.3-10.3h20.5c5.7 0 10.3 4.6 10.3 10.3-.1 5.7-4.6 10.3-10.3 10.3zm-61.6 0h-20.5c-5.7 0-10.3-4.6-10.3-10.3 0-5.7 4.6-10.3 10.3-10.3h20.5c5.7 0 10.3 4.6 10.3 10.3 0 5.7-4.6 10.3-10.3 10.3zm-61.6 0h-20.5c-5.7 0-10.3-4.6-10.3-10.3 0-5.7 4.6-10.3 10.3-10.3h20.5c5.7 0 10.3 4.6 10.3 10.3 0 5.7-4.6 10.3-10.3 10.3zm-61.6 0H82.1c-5.7 0-10.3-4.6-10.3-10.3 0-5.7 4.6-10.3 10.3-10.3h20.5c5.7 0 10.3 4.6 10.3 10.3 0 5.7-4.6 10.3-10.3 10.3zM42 372.2c-1.4 0-2.9-.3-4.3-.9-7.1-3.3-13.7-7.5-19.6-12.6-4.3-3.7-4.7-10.2-1-14.5 3.7-4.3 10.2-4.7 14.5-1 4.4 3.9 9.4 7.1 14.7 9.5 5.2 2.4 7.4 8.4 5.1 13.6-1.8 3.7-5.5 5.9-9.4 5.9zm491.7 314.4h-20.5c-5.7 0-10.3-4.6-10.3-10.3 0-5.7 4.6-10.3 10.3-10.3h20.5c5.7 0 10.3 4.6 10.3 10.3 0 5.7-4.6 10.3-10.3 10.3zm-61.6 0h-20.5c-5.7 0-10.3-4.6-10.3-10.3 0-5.7 4.6-10.3 10.3-10.3h20.5c5.7 0 10.3 4.6 10.3 10.3 0 5.7-4.6 10.3-10.3 10.3zm-61.6 0H390c-5.7 0-10.3-4.6-10.3-10.3 0-5.7 4.6-10.3 10.3-10.3h20.5c5.7 0 10.3 4.6 10.3 10.3 0 5.7-4.6 10.3-10.3 10.3zm-61.5 0h-20.5c-5.7 0-10.3-4.6-10.3-10.3 0-5.7 4.6-10.3 10.3-10.3H349c5.7 0 10.3 4.6 10.3 10.3-.1 5.7-4.7 10.3-10.3 10.3zm-61.6 0h-20.5c-5.7 0-10.3-4.6-10.3-10.3 0-5.7 4.6-10.3 10.3-10.3h20.5c5.7 0 10.3 4.6 10.3 10.3-.1 5.7-4.6 10.3-10.3 10.3zm-61.6 0h-20.5c-5.7 0-10.3-4.6-10.3-10.3 0-5.7 4.6-10.3 10.3-10.3h20.5c5.7 0 10.3 4.6 10.3 10.3 0 5.7-4.6 10.3-10.3 10.3zm-61.6 0h-20.5c-5.7 0-10.3-4.6-10.3-10.3 0-5.7 4.6-10.3 10.3-10.3h20.5c5.7 0 10.3 4.6 10.3 10.3 0 5.7-4.6 10.3-10.3 10.3zm-61.6 0H82.1c-5.7 0-10.3-4.6-10.3-10.3 0-5.7 4.6-10.3 10.3-10.3h20.5c5.7 0 10.3 4.6 10.3 10.3 0 5.7-4.6 10.3-10.3 10.3zM42 680.1c-1.4 0-2.9-.3-4.3-.9-7.1-3.3-13.7-7.5-19.6-12.6-4.3-3.7-4.7-10.2-1-14.5 3.7-4.3 10.2-4.7 14.5-1 4.4 3.9 9.4 7.1 14.7 9.5 5.2 2.4 7.4 8.4 5.1 13.6-1.8 3.7-5.5 5.9-9.4 5.9z"/><path class="st6" d="M595.3 585.7H472.1c-34 0-61.6-27.6-61.6-61.6s27.6-61.6 61.6-61.6h123.2v123.2z"/><path class="st0" d="M595.3 573.7H472.1c-34 0-61.6-27.6-61.6-61.6s27.6-61.6 61.6-61.6h123.2v123.2z"/><circle class="st7" cx="482.4" cy="512.1" r="30.8"/></svg>