<svg id="Layer_1" xmlns="http://www.w3.org/2000/svg" viewBox="0 123.3 595.3 595.3"><style>.st0{fill:#3f729b}.st1{fill:#fff}</style><path class="st0" d="M297.6 123.3c164.4 0 297.6 133.3 297.6 297.6S462 718.6 297.6 718.6 0 585.3 0 420.9s133.2-297.6 297.6-297.6z"/><path class="st1" d="M400.4 253.5H194.9c-35.7 0-64.7 29-64.7 64.7v205.5c0 35.7 29 64.7 64.7 64.7h205.5c35.7 0 64.7-29 64.7-64.7V318.2c0-35.7-29-64.7-64.7-64.7zm20.4 37.4h7.3v55.6l-56 .2-.2-55.6 48.9-.2zm-123.2 74c46.5 0 56 43.6 56 56 0 30.9-25.2 56-56 56-30.9 0-56-25.2-56-56 0-12.4 9.6-56 56-56zm130.8 154.7c0 17.7-14.4 32.1-32.1 32.1H198.4c-17.7 0-32.1-14.4-32.1-32.1v-136h46.5c-4.3 10.6-6.8 25.1-6.8 37.3 0 50.5 41.1 91.6 91.6 91.6s91.6-41.1 91.6-91.6c0-12.2-2.4-26.7-6.7-37.3h45.9v136z"/></svg>