<svg fill="#3f3f4d" xmlns="http://www.w3.org/2000/svg" viewBox="59.3 123.4 476.7 595.2"><path d="M297.6 440.4c88.1 0 119.8-88.2 128.1-160.7 10.2-89.3-32-156.4-128.1-156.4s-138.3 67.2-128.1 156.4c8.4 72.5 40.1 160.7 128.1 160.7z"/><path d="M535.9 650.4c-1-28.1-4.3-56.4-9.2-84-5.9-33.5-13.5-82.7-42.8-104.5-16.9-12.6-38.8-16.8-58.2-24.4-9.4-3.7-17.9-7.4-25.8-11.6-26.8 29.4-61.7 44.7-102.3 44.7-40.6 0-75.5-15.4-102.3-44.7-7.9 4.2-16.4 7.9-25.8 11.6-19.4 7.6-41.3 11.8-58.2 24.4-29.3 21.8-36.8 71-42.8 104.5-4.9 27.7-8.2 55.9-9.2 84-.7 21.8 10 24.8 28.2 31.4 22.8 8.2 46.4 14.3 70.1 19.3 45.8 9.7 93 17.1 140 17.4 47-.3 94.2-7.8 140-17.4 23.7-5 47.3-11.1 70.1-19.3 18.2-6.6 29-9.6 28.2-31.4z"/></svg>