<svg id="Layer_1" xmlns="http://www.w3.org/2000/svg" viewBox="127.3 123.3 340.7 595.3"><style>.st0{fill:#9ad14b}.st1{fill:#90bc42}.st2{fill:#ffd7a5}.st3{fill:#f7b239}.st4{fill:#e09b2d}.st5{fill:#ffe6cd}</style><path class="st0" d="M173.6 252.4h21v81.8h-21z"/><path class="st1" d="M194.6 252.4v26.1c-3.4.6-6.9 1-10.5 1-3.6 0-7.1-.3-10.5-1v-26.1h21z"/><path class="st0" d="M400.7 252.4h21v81.8h-21z"/><path class="st1" d="M421.7 252.4v26.1c-3.4.6-6.9 1-10.5 1-3.6 0-7.1-.3-10.5-1v-26.1h21z"/><path class="st2" d="M354.4 148.6H240.9v84.5c0 31.4 25.4 56.8 56.8 56.8 31.3 0 56.8-25.4 56.8-56.8l-1.2-40.6 1.1-43.9z"/><path class="st0" d="M287.1 288.4h21v45.8h-21z"/><path class="st3" d="M411.2 322.1H138l47.5 155.3 12-10.9 104 252.1 163.6-396.5z"/><path class="st4" d="M210.8 455l-12.2-132.9H138l47.5 155.3"/><path class="st4" d="M346.3 342.4L197.5 466.5l11.3 27.3 92.7 224.8-41.7-284.7z"/><path class="st5" d="M354.4 207.8v25.3l-75-65.4 75-19.1v34.2zM468 123.3v84.5c0 31.4-25.4 56.8-56.8 56.8-31.3 0-56.8-25.4-56.8-56.8v-84.5H468zm-227.1 0v84.5c0 31.4-25.4 56.8-56.8 56.8s-56.8-25.4-56.8-56.8v-84.5h113.6z"/><path class="st1" d="M308.2 288.4v15.5c-3.4.6-6.9 1-10.5 1s-7.1-.3-10.5-1v-15.5h21z"/><path class="st2" d="M127.3 123.3v84.5c0 31.4 25.4 56.8 56.8 56.8 6.7 0 13.2-1.2 19.1-3.3-21.9-7.9-37.6-28.8-37.6-53.5v-64.4l75.3 39.4v-59.5H127.3z"/><path class="st5" d="M279.4 232.1v-64.4l-38.3-20.1v84.5c0 31.4 25.4 56.8 56.8 56.8 6.7 0 13.2-1.2 19.1-3.3-21.9-7.9-37.6-28.8-37.6-53.5z"/><path class="st2" d="M391.5 206.9v-43.6l76.5-40H354.4v58.9l-1.2.6v24.1c0 31.4 25.4 56.8 56.8 56.8 6.7 0 13.2-1.2 19.1-3.3-21.9-7.9-37.6-28.8-37.6-53.5z"/></svg>