<svg id="Capa_1" xmlns="http://www.w3.org/2000/svg" viewBox="98.8 123.4 397.7 595.2"><style>.st0{fill:#f3f0e0}.st1{fill:#e8b9ac}.st2{fill:#bc6190}.st3{fill:#3e2c3a}.st4{fill:#8d496c}</style><path class="st0" d="M477.6 501.2c-5.7-57.1-38.7-108.5-88.4-137.6-2.5-1.5-4.2-4-4.6-6.9-.4-2.9.5-5.8 2.5-7.9 21.6-22.8 33.5-52.7 33.5-84.1 0-67.5-54.9-122.4-122.4-122.4s-122.4 54.9-122.4 122.4c0 31.4 11.9 61.3 33.5 84.1 2 2.1 2.9 5 2.5 7.9-.4 2.9-2.1 5.4-4.6 6.9-55.1 32.3-89.3 91.9-89.3 155.7 0 99.4 80.9 180.3 180.3 180.3 93.1 0 170.2-69.8 179.4-162.3.5-5.1 5-8.9 10.2-8.5.2-3.2.2-6.3.2-9.5s-.1-6.4-.3-9.5c-5.1.3-9.6-3.5-10.1-8.6zM212.8 235.1c5.8-17.9 22.4-29.9 41.2-29.9.8 0 1.5 0 2.3.1 5-18.5 21.9-32.1 41.8-32.1 20 0 36.9 13.6 41.8 32.1.8 0 1.5-.1 2.3-.1 18.8 0 35.4 12 41.2 29.9 6.2 19-1.6 39.3-17.6 49.7 6.8 17.9 1.2 38.8-15 50.6-7.5 5.4-16.2 8.3-25.4 8.3-10 0-19.7-3.5-27.3-9.7-7.6 6.2-17.3 9.7-27.3 9.7-9.2 0-18-2.9-25.4-8.3-16.2-11.7-21.8-32.7-15-50.6-16-10.4-23.8-30.7-17.6-49.7zm195 315.3c14.4 29.5 5.9 66-21.4 85.9-11.8 8.6-25.8 13.2-40.4 13.2-17.9 0-35.2-7.1-47.9-19.4-12.7 12.3-29.9 19.3-47.9 19.4-14.6 0-28.6-4.6-40.4-13.2-27.4-19.9-35.8-56.5-21.4-85.9-28.9-15.4-43.6-49.9-33.2-82.1 9.3-28.5 35.6-47.6 65.5-47.6 3.2 0 6.4.2 9.6.7 5.7-32.3 34-56.9 67.8-56.9s62.1 24.6 67.8 56.9c3.2-.4 6.4-.7 9.6-.7 29.9 0 56.2 19.1 65.5 47.6 10.5 32.2-4.2 66.7-33.2 82.1z"/><path class="st1" d="M298.1 278.4c8.6 0 15.6-7 15.6-15.6s-7-15.6-15.6-15.6-15.6 7-15.6 15.6c.1 8.6 7 15.6 15.6 15.6z"/><path class="st2" d="M246.4 271.6c2.9.9 5.1 3.2 6.1 6.1.9 2.9.4 6-1.3 8.5-7.8 10.8-5.3 26 5.5 33.9 4.2 3 9.1 4.6 14.3 4.6 7.7 0 15.1-3.7 19.6-9.9 1.8-2.4 4.6-3.9 7.7-3.9s5.9 1.4 7.7 3.9c4.6 6.2 11.9 9.9 19.6 9.9 5.2 0 10.1-1.6 14.3-4.6 10.8-7.8 13.2-23 5.5-33.9-1.8-2.5-2.3-5.6-1.3-8.5.9-2.9 3.2-5.1 6.1-6.1 12.7-4.2 19.6-17.9 15.5-30.6-3.3-10.1-12.6-16.8-23.1-16.8-2.5 0-5 .4-7.4 1.2-2.9.9-6 .4-8.5-1.4-2.4-1.8-3.9-4.6-3.9-7.6-.1-13.3-11-24.2-24.3-24.2s-24.3 10.9-24.3 24.2c0 3-1.5 5.9-3.9 7.6-2.4 1.8-5.6 2.3-8.5 1.4-2.4-.8-4.9-1.2-7.4-1.2-10.6 0-19.9 6.8-23.1 16.8-4.6 12.7 2.4 26.4 15.1 30.6zm51.7-43.3c19.1 0 34.5 15.5 34.5 34.6s-15.5 34.5-34.5 34.5-34.5-15.5-34.5-34.5c0-19.1 15.5-34.6 34.5-34.6z"/><path class="st3" d="M298.1 297.4c19.1 0 34.5-15.5 34.5-34.5 0-19.1-15.5-34.6-34.5-34.6s-34.5 15.5-34.5 34.6c0 19 15.5 34.5 34.5 34.5zm0-50.1c8.6 0 15.6 7 15.6 15.6s-7 15.6-15.6 15.6-15.6-7-15.6-15.6c.1-8.6 7-15.6 15.6-15.6z"/><path class="st3" d="M230.4 284.8c-6.8 17.9-1.2 38.8 15 50.6 7.5 5.4 16.2 8.3 25.4 8.3 10 0 19.7-3.5 27.3-9.7 7.6 6.2 17.3 9.7 27.3 9.7 9.2 0 18-2.9 25.4-8.3 16.2-11.7 21.8-32.7 15-50.6 16-10.4 23.8-30.7 17.6-49.7-5.8-17.9-22.4-29.9-41.2-29.9-.8 0-1.5 0-2.3.1-5-18.5-21.9-32.1-41.8-32.1s-36.9 13.6-41.8 32.1c-.8 0-1.5-.1-2.3-.1-18.8 0-35.4 12-41.2 29.9-6.2 19 1.6 39.3 17.6 49.7zm.5-43.8c3.3-10.1 12.6-16.8 23.1-16.8 2.5 0 5 .4 7.4 1.2 2.9.9 6 .4 8.5-1.4 2.4-1.8 3.9-4.6 3.9-7.6.1-13.3 11-24.2 24.3-24.2s24.3 10.9 24.3 24.2c0 3 1.5 5.9 3.9 7.6 2.4 1.8 5.6 2.3 8.5 1.4 2.4-.8 4.9-1.2 7.4-1.2 10.6 0 19.9 6.8 23.1 16.8 4.1 12.7-2.8 26.4-15.5 30.6-2.9.9-5.1 3.2-6.1 6.1-.9 2.9-.4 6 1.3 8.5 7.8 10.8 5.3 26-5.5 33.9-4.2 3-9.1 4.6-14.3 4.6-7.7 0-15.1-3.7-19.6-9.9-1.8-2.4-4.6-3.9-7.7-3.9s-5.9 1.4-7.7 3.9c-4.6 6.2-11.9 9.9-19.6 9.9-5.2 0-10.1-1.6-14.3-4.6-10.8-7.8-13.2-23-5.5-33.9 1.8-2.5 2.3-5.6 1.3-8.5-.9-2.9-3.2-5.1-6.1-6.1-12.3-4.2-19.3-17.9-15.1-30.6z"/><path class="st1" d="M332.6 514.7c0-19-15.5-34.5-34.5-34.5s-34.5 15.5-34.5 34.5 15.5 34.5 34.5 34.5 34.5-15.5 34.5-34.5z"/><path class="st4" d="M422.9 474.2c-6.7-20.6-25.8-34.5-47.4-34.5-5.1 0-10.2.8-15.2 2.4-2.9.9-6 .4-8.5-1.4-2.4-1.8-3.9-4.6-3.9-7.6-.1-27.4-22.5-49.6-49.9-49.6s-49.7 22.3-49.9 49.6c0 3-1.5 5.9-3.9 7.6-2.4 1.8-5.6 2.3-8.5 1.4-4.9-1.6-10-2.4-15.2-2.4-21.7 0-40.7 13.9-47.4 34.5-8.5 26 5.8 54.2 31.8 62.8 2.9.9 5.1 3.2 6.1 6.1.9 2.9.4 6-1.3 8.5-16 22.2-10.9 53.4 11.2 69.4 8.6 6.2 18.7 9.5 29.3 9.5 15.8 0 30.9-7.6 40.2-20.3 1.8-2.4 4.6-3.9 7.7-3.9s5.9 1.4 7.7 3.9c9.4 12.7 24.4 20.3 40.2 20.3 10.6 0 20.7-3.3 29.3-9.5 22.1-16.1 27.1-47.2 11.2-69.4-1.8-2.5-2.3-5.6-1.3-8.5.9-2.9 3.2-5.1 6.1-6.1 25.8-8.7 40.1-36.8 31.6-62.8zm-71.3 40.5c0 2.4-.2 4.9-.5 7.2l9.9 3.2c5 1.6 7.7 7 6.1 12-1.3 4-5 6.6-9 6.6-1 0-2-.2-2.9-.5l-9.9-3.2c-2.3 4.3-5.2 8.2-8.5 11.7l6.1 8.4c3.1 4.2 2.1 10.2-2.1 13.3-1.7 1.2-3.6 1.8-5.6 1.8-2.9 0-5.8-1.4-7.7-3.9l-6.1-8.4c-4.3 2.1-8.9 3.6-13.7 4.5v10.4c0 5.2-4.3 9.5-9.5 9.5s-9.5-4.3-9.5-9.5v-10.4c-4.8-.9-9.4-2.4-13.7-4.5l-6.1 8.4c-1.9 2.6-4.8 3.9-7.7 3.9-1.9 0-3.9-.6-5.6-1.8-4.2-3.1-5.2-9-2.1-13.3l6.1-8.4c-3.3-3.5-6.2-7.4-8.5-11.7l-9.9 3.2c-1 .3-2 .5-2.9.5-4 0-7.7-2.6-9-6.6-1.6-5 1.1-10.3 6.1-12l9.9-3.2c-.3-2.4-.5-4.8-.5-7.2 0-2.4.2-4.9.5-7.2l-9.9-3.2c-5-1.6-7.7-7-6.1-12 1.6-5 7-7.7 12-6.1l9.9 3.2c2.3-4.3 5.2-8.2 8.5-11.7l-6.1-8.4c-3.1-4.2-2.1-10.2 2.1-13.3 4.2-3.1 10.2-2.1 13.3 2.1l6.1 8.4c4.3-2.1 8.9-3.6 13.7-4.5v-10.4c0-5.2 4.3-9.5 9.5-9.5s9.5 4.3 9.5 9.5V462c4.8.9 9.4 2.4 13.7 4.5l6.1-8.4c3.1-4.2 9-5.2 13.3-2.1 4.2 3.1 5.2 9 2.1 13.3l-6.1 8.4c3.3 3.5 6.2 7.4 8.5 11.7l9.9-3.2c5-1.6 10.3 1.1 12 6.1 1.6 5-1.1 10.3-6.1 12l-9.9 3.2c.1 2.4.3 4.8.3 7.2z"/><path class="st3" d="M375.5 420.7c-3.2 0-6.4.2-9.6.7-5.7-32.3-34-56.9-67.8-56.9s-62.1 24.6-67.8 56.9c-3.2-.4-6.4-.7-9.6-.7-29.9 0-56.2 19.1-65.5 47.6-10.5 32.2 4.2 66.7 33.2 82.1-14.4 29.5-5.9 66 21.4 85.9 11.8 8.6 25.8 13.2 40.4 13.2 17.9 0 35.2-7.1 47.9-19.4 12.7 12.3 29.9 19.4 47.9 19.4 14.6 0 28.6-4.5 40.4-13.2 27.4-19.9 35.8-56.5 21.4-85.9 28.9-15.4 43.6-49.9 33.2-82.1-9.2-28.5-35.6-47.6-65.5-47.6zm15.7 116.2c-2.9.9-5.1 3.2-6.1 6.1-.9 2.9-.4 6 1.3 8.5 16 22.2 10.9 53.4-11.2 69.4-8.6 6.2-18.7 9.5-29.3 9.5-15.8 0-30.9-7.6-40.2-20.3-1.8-2.4-4.6-3.9-7.7-3.9-3 0-5.9 1.4-7.7 3.9-9.4 12.7-24.4 20.3-40.2 20.3-10.6 0-20.7-3.3-29.3-9.5-22.1-16.1-27.1-47.2-11.2-69.4 1.8-2.5 2.3-5.6 1.3-8.5-.9-2.9-3.2-5.1-6.1-6.1-26-8.6-40.2-36.7-31.8-62.8 6.7-20.6 25.8-34.5 47.4-34.5 5.1 0 10.2.8 15.2 2.4 2.9.9 6 .4 8.5-1.4 2.4-1.8 3.9-4.6 3.9-7.6.1-27.4 22.5-49.6 49.9-49.6 27.3 0 49.7 22.3 49.9 49.6 0 3 1.5 5.9 3.9 7.6 2.4 1.8 5.6 2.3 8.5 1.4 4.9-1.6 10-2.4 15.2-2.4 21.7 0 40.7 13.9 47.4 34.5 8.6 26.1-5.7 54.2-31.6 62.8z"/><path class="st3" d="M367 492.4c-1.6-5-7-7.7-12-6.1l-9.9 3.2c-2.3-4.3-5.2-8.2-8.5-11.7l6.1-8.4c3.1-4.2 2.1-10.2-2.1-13.3-4.2-3.1-10.2-2.1-13.3 2.1l-6.1 8.4c-4.3-2.1-8.9-3.6-13.7-4.5v-10.4c0-5.2-4.3-9.5-9.5-9.5s-9.5 4.3-9.5 9.5v10.4c-4.8.9-9.4 2.4-13.7 4.5l-6.1-8.4c-3.1-4.2-9-5.2-13.3-2.1-4.2 3.1-5.2 9-2.1 13.3l6.1 8.4c-3.3 3.5-6.2 7.4-8.5 11.7l-9.9-3.2c-5-1.6-10.3 1.1-12 6.1-1.6 5 1.1 10.3 6.1 12l9.9 3.2c-.3 2.4-.5 4.8-.5 7.2 0 2.4.2 4.9.5 7.2l-9.9 3.2c-5 1.6-7.7 7-6.1 12 1.3 4 5 6.6 9 6.6 1 0 2-.2 2.9-.5l9.9-3.2c2.3 4.3 5.2 8.2 8.5 11.7l-6.1 8.4c-3.1 4.2-2.1 10.2 2.1 13.3 1.7 1.2 3.6 1.8 5.6 1.8 2.9 0 5.8-1.4 7.7-3.9l6.1-8.4c4.3 2.1 8.9 3.6 13.7 4.5v10.4c0 5.2 4.3 9.5 9.5 9.5s9.5-4.3 9.5-9.5v-10.4c4.8-.9 9.4-2.4 13.7-4.5l6.1 8.4c1.9 2.6 4.8 3.9 7.7 3.9 1.9 0 3.9-.6 5.6-1.8 4.2-3.1 5.2-9 2.1-13.3l-6.1-8.4c3.3-3.5 6.2-7.4 8.5-11.7l9.9 3.2c1 .3 2 .5 2.9.5 4 0 7.7-2.6 9-6.6 1.6-5-1.1-10.3-6.1-12l-9.9-3.2c.3-2.4.5-4.8.5-7.2 0-2.4-.2-4.9-.5-7.2l9.9-3.2c5.2-1.7 7.9-7.1 6.3-12zm-68.9 56.8c-19 0-34.5-15.5-34.5-34.5s15.5-34.5 34.5-34.5 34.5 15.5 34.5 34.5-15.5 34.5-34.5 34.5z"/><path class="st3" d="M487.9 528.8h-.2c-5.1-.4-9.6 3.4-10.2 8.5-9.2 92.5-86.3 162.3-179.4 162.3-99.4 0-180.3-80.9-180.3-180.3 0-63.7 34.2-123.4 89.3-155.7 2.5-1.5 4.2-4 4.6-6.9.4-2.9-.5-5.8-2.5-7.9-21.6-22.8-33.5-52.7-33.5-84.1 0-67.5 54.9-122.4 122.4-122.4s122.4 54.9 122.4 122.4c0 31.4-11.9 61.3-33.5 84.1-2 2.1-2.9 5-2.5 7.9.4 2.9 2.1 5.4 4.6 6.9 49.7 29.1 82.7 80.6 88.4 137.6.5 5.1 5 8.9 10.1 8.5h.3c5.2-.5 9-5.2 8.5-10.4-5.9-59.3-38.5-113.1-88-146.1 20.1-25 31.1-56.1 31.1-88.5 0-78-63.4-141.4-141.4-141.4s-141.4 63.4-141.4 141.4c0 32.4 11 63.4 31.1 88.5-25.2 16.8-46.4 39.2-61.8 65.4-17.8 30.4-27.2 65.2-27.2 100.6 0 109.9 89.4 199.3 199.3 199.3 49.8 0 97.4-18.4 134.2-51.9 36.5-33.3 59.3-78.5 64.2-127.5.5-5.1-3.3-9.8-8.6-10.3z"/></svg>