<svg id="Capa_1" xmlns="http://www.w3.org/2000/svg" viewBox="112.9 123.9 369.5 594.7"><style>.st0{fill:#d2504b}.st1{fill:#be3c3c}.st2{fill:#e88470}.st3{fill:#73aa82}.st4{fill:#be6e4b}.st5{fill:#ffe6d2}.st6{fill:#d2875a}.st7{fill:#ffd7b4}</style><path class="st0" d="M246.3 246.5c0 .6 0 1.2-.1 1.8 3.2-1.1 6.7-1.8 10.3-1.8 17 0 30.8 13.8 30.8 30.8 0 3.6-.6 7.1-1.8 10.3.6 0 1.2-.1 1.8-.1 3.6 0 7.1.6 10.3 1.8 3.2-1.1 6.7-1.8 10.3-1.8.6 0 1.2 0 1.8.1-1.1-3.2-1.8-6.7-1.8-10.3 0-17 13.8-30.8 30.8-30.8 3.6 0 7.1.6 10.3 1.8 0-.6-.1-1.2-.1-1.8 0-13 8.1-24.1 19.4-28.6-3.6-13.1-15.5-22.7-29.7-22.7-4.7 0-9.2 1.1-13.3 3 1.9-4 3-8.5 3-13.3 0-17-13.8-30.8-30.8-30.8s-30.8 13.8-30.8 30.8c0 4.7 1.1 9.2 3 13.3-4-1.9-8.5-3-13.3-3-14.2 0-26.2 9.6-29.7 22.7 11.6 4.5 19.6 15.6 19.6 28.6zm51.3-51.4c17 0 30.8 13.8 30.8 30.8s-13.8 30.8-30.8 30.8-30.8-13.8-30.8-30.8 13.8-30.8 30.8-30.8z"/><circle class="st1" cx="297.6" cy="225.9" r="30.8"/><path class="st2" d="M151.5 338.8c-4.9-5.4-7.8-12.6-7.8-20.5 0-17 13.8-30.8 30.8-30.8 4.7 0 9.2 1.1 13.3 3-1.9-4-3-8.5-3-13.3 0-17 13.8-30.8 30.8-30.8s30.8 13.8 30.8 30.8c0 4.7-1.1 9.2-3 13.3 4-1.9 8.5-3 13.3-3 10.7 0 20.1 5.5 25.7 13.8-3.2 4.9-5.1 10.7-5.1 17s1.9 12.1 5.1 17c-.8 1.2-1.7 2.4-2.7 3.5h36.2c-4.9-5.4-7.8-12.6-7.8-20.5 0-17 13.8-30.8 30.8-30.8 4.7 0 9.2 1.1 13.3 3-1.9-4-3-8.5-3-13.3 0-17 13.8-30.8 30.8-30.8s30.8 13.8 30.8 30.8c0 4.7-1.1 9.2-3 13.3 4-1.9 8.5-3 13.3-3 17 0 30.8 13.8 30.8 30.8 0 7.9-3 15.1-7.8 20.5H470c1.5 0 2.8.3 4.1.8 5.3-5.5 8.6-13.1 8.6-21.4 0-17-13.8-30.8-30.8-30.8-.6 0-1.2 0-1.8.1 1.1-3.2 1.8-6.7 1.8-10.3 0-17-13.8-30.8-30.8-30.8-3.6 0-7.1.6-10.3 1.8 0-.6.1-1.2.1-1.8 0-9.2-4-17.4-10.4-23-1.3-15.8-14.5-28.3-30.7-28.3-.6 0-1.2 0-1.8.1 1.1-3.2 1.8-6.7 1.8-10.3 0-17-13.8-30.8-30.8-30.8-3.6 0-7.1.6-10.3 1.8 0-.6.1-1.2.1-1.8 0-17-13.8-30.8-30.8-30.8s-30.8 13.8-30.8 30.8c0 .6 0 1.2.1 1.8-3.2-1.1-6.7-1.8-10.3-1.8-17 0-30.8 13.8-30.8 30.8 0 3.6.6 7.1 1.8 10.3-.6 0-1.2-.1-1.8-.1-16.2 0-29.4 12.4-30.7 28.3-6.4 5.6-10.4 13.9-10.4 23 0 .6 0 1.2.1 1.8-3.2-1.1-6.7-1.8-10.3-1.8-17 0-30.8 13.8-30.8 30.8 0 3.6.6 7.1 1.8 10.3-.6 0-1.2-.1-1.8-.1-17 0-30.8 13.8-30.8 30.8 0 8.3 3.3 15.8 8.6 21.4 1.2-.5 2.6-.8 4.1-.8h25.5zm105.1-143.7c4.7 0 9.2 1.1 13.3 3-1.9-4-3-8.5-3-13.3 0-17 13.8-30.8 30.8-30.8s30.8 13.8 30.8 30.8c0 4.7-1.1 9.2-3 13.3 4-1.9 8.5-3 13.3-3 14.2 0 26.2 9.6 29.7 22.7-11.4 4.5-19.4 15.6-19.4 28.6 0 .6 0 1.2.1 1.8-3.2-1.1-6.7-1.8-10.3-1.8-17 0-30.8 13.8-30.8 30.8 0 3.6.6 7.1 1.8 10.3-.6 0-1.2-.1-1.8-.1-3.6 0-7.1.6-10.3 1.8-3.2-1.1-6.7-1.8-10.3-1.8-.6 0-1.2 0-1.8.1 1.1-3.2 1.8-6.7 1.8-10.3 0-17-13.8-30.8-30.8-30.8-3.6 0-7.1.6-10.3 1.8 0-.6.1-1.2.1-1.8 0-13-8.1-24.1-19.4-28.6 3.3-13 15.3-22.7 29.5-22.7z"/><path class="st0" d="M277.1 318.3c0-6.3 1.9-12.1 5.1-17-5.5-8.3-14.9-13.8-25.7-13.8-4.7 0-9.2 1.1-13.3 3 1.9-4 3-8.5 3-13.3 0-17-13.8-30.8-30.8-30.8s-30.8 13.8-30.8 30.8c0 4.7 1.1 9.2 3 13.3-4-1.9-8.5-3-13.3-3-17 0-30.8 13.8-30.8 30.8 0 7.9 3 15.1 7.8 20.5h41.1c-4.9-5.4-7.8-12.6-7.8-20.5 0-17 13.8-30.8 30.8-30.8s30.8 13.8 30.8 30.8c0 7.9-3 15.1-7.8 20.5h41.1c1-1.1 1.9-2.3 2.7-3.5-3.2-4.8-5.1-10.7-5.1-17z"/><path class="st1" d="M246.3 318.3c0-17-13.8-30.8-30.8-30.8s-30.8 13.8-30.8 30.8c0 7.9 3 15.1 7.8 20.5h45.9c5-5.4 7.9-12.6 7.9-20.5z"/><path class="st0" d="M420.8 287.5c-4.7 0-9.2 1.1-13.3 3 1.9-4 3-8.5 3-13.3 0-17-13.8-30.8-30.8-30.8s-30.8 13.8-30.8 30.8c0 4.7 1.1 9.2 3 13.3-4-1.9-8.5-3-13.3-3-17 0-30.8 13.8-30.8 30.8 0 7.9 3 15.1 7.8 20.5h41.1c-4.9-5.4-7.8-12.6-7.8-20.5 0-17 13.8-30.8 30.8-30.8s30.8 13.8 30.8 30.8c0 7.9-3 15.1-7.8 20.5h41.1c4.9-5.4 7.8-12.6 7.8-20.5 0-17-13.8-30.8-30.8-30.8z"/><path class="st1" d="M410.5 318.3c0-17-13.8-30.8-30.8-30.8s-30.8 13.8-30.8 30.8c0 7.9 3 15.1 7.8 20.5h45.9c5-5.4 7.9-12.6 7.9-20.5z"/><path class="st3" d="M287.4 708.3c0 5.7 4.6 10.3 10.3 10.3S308 714 308 708.3V657h-20.5v51.3z"/><path class="st4" d="M277.1 533.8v10.3l20.5-10.3h-20.5zm0 51.4l41.1-20.6v-20.5l-41.1 20.5zm0 41l41.1-20.5v-20.5l-41.1 20.5zm0 20.5c0 5.7 4.6 10.3 10.3 10.3h20.5c5.7 0 10.3-4.6 10.3-10.3v-20.5l-41.1 20.5z"/><path class="st5" d="M473.8 339.7c-1.2-.5-2.6-.8-4.1-.8H236l61.6 195h20.5L477.3 356c5-5.6 2.5-13.7-3.5-16.3z"/><path class="st6" d="M277.1 646.7l41.1-20.5v-20.5l-41.1 20.5zm0-41l41.1-20.5v-20.6l-41.1 20.6zm0-61.6v20.5l41.1-20.5v-10.3h-20.5l-20.6 10.3z"/><path class="st7" d="M236.1 338.8H125.6c-1.5 0-2.8.3-4.1.8-6.1 2.6-8.5 10.8-3.6 16.3l159.2 177.9h20.5l-61.5-195z"/></svg>