<svg id="Layer_1" xmlns="http://www.w3.org/2000/svg" viewBox="0 123.3 595.3 595.3"><style>.st0{fill:#bf392c}.st1{fill:#efc75e}.st2{fill:#d7b354}.st3{fill:#ac3327}</style><path class="st0" d="M495.2 161c-11.5-23.6-35.4-37.7-63.9-37.7-65 0-111.1 70.2-133.7 114.5-22.7-44.3-68.7-114.1-133.5-114.1-41.1 0-71 29.3-71 69.1 0 70.5 67.2 116.5 202.4 116.5s206.8-59.1 206.8-115.9c-.1-11.3-2.2-22.4-7.1-32.4zm-319.7 70c-19.7-11.8-26.7-24.9-26.7-33.4 0-10.8 11.5-18.6 27.3-18.6 38.1 0 86.8 62.6 103.2 93.2-43.9-3.3-88.8-32.3-103.8-41.2zm268.3-23.4c-9.9 19.9-62.1 59.7-127.4 64.5 16.5-30.6 65.3-93.2 102.8-93.2 14.5 0 22.8 6.3 25.7 12.2 2.4 4.7 2 10.3-1.1 16.5z"/><path class="st1" d="M595.2 309.4H0v148.8h18.6v260.4h558V458.2h18.6V309.4z"/><path class="st2" d="M18.6 458.2h558v37.2h-558v-37.2z"/><path class="st0" d="M260.4 309.4h74.4v409.2h-74.4V309.4z"/><path class="st3" d="M260.4 458.2h74.4v37.2h-74.4z"/></svg>