<svg id="Capa_1" xmlns="http://www.w3.org/2000/svg" viewBox="0 133.4 595.3 575.1"><style>.st0{fill:#82c888}.st1{fill:#73aa82}.st2{fill:#e88470}.st3{fill:#d2504b}.st4{fill:#be3c3c}.st5{fill:#823c41}.st6{fill:#ffb996}.st7{fill:#ffe6d2}.st8{fill:#ffd7b4}</style><path class="st0" d="M276.1 393.6l-11-20c-1.5-2.7-.5-6.1 2.2-7.6s6.1-.5 7.6 2.2l12.7 22.9h.3c13.4 0 24.7 8.8 28.4 20.9 3.8-1.9 7.9-2.9 12.1-3.1-1.8-4.3-3.8-8.5-6.1-12.7-16.7-30.3-43.1-50.2-68.5-54.7-7.8 19.1-7.5 44 1.4 68.7 1.5.5 2.9 1 4.3 1.7 2.6-8.1 8.7-14.9 16.6-18.3z"/><path class="st1" d="M274.9 368.3c-1.5-2.7-4.9-3.7-7.6-2.2-2.7 1.5-3.7 4.9-2.2 7.6l11 20c3.5-1.5 7.4-2.4 11.4-2.4l-12.6-23z"/><path class="st0" d="M53.3 419.2l-32-21c-2.2-1.4-2.8-4.4-1.4-6.6 1.4-2.2 4.4-2.8 6.6-1.4L71.8 420c4.2-10.6 14.2-18.2 26.1-18.8l-14-22.8c-1.4-2.2-.7-5.2 1.6-6.6 2.2-1.4 5.2-.7 6.6 1.6l11.1 18.1c.9-1.3 1.9-2.5 3-3.6 4.4-4.4 9.9-7.2 15.6-8.2-14.3-16-32-26-48.8-28.1-4.1 11.5-4.7 25.3-1.9 39.6-24.1-15-50.9-19-71.1-12.6 1.9 18.8 13.4 39.1 32.4 54.7 1.2-2 2.7-3.9 4.4-5.7 4.6-4.7 10.4-7.5 16.5-8.4z"/><path class="st1" d="M26.5 390.3c-2.2-1.4-5.2-.8-6.6 1.4-1.4 2.2-.8 5.2 1.4 6.6l32 21c6-.9 12.2 0 17.8 2.8.2-.7.5-1.3.7-2l-45.3-29.8zm76.7 1.2L92 373.4c-1.4-2.2-4.3-2.9-6.6-1.6-2.2 1.4-2.9 4.3-1.6 6.6l14 22.8h.6c1.1-3.5 2.6-6.7 4.8-9.7zm470.8 6.7c2.2-1.4 2.8-4.4 1.4-6.6-1.4-2.2-4.4-2.8-6.6-1.4l-44.6 29.3c3.7.8 7.3 2.3 10.6 4.5l39.2-25.8z"/><path class="st0" d="M477.3 401.1c2.8.1 5.5.6 8.1 1.4l17.9-29.1c1.4-2.2 4.3-2.9 6.6-1.6 2.2 1.4 2.9 4.3 1.6 6.6L494 406.9c5.1 3.7 8.9 9 10.8 15.2 6.1-3 12.9-3.9 19.4-2.5l44.6-29.3c2.2-1.4 5.2-.8 6.6 1.4 1.4 2.2.8 5.2-1.4 6.6L534.7 424c1.5 1 3 2.2 4.4 3.6 4.6 4.6 7.4 10.4 8.3 16.3 2-1.1 3.9-2.3 5.8-3.6 24.7-16.2 39.9-40 42.1-61.9-20.3-6.5-47-2.4-71.1 12.6 2.9-14.3 2.2-28-1.9-39.6-19.1 2.5-39.3 14.9-54.4 34.9.6.5 1.2 1 1.7 1.6 3.8 3.8 6.3 8.4 7.7 13.2z"/><path class="st1" d="M511.4 378.4c1.4-2.2.7-5.2-1.6-6.6-2.2-1.4-5.2-.7-6.6 1.6l-17.9 29.1c3.1 1 6 2.5 8.5 4.3l17.6-28.4z"/><path class="st2" d="M534.7 424c-3.3-2.2-6.8-3.7-10.6-4.5-6.5-1.4-13.4-.5-19.4 2.5.9 2.8 1.3 5.7 1.3 8.8 0 9.2-4.1 24.7-10.6 36.7 1.3 1.1 2.6 2.3 3.7 3.7 12-6.5 27.6-10.6 36.7-10.6 3.1 0 6 .5 8.8 1.3 2.8-5.6 3.7-11.9 2.8-18-1-6-3.7-11.7-8.3-16.3-1.4-1.3-2.9-2.5-4.4-3.6z"/><path class="st3" d="M499.1 471.2c4.3 5.2 7 11.8 7 19.1h59.5c0-13.4-8.8-24.7-20.9-28.4-2.8-.9-5.7-1.3-8.8-1.3-9.3 0-24.8 4.1-36.8 10.6z"/><path class="st4" d="M499.1 471.2c-1.1-1.3-2.3-2.6-3.7-3.7-1-.8-2-1.6-3.1-2.3-2.8 4.9-6.9 8.9-11.8 11.6 5.7 1.8 9.9 7.1 9.9 13.5H506c0-7.2-2.6-13.9-6.9-19.1z"/><path class="st5" d="M480.5 476.9c-1.7.9-3.4 1.6-5.2 2.2 1.8 3.6 2.8 7.4 3.1 11.3h12.1c-.1-6.4-4.3-11.7-10-13.5z"/><path class="st2" d="M76.7 471.2c1.1-1.3 2.3-2.6 3.7-3.7-6.5-12-10.6-27.6-10.6-36.7 0-3.1.5-6.1 1.4-8.9-5.6-2.8-11.8-3.7-17.8-2.8-6 .9-11.8 3.7-16.5 8.3-1.7 1.7-3.2 3.7-4.4 5.7-5.3 8.8-5.7 19.6-1.1 28.7 2.8-.8 5.7-1.3 8.7-1.3 9 .1 24.6 4.2 36.6 10.7z"/><path class="st3" d="M76.7 471.2c-12-6.5-27.6-10.6-36.7-10.6-3 0-6 .5-8.7 1.3-12.2 3.7-21 15.1-21 28.4h59.5c-.1-7.2 2.5-13.9 6.9-19.1z"/><path class="st4" d="M95.3 476.9c-5-2.7-9.1-6.7-11.8-11.6-1.1.7-2.1 1.5-3.1 2.3-1.3 1.1-2.6 2.3-3.7 3.7-4.3 5.2-7 11.8-7 19.1h15.7c0-6.4 4.1-11.7 9.9-13.5z"/><path class="st5" d="M100.5 479.1c-1.8-.6-3.5-1.3-5.2-2.2-5.7 1.8-9.9 7.1-9.9 13.5h12c.2-3.9 1.3-7.8 3.1-11.3z"/><path class="st6" d="M149 369v-77c0-76.6 62.3-138.8 138.8-138.8S426.7 215.5 426.7 292v77c4 3.6 7 8.1 8.6 13.4 3.5-1.8 7.4-2.8 11.2-3.1V292c0-87.5-71.2-158.7-158.7-158.7S129.2 204.5 129.2 292v87.2c3.9.3 7.7 1.3 11.3 3 1.6-5.1 4.6-9.6 8.5-13.2z"/><path class="st7" d="M565.5 490.4h-87.3c.5 6.9-1.4 14-5.8 19.8h43.4c5.5 0 9.9 4.4 9.9 9.9s-4.4 9.9-9.9 9.9h-59.5c-4.8 0-8.8-3.4-9.7-7.9-3.9-.3-7.8-1.3-11.5-3.1-3.8 12.1-15.1 20.9-28.4 20.9-13.4 0-24.7-8.8-28.4-21-3.6 1.8-7.5 2.8-11.4 3.1-.8 4.2-4.3 7.4-8.7 7.9-1.3 4.9-3.8 9.5-7.7 13.3-3 3-6.4 5.1-10 6.6H397c5.5 0 9.9 4.4 9.9 9.9s-4.4 9.9-9.9 9.9h-59.5c-5.5 0-9.9-4.4-9.9-9.9 0-3.2 1.5-6.1 3.9-7.9-5.2.3-10.4-.7-15.2-3.1-1.7 5.4-4.8 10.1-9 13.6-1.2 4.2-5 7.3-9.5 7.3H278c-4.6 0-8.4-3.1-9.5-7.3-4.2-3.6-7.3-8.3-9-13.7-4.8 2.4-10 3.4-15.2 3.1 2.4 1.8 4 4.7 4 8 0 5.5-4.4 9.9-9.9 9.9h-59.5c-5.5 0-9.9-4.4-9.9-9.9s4.4-9.9 9.9-9.9h56.4c-3.7-1.5-7.2-3.7-10.2-6.7-5.9-5.9-8.8-13.7-8.7-21.5-2.6.5-5.3.6-8 .4-.9 4.5-4.9 7.9-9.7 7.9H191c-5.4 6.1-13.4 9.9-22.2 9.9-8.8 0-16.7-3.8-22.2-9.9H139c-4.8 0-8.8-3.4-9.7-8-7.5.6-15.1-1.6-21.2-6.6.7 1.4 1.2 3 1.2 4.7 0 5.5-4.4 9.9-9.9 9.9H79.6c-5.5 0-9.9-4.4-9.9-9.9s4.4-9.9 9.9-9.9h19.8c1.7 0 3.3.4 4.6 1.2-5-6-7.2-13.6-6.7-21H.3l7.5 27.4-2.1-7.5H40c5.5 0 9.9 4.4 9.9 9.9S45.5 530 40 530H11.1l19 69.8-2.8-10.3H40c5.5 0 9.9 4.4 9.9 9.9s-4.4 9.9-9.9 9.9h-7.2l5.4 19.8h41.5c5.5 0 9.9 4.4 9.9 9.9s-4.4 9.9-9.9 9.9H43.6l-3.9-14.4 14.2 52c3.5 12.9 15.3 21.9 28.7 21.9h410.7c13.4 0 25.2-9 28.7-21.9l14.2-52-3.9 14.4h-36.1c-5.5 0-9.9-4.4-9.9-9.9s4.4-9.9 9.9-9.9h41.5l27-99.2h-9c-5.5 0-9.9-4.4-9.9-9.9s4.4-9.9 9.9-9.9H570l-2.1 7.5 7.5-27.4-9.9.2zm-128.9 59.5h19.8c5.5 0 9.9 4.4 9.9 9.9s-4.4 9.9-9.9 9.9h-19.8c-5.5 0-9.9-4.4-9.9-9.9s4.4-9.9 9.9-9.9zM397 589.5h19.8c5.5 0 9.9 4.4 9.9 9.9s-4.4 9.9-9.9 9.9H397c-5.5 0-9.9-4.4-9.9-9.9s4.4-9.9 9.9-9.9zm9.9 49.6c0 5.5-4.4 9.9-9.9 9.9h-59.5c-5.5 0-9.9-4.4-9.9-9.9s4.4-9.9 9.9-9.9H397c5.4 0 9.9 4.4 9.9 9.9zm-109.1-49.6h59.5c5.5 0 9.9 4.4 9.9 9.9s-4.4 9.9-9.9 9.9h-59.5c-5.5 0-9.9-4.4-9.9-9.9s4.4-9.9 9.9-9.9zm-59.5 0h19.8c5.5 0 9.9 4.4 9.9 9.9s-4.4 9.9-9.9 9.9h-19.8c-5.5 0-9.9-4.4-9.9-9.9s4.4-9.9 9.9-9.9zm9.9 49.6c0 5.5-4.4 9.9-9.9 9.9h-59.5c-5.5 0-9.9-4.4-9.9-9.9s4.4-9.9 9.9-9.9h59.5c5.5 0 9.9 4.4 9.9 9.9zm-49.6-49.6c5.5 0 9.9 4.4 9.9 9.9s-4.4 9.9-9.9 9.9h-59.5c-5.5 0-9.9-4.4-9.9-9.9s4.4-9.9 9.9-9.9h59.5zm-79.3-39.6h19.8c5.5 0 9.9 4.4 9.9 9.9s-4.4 9.9-9.9 9.9h-19.8c-5.5 0-9.9-4.4-9.9-9.9s4.4-9.9 9.9-9.9zm-97.4 19.8l-5.2-19.1c1.1-.4 2.2-.7 3.4-.7h59.5c5.5 0 9.9 4.4 9.9 9.9s-4.4 9.9-9.9 9.9H21.9zm57.7 39.7c-5.5 0-9.9-4.4-9.9-9.9s4.4-9.9 9.9-9.9h19.8c5.5 0 9.9 4.4 9.9 9.9s-4.4 9.9-9.9 9.9H79.6zm19.9 79.3H79.6c-5.5 0-9.9-4.4-9.9-9.9s4.4-9.9 9.9-9.9h19.8c5.5 0 9.9 4.4 9.9 9.9.1 5.4-4.4 9.9-9.8 9.9zm9.9-49.6c0-5.5 4.4-9.9 9.9-9.9h19.8c5.5 0 9.9 4.4 9.9 9.9s-4.4 9.9-9.9 9.9h-19.8c-5.5 0-9.9-4.4-9.9-9.9zm89.2 49.6h-59.5c-5.5 0-9.9-4.4-9.9-9.9s4.4-9.9 9.9-9.9h59.5c5.5 0 9.9 4.4 9.9 9.9 0 5.4-4.4 9.9-9.9 9.9zm59.5 0h-19.8c-5.5 0-9.9-4.4-9.9-9.9s4.4-9.9 9.9-9.9h19.8c5.5 0 9.9 4.4 9.9 9.9 0 5.4-4.4 9.9-9.9 9.9zm9.9-49.6c0-5.5 4.4-9.9 9.9-9.9h19.8c5.5 0 9.9 4.4 9.9 9.9s-4.4 9.9-9.9 9.9H278c-5.5 0-10-4.4-10-9.9zm89.3 49.6h-59.5c-5.5 0-9.9-4.4-9.9-9.9s4.4-9.9 9.9-9.9h59.5c5.5 0 9.9 4.4 9.9 9.9 0 5.4-4.4 9.9-9.9 9.9zm59.5 0H397c-5.5 0-9.9-4.4-9.9-9.9s4.4-9.9 9.9-9.9h19.8c5.5 0 9.9 4.4 9.9 9.9 0 5.4-4.4 9.9-9.9 9.9zm9.9-49.6c0-5.5 4.4-9.9 9.9-9.9h19.8c5.5 0 9.9 4.4 9.9 9.9s-4.4 9.9-9.9 9.9h-19.8c-5.5 0-9.9-4.4-9.9-9.9zm89.2 29.8c4.1 0 7.7 2.5 9.1 6.1l-3.1 11.5c-1.7 1.3-3.7 2.2-6 2.2h-59.5c-5.5 0-9.9-4.4-9.9-9.9s4.4-9.9 9.9-9.9h59.5zm0-59.5h-59.5c-5.5 0-9.9-4.4-9.9-9.9s4.4-9.9 9.9-9.9h59.5c5.5 0 9.9 4.4 9.9 9.9s-4.4 9.9-9.9 9.9zm39.7-59.5c1.2 0 2.3.3 3.4.7l-5.2 19.1h-57.7c-5.5 0-9.9-4.4-9.9-9.9s4.4-9.9 9.9-9.9h59.5z"/><path class="st8" d="M191 530h7.6c4.8 0 8.8-3.4 9.7-7.9-3.8-.3-7.6-1.3-11.1-3.1-1.2 4.2-3.3 7.9-6.2 11zm-61.6-8c.9 4.5 4.9 8 9.7 8h7.6c-2.8-3.2-5-6.9-6.3-11.1-3.4 1.8-7.2 2.8-11 3.1z"/><path class="st6" d="M104.1 511.3c-1.4-.7-3-1.2-4.6-1.2H79.6c-5.5 0-9.9 4.4-9.9 9.9s4.4 9.9 9.9 9.9h19.8c5.5 0 9.9-4.4 9.9-9.9 0-1.7-.4-3.3-1.2-4.7-.8-.6-1.5-1.3-2.2-2-.6-.5-1.2-1.2-1.8-2z"/><path class="st8" d="M359.4 521.6c.1 2.8-.3 5.6-1 8.3 4.3-.5 7.8-3.7 8.7-7.9-2.6.2-5.2.1-7.7-.4zm87.3.5c.9 4.5 4.9 7.9 9.7 7.9h59.5c5.5 0 9.9-4.4 9.9-9.9s-4.4-9.9-9.9-9.9h-43.4c-.9 1.2-1.8 2.3-2.8 3.3-6.3 6.3-14.7 9.2-23 8.6zm-267.9 27.8c-5.5 0-9.9 4.4-9.9 9.9s4.4 9.9 9.9 9.9h59.5c5.5 0 9.9-4.4 9.9-9.9 0-3.3-1.6-6.1-4-8-3.1-.2-6.1-.8-9-2h-56.4z"/><path class="st6" d="M109.4 559.8c0 5.5 4.4 9.9 9.9 9.9h19.8c5.5 0 9.9-4.4 9.9-9.9s-4.4-9.9-9.9-9.9h-19.8c-5.5 0-9.9 4.4-9.9 9.9zm188.4 9.9c4.6 0 8.4-3.1 9.5-7.3-5.2 4.5-12 7.3-19.5 7.3h10z"/><path class="st6" d="M278 569.7h9.9c-7.4 0-14.2-2.7-19.5-7.3 1.2 4.2 5 7.3 9.6 7.3z"/><path class="st8" d="M327.5 559.8c0 5.5 4.4 9.9 9.9 9.9H397c5.5 0 9.9-4.4 9.9-9.9s-4.4-9.9-9.9-9.9h-56.3c-3 1.2-6.1 1.8-9.2 2-2.4 1.8-4 4.7-4 7.9z"/><path class="st6" d="M436.6 569.7h19.8c5.5 0 9.9-4.4 9.9-9.9s-4.4-9.9-9.9-9.9h-19.8c-5.5 0-9.9 4.4-9.9 9.9s4.4 9.9 9.9 9.9z"/><path class="st8" d="M129.2 599.4c0 5.5 4.4 9.9 9.9 9.9h59.5c5.5 0 9.9-4.4 9.9-9.9s-4.4-9.9-9.9-9.9h-59.5c-5.4 0-9.9 4.5-9.9 9.9z"/><path class="st6" d="M109.4 599.4c0-5.5-4.4-9.9-9.9-9.9H79.6c-5.5 0-9.9 4.4-9.9 9.9s4.4 9.9 9.9 9.9h19.8c5.5.1 10-4.4 10-9.9zm128.9 10h19.8c5.5 0 9.9-4.4 9.9-9.9s-4.4-9.9-9.9-9.9h-19.8c-5.5 0-9.9 4.4-9.9 9.9s4.4 9.9 9.9 9.9z"/><path class="st8" d="M297.8 609.4h59.5c5.5 0 9.9-4.4 9.9-9.9s-4.4-9.9-9.9-9.9h-59.5c-5.5 0-9.9 4.4-9.9 9.9s4.4 9.9 9.9 9.9zm218.1-19.9h-59.5c-5.5 0-9.9 4.4-9.9 9.9s4.4 9.9 9.9 9.9h59.5c5.5 0 9.9-4.4 9.9-9.9s-4.4-9.9-9.9-9.9z"/><path class="st6" d="M397 609.4h19.8c5.5 0 9.9-4.4 9.9-9.9s-4.4-9.9-9.9-9.9H397c-5.5 0-9.9 4.4-9.9 9.9s4.4 9.9 9.9 9.9z"/><path class="st8" d="M178.8 629.2c-5.5 0-9.9 4.4-9.9 9.9s4.4 9.9 9.9 9.9h59.5c5.5 0 9.9-4.4 9.9-9.9s-4.4-9.9-9.9-9.9h-59.5z"/><path class="st6" d="M149 639.1c0-5.5-4.4-9.9-9.9-9.9h-19.8c-5.5 0-9.9 4.4-9.9 9.9s4.4 9.9 9.9 9.9h19.8c5.5 0 9.9-4.4 9.9-9.9zm158.7 0c0-5.5-4.4-9.9-9.9-9.9H278c-5.5 0-9.9 4.4-9.9 9.9s4.4 9.9 9.9 9.9h19.8c5.5 0 9.9-4.4 9.9-9.9z"/><path class="st8" d="M337.5 629.2c-5.5 0-9.9 4.4-9.9 9.9s4.4 9.9 9.9 9.9H397c5.5 0 9.9-4.4 9.9-9.9s-4.4-9.9-9.9-9.9h-59.5z"/><path class="st6" d="M466.4 639.1c0-5.5-4.4-9.9-9.9-9.9h-19.8c-5.5 0-9.9 4.4-9.9 9.9s4.4 9.9 9.9 9.9h19.8c5.4 0 9.9-4.4 9.9-9.9z"/><path class="st8" d="M198.6 668.9h-59.5c-5.5 0-9.9 4.4-9.9 9.9s4.4 9.9 9.9 9.9h59.5c5.5 0 9.9-4.4 9.9-9.9s-4.4-9.9-9.9-9.9z"/><path class="st6" d="M99.5 668.9H79.6c-5.5 0-9.9 4.4-9.9 9.9s4.4 9.9 9.9 9.9h19.8c5.5 0 9.9-4.4 9.9-9.9.1-5.5-4.4-9.9-9.8-9.9zm158.6 0h-19.8c-5.5 0-9.9 4.4-9.9 9.9s4.4 9.9 9.9 9.9h19.8c5.5 0 9.9-4.4 9.9-9.9s-4.4-9.9-9.9-9.9z"/><path class="st8" d="M357.3 668.9h-59.5c-5.5 0-9.9 4.4-9.9 9.9s4.4 9.9 9.9 9.9h59.5c5.5 0 9.9-4.4 9.9-9.9s-4.4-9.9-9.9-9.9z"/><path class="st6" d="M416.8 668.9H397c-5.5 0-9.9 4.4-9.9 9.9s4.4 9.9 9.9 9.9h19.8c5.5 0 9.9-4.4 9.9-9.9s-4.4-9.9-9.9-9.9z"/><path class="st8" d="M79.6 649c5.5 0 9.9-4.4 9.9-9.9s-4.4-9.9-9.9-9.9H38.2l1.5 5.4 3.9 14.4h36z"/><path class="st6" d="M49.9 599.4c0-5.5-4.4-9.9-9.9-9.9H27.3l2.8 10.3 2.6 9.6H40c5.4 0 9.9-4.5 9.9-10z"/><path class="st8" d="M79.6 569.7c5.5 0 9.9-4.4 9.9-9.9s-4.4-9.9-9.9-9.9H20.1c-1.2 0-2.3.3-3.4.7l5.2 19.1h57.7zM40 530c5.5 0 9.9-4.4 9.9-9.9s-4.4-9.9-9.9-9.9H5.7l2.1 7.5 3.4 12.3H40z"/><path class="st6" d="M555.6 510.2c-5.5 0-9.9 4.4-9.9 9.9s4.4 9.9 9.9 9.9h9l3.4-12.3 2.1-7.5h-14.5z"/><path class="st8" d="M496.1 549.9c-5.5 0-9.9 4.4-9.9 9.9s4.4 9.9 9.9 9.9h57.7l5.2-19.1c-1.1-.4-2.2-.7-3.4-.7h-59.5zm-9.9 89.2c0 5.5 4.4 9.9 9.9 9.9h36.1l3.9-14.4 1.5-5.4h-41.5c-5.5 0-9.9 4.4-9.9 9.9zm-39.7 39.7c0 5.5 4.4 9.9 9.9 9.9h59.5c2.3 0 4.3-.9 6-2.2L525 675c-1.5-3.6-5-6.1-9.1-6.1h-59.5c-5.4 0-9.9 4.4-9.9 9.9z"/><path class="st2" d="M436.6 391.2c0 9.2-4.1 24.7-10.6 36.7 1.3 1.1 2.6 2.3 3.7 3.7 12-6.5 27.6-10.6 36.7-10.6 3.1 0 6 .5 8.8 1.3 3.3-6.6 4-14.1 2.1-21.1-1.3-4.8-3.8-9.4-7.6-13.2-.6-.6-1.1-1.1-1.7-1.6-6.1-5.2-13.8-7.6-21.4-7.1-3.9.3-7.7 1.3-11.2 3.1.8 2.8 1.2 5.7 1.2 8.8zm38.6 87.9c-2.8.9-5.8 1.3-8.8 1.3-9.2 0-24.7-4.1-36.7-10.6-1.1 1.3-2.3 2.6-3.7 3.7 6.5 12 10.6 27.6 10.6 36.7 0 3.1-.5 6.1-1.3 8.8 3.6 1.8 7.5 2.8 11.5 3.1 8.2.5 16.6-2.3 22.9-8.6 1-1 2-2.2 2.8-3.3 4.3-5.8 6.3-12.9 5.8-19.8-.3-3.9-1.3-7.7-3.1-11.3zm-87.4-5.6c-1.3-1.1-2.6-2.3-3.7-3.7-2.5 1.3-5.1 2.6-7.8 3.7.5 2.2.8 4.5.8 6.9 0 16.4-13.3 29.7-29.7 29.7-9.2 0-24.7-4.1-36.7-10.6-1.1 1.3-2.3 2.6-3.7 3.7 6.5 12 10.6 27.6 10.6 36.7 0 3.1-.5 6.1-1.3 8.8 4.7 2.4 10 3.4 15.2 3.1 3.1-.2 6.2-.9 9.2-2 3.6-1.5 7.1-3.6 10-6.6 3.8-3.8 6.4-8.4 7.7-13.3.7-2.7 1.1-5.5 1-8.3 2.5.5 5.1.6 7.6.4 3.9-.3 7.8-1.3 11.4-3.1-.9-2.8-1.3-5.7-1.3-8.8 0-9.1 4.2-24.6 10.7-36.6z"/><path class="st3" d="M436.6 510.2c0-9.2-4.1-24.7-10.6-36.7-5.2 4.3-11.8 7-19.1 7-7.3 0-13.9-2.6-19.1-7-6.5 12-10.6 27.6-10.6 36.7 0 3 .5 6 1.3 8.8 3.7 12.2 15.1 21 28.4 21 13.3 0 24.6-8.8 28.4-20.9.9-2.9 1.3-5.8 1.3-8.9zm-58.1-127.9c-.9 2.8-1.4 5.8-1.4 8.9 0 9.2 4.1 24.7 10.6 36.7 5.2-4.3 11.8-7 19.1-7s13.9 2.6 19.1 7c6.5-12 10.6-27.6 10.6-36.7 0-3.1-.5-6-1.3-8.8-1.6-5.2-4.6-9.8-8.6-13.4-5.3-4.7-12.2-7.6-19.8-7.6-13.3 0-24.5 8.8-28.3 20.9zm-1.4 68.4c0-7.3 2.6-13.9 7-19.1-9.5-5.2-21.3-8.8-30.3-10.1 6.5 9 7.3 20.8 2.4 30.6-2.8-.9-5.7-1.3-8.8-1.3-9.2 0-24.7 4.1-36.7 10.6 4.3 5.2 7 11.8 7 19.1s-2.6 13.9-7 19.1c12 6.5 27.6 10.6 36.7 10.6 16.4 0 29.7-13.3 29.7-29.7 0-2.4-.3-4.7-.8-6.9 2.7-1.1 5.3-2.4 7.8-3.7-4.4-5.3-7-11.9-7-19.2zm59.5 0c0 7.3-2.6 13.9-7 19.1 12 6.5 27.6 10.6 36.7 10.6 3.1 0 6.1-.5 8.8-1.3 1.8-.6 3.6-1.3 5.2-2.2 5-2.7 9.1-6.7 11.8-11.6 1.1.7 2.1 1.5 3.1 2.3 6.5-12 10.6-27.6 10.6-36.7 0-3.1-.5-6-1.3-8.8-1.9-6.2-5.8-11.5-10.8-15.2-2.6-1.9-5.4-3.4-8.5-4.3-2.6-.8-5.3-1.3-8.1-1.4 1.9 7 1.2 14.5-2.1 21.1-2.8-.9-5.7-1.3-8.8-1.3-9.2 0-24.7 4.1-36.7 10.6 4.5 5.1 7.1 11.8 7.1 19.1z"/><path class="st4" d="M406.9 420.9c-7.3 0-13.9 2.6-19.1 7-1.3 1.1-2.6 2.3-3.7 3.7-4.3 5.2-7 11.8-7 19.1 0 7.3 2.6 13.9 7 19.1 1.1 1.3 2.3 2.6 3.7 3.7 5.2 4.3 11.8 7 19.1 7 7.3 0 13.9-2.6 19.1-7 1.3-1.1 2.6-2.3 3.7-3.7 4.3-5.2 7-11.8 7-19.1 0-7.3-2.6-13.9-7-19.1-1.1-1.3-2.3-2.6-3.7-3.7-5.2-4.3-11.9-7-19.1-7zm-14.1 29.8c0-7.8 6.3-14.1 14.1-14.1s14.1 6.3 14.1 14.1-6.3 14.1-14.1 14.1-14.1-6.3-14.1-14.1z"/><circle class="st5" cx="406.9" cy="450.7" r="14.1"/><path class="st2" d="M103.2 391.5c-2.2 3-3.7 6.2-4.6 9.6-1.9 7-1.2 14.5 2.1 21.1 2.8-.8 5.7-1.3 8.7-1.3 9.2 0 24.7 4.1 36.7 10.6 1.1-1.3 2.3-2.6 3.7-3.7-6.5-12-10.6-27.6-10.6-36.7 0-3.1.5-6.1 1.4-8.9-3.6-1.8-7.4-2.8-11.3-3-2.5-.2-4.9 0-7.4.4-5.7 1.1-11.2 3.8-15.6 8.2-1.2 1.2-2.2 2.4-3.1 3.7zm35.9 118.7c0-9.2 4.1-24.7 10.6-36.7-1.3-1.1-2.6-2.3-3.7-3.7-12 6.5-27.6 10.6-36.7 10.6-3.1 0-6.1-.5-8.9-1.4-1.8 3.6-2.8 7.4-3.1 11.3-.5 7.4 1.7 14.9 6.7 21 .6.7 1.2 1.4 1.9 2.1.7.7 1.5 1.4 2.2 2 6.1 5 13.7 7.2 21.2 6.6 3.8-.3 7.6-1.3 11-3.1-.7-2.7-1.2-5.7-1.2-8.7z"/><path class="st3" d="M198.6 510.2c0-9.2-4.1-24.7-10.6-36.7-5.2 4.3-11.8 7-19.1 7s-13.9-2.6-19.1-7c-6.5 12-10.6 27.6-10.6 36.7 0 3 .5 6 1.3 8.8 1.3 4.2 3.4 7.9 6.3 11.1 5.4 6.1 13.4 9.9 22.2 9.9 8.8 0 16.7-3.8 22.2-9.9 2.8-3.1 5-6.9 6.2-11 .8-2.9 1.2-5.8 1.2-8.9zm-29.7-89.3c7.3 0 13.9 2.6 19.1 7 6.5-12 10.6-27.6 10.6-36.7 0-3.1-.5-6-1.3-8.8-3.8-12.1-15.1-20.9-28.4-20.9-7.6 0-14.6 2.9-19.8 7.6-3.9 3.5-6.9 8.1-8.6 13.3-.9 2.8-1.4 5.8-1.4 8.9 0 9.2 4.1 24.7 10.6 36.7 5.2-4.4 11.9-7.1 19.2-7.1zm-73.6 56c1.6.9 3.4 1.6 5.2 2.2 2.8.9 5.8 1.4 8.9 1.4 9.2 0 24.7-4.1 36.7-10.6-4.3-5.2-7-11.8-7-19.1 0-7.3 2.6-13.9 7-19.1-12-6.5-27.6-10.6-36.7-10.6-3 0-6 .5-8.7 1.3-3.3-6.6-4-14.1-2.1-21.1H98c-11.9.6-22 8.2-26.1 18.8-.3.7-.5 1.3-.7 2-.9 2.8-1.4 5.8-1.4 8.9 0 9.2 4.1 24.7 10.6 36.7 1-.8 2-1.6 3.1-2.3 2.7 4.8 6.8 8.8 11.8 11.5z"/><path class="st4" d="M139.1 450.7c0 7.3 2.6 13.9 7 19.1 1.1 1.3 2.3 2.6 3.7 3.7 5.2 4.3 11.8 7 19.1 7s13.9-2.6 19.1-7c1.3-1.1 2.6-2.3 3.7-3.7 4.3-5.2 7-11.8 7-19.1s-2.6-13.9-7-19.1c-1.1-1.3-2.3-2.6-3.7-3.7-5.2-4.3-11.8-7-19.1-7s-13.9 2.6-19.1 7c-1.3 1.1-2.6 2.3-3.7 3.7-4.4 5.1-7 11.8-7 19.1zm15.7 0c0-7.8 6.3-14.1 14.1-14.1s14.1 6.3 14.1 14.1-6.3 14.1-14.1 14.1-14.1-6.3-14.1-14.1z"/><circle class="st5" cx="168.9" cy="450.7" r="14.1"/><path class="st2" d="M219.6 452c2.8-.8 5.7-1.3 8.7-1.3 9.2 0 24.7 4.1 36.7 10.6 1.1-1.3 2.3-2.6 3.7-3.7-6.5-12-10.6-27.6-10.6-36.7 0-3.1.5-6.1 1.4-8.9-1.4-.7-2.8-1.3-4.3-1.7-4.8-1.5-10-1.8-14.9-.8.1-7.8-2.7-15.6-8.7-21.6-9.3-9.3-23.2-11.1-34.3-5.6.9 2.8 1.3 5.7 1.3 8.8 0 9.2-4.1 24.7-10.6 36.7 1.3 1.1 2.6 2.3 3.7 3.7 9.5-5.2 21.3-8.8 30.3-10.1-6.4 9.1-7.2 20.9-2.4 30.6zm98-31.1c0 9.2-4.1 24.7-10.6 36.7 1.3 1.1 2.6 2.3 3.7 3.7 12-6.5 27.6-10.6 36.7-10.6 3.1 0 6 .5 8.8 1.3 4.9-9.7 4.1-21.5-2.4-30.6 9 1.3 20.8 5 30.3 10.1 1.1-1.3 2.3-2.6 3.7-3.7-6.5-12-10.6-27.6-10.6-36.7 0-3.1.5-6.1 1.4-8.9-11.1-5.5-25-3.7-34.3 5.6-6 6-8.9 13.9-8.7 21.7-2.3-.5-4.7-.6-7.1-.5-4.2.2-8.3 1.2-12.1 3.1.8 2.8 1.2 5.8 1.2 8.8zm-48.8 82.3c-1.3-1.1-2.6-2.3-3.7-3.7-12 6.5-27.6 10.6-36.7 10.6-16.4 0-29.7-13.3-29.7-29.7 0-2.4.3-4.7.8-6.9-2.7-1.1-5.3-2.4-7.8-3.7-1.1 1.3-2.3 2.6-3.7 3.7 6.5 12 10.6 27.6 10.6 36.7 0 3.1-.5 6.1-1.3 8.8 3.5 1.8 7.2 2.8 11.1 3.1 2.7.2 5.3.1 8-.4-.1 7.8 2.8 15.6 8.7 21.5 3 3 6.5 5.2 10.2 6.7 2.9 1.1 5.9 1.8 9 2 5.2.3 10.5-.7 15.2-3.1-.9-2.8-1.3-5.7-1.3-8.8-.1-9.2 4.1-24.8 10.6-36.8z"/><path class="st3" d="M307 503.2c-5.2 4.3-11.8 7-19.1 7s-13.9-2.6-19.1-7c-6.5 12-10.6 27.6-10.6 36.7 0 3 .5 6 1.3 8.8 1.7 5.4 4.8 10.1 9 13.7 5.2 4.5 12 7.3 19.5 7.3s14.2-2.7 19.5-7.3c4.1-3.6 7.3-8.3 9-13.6.9-2.8 1.3-5.8 1.3-8.8-.2-9.2-4.3-24.8-10.8-36.8zm9.3-91.1c-3.8-12.1-15.1-20.9-28.4-20.9h-.3c-4.1 0-7.9.9-11.4 2.4-7.9 3.4-14 10.1-16.6 18.4-.9 2.8-1.4 5.8-1.4 8.9 0 9.2 4.1 24.7 10.6 36.7 5.2-4.3 11.8-7 19.1-7s13.9 2.6 19.1 7c6.5-12 10.6-27.6 10.6-36.7 0-3-.4-6-1.3-8.8zm-58.2 68.3c0-7.3 2.6-13.9 7-19.1-12-6.5-27.6-10.6-36.7-10.6-3 0-6 .5-8.7 1.3-4.9-9.7-4.1-21.5 2.3-30.5-9 1.3-20.8 5-30.3 10.1 4.3 5.2 7 11.8 7 19.1 0 7.3-2.6 13.9-7 19.1 2.5 1.3 5.1 2.6 7.8 3.7-.5 2.2-.8 4.5-.8 6.9 0 16.4 13.3 29.7 29.7 29.7 9.2 0 24.7-4.1 36.7-10.6-4.4-5.1-7-11.8-7-19.1z"/><path class="st4" d="M317.6 480.4c0-7.3-2.6-13.9-7-19.1-1.1-1.3-2.3-2.6-3.7-3.7-5.2-4.3-11.8-7-19.1-7s-13.9 2.6-19.1 7c-1.3 1.1-2.6 2.3-3.7 3.7-4.3 5.2-7 11.8-7 19.1 0 7.3 2.6 13.9 7 19.1 1.1 1.3 2.3 2.6 3.7 3.7 5.2 4.3 11.8 7 19.1 7s13.9-2.6 19.1-7c1.3-1.1 2.6-2.3 3.7-3.7 4.4-5.1 7-11.8 7-19.1zm-43.8 0c0-7.8 6.3-14.1 14.1-14.1s14.1 6.3 14.1 14.1-6.3 14.1-14.1 14.1-14.1-6.3-14.1-14.1z"/><circle class="st5" cx="287.9" cy="480.4" r="14.1"/></svg>