<svg id="Capa_1" xmlns="http://www.w3.org/2000/svg" viewBox="0 164.3 595.3 513.2"><style>.st0{fill:#82c888}.st1{fill:#73aa82}.st2{fill:#ffd7a5}.st3{fill:#ffc38c}.st4{fill:#ffe6cd}.st5{fill:#ffc882}.st6{fill:#dca069}</style><path class="st0" d="M519 479.9c-.1-.1-.2-.2-.3-.2-2.4 1-4.8 1.9-7.3 2.7 13.8 27.3 9.8 61.3-11.9 84.8l49.4 49.4c4 4 4 10.5 0 14.5-2 2-4.6 3-7.3 3-2.6 0-5.2-1-7.3-3l-50.8-50.8c-22.3 13.7-50.1 14.7-73.2 3.1-2.3 7.4-5.7 14.3-10 20.5 57.4 55.9 130.8 80.9 193.1 71.9 9.3-63.3-16.6-138.1-74.4-195.9z"/><path class="st1" d="M483.5 580.3l50.8 50.8c2 2 4.6 3 7.3 3 2.6 0 5.2-1 7.3-3 4-4 4-10.5 0-14.5l-49.4-49.4c-.7.7-1.4 1.5-2.1 2.2-4.3 4.3-8.9 7.9-13.9 10.9z"/><path class="st2" d="M406.7 464.2l40.6 40.6c4 4 4 10.5 0 14.5-2 2-4.6 3-7.3 3s-5.2-1-7.3-3l-40.6-40.6c13.3 28.4 21.6 61.8 21.6 82.3 0 7.8-1.2 15.3-3.4 22.4 23.1 11.6 50.9 10.6 73.2-3.1 4.9-3 9.6-6.7 13.9-10.9.7-.7 1.4-1.4 2.1-2.2 21.7-23.5 25.7-57.5 11.9-84.8-7.1 2.2-14.6 3.4-22.4 3.4-20.5 0-53.9-8.3-82.3-21.6zm-121.8 14.5l-40.6 40.6c-2 2-4.6 3-7.3 3-2.6 0-5.2-1-7.3-3-4-4-4-10.5 0-14.5l40.6-40.6c-28.4 13.3-61.8 21.6-82.3 21.6-7.9 0-15.5-1.2-22.6-3.5-14.1 28.2-9.5 63.4 14.1 86.9 23.6 23.6 58.9 28.2 87.1 14-2.2-7-3.3-14.5-3.3-22.2 0-20.5 8.2-53.8 21.6-82.3z"/><path class="st0" d="M113.6 420.8h-52c-5.7 0-10.3-4.6-10.3-10.3 0-5.7 4.6-10.3 10.3-10.3h52c4-29.3 24.8-53.2 52.4-61.7-.3-.6-.6-1.3-.9-1.9L97.3 290c-4.7-3.2-5.9-9.6-2.6-14.3 3.2-4.7 9.6-5.9 14.3-2.6l49 33.9c-.5-16.7 4.6-33.4 15.1-47.4-42.2-19-85.8-23.2-120.9-12.8 2.8 35.7 21.6 74 53.3 106.1-45 8.4-82.8 29.5-105.5 57.6 29.1 36 82.8 60.5 144.8 61.5-16.7-11.7-28.4-30-31.2-51.2z"/><path class="st1" d="M51.3 410.5c0 5.7 4.6 10.3 10.3 10.3h52c-.5-3.4-.7-6.8-.7-10.3 0-3.5.3-6.9.7-10.3h-52c-5.7.1-10.3 4.7-10.3 10.3zm57.5-137.3c-4.7-3.2-11.1-2-14.3 2.6-3.2 4.7-2 11.1 2.6 14.3l67.8 46.6c-4.4-9.4-6.7-19.5-7-29.7l-49.1-33.8z"/><path class="st0" d="M463.8 232.5l20.3-25.9c3.5-4.5 9.9-5.3 14.4-1.8s5.3 9.9 1.8 14.4l-17 21.7c5 3 9.6 6.7 13.9 11 7.3 7.3 12.8 15.7 16.5 24.8 18.6-38.7 24.1-78.9 16.4-112.3-41.3.7-87.5 22.5-124.6 61.4 2 3.8 3.6 7.8 4.9 12 16.7-8.4 35.7-10.1 53.4-5.3z"/><path class="st1" d="M500.3 219.2c3.5-4.5 2.7-10.9-1.8-14.4s-10.9-2.7-14.4 1.8l-20.3 25.9c6.8 1.8 13.3 4.6 19.5 8.4l17-21.7z"/><path class="st2" d="M158 307c.3 10.2 2.6 20.3 7 29.7.3.6.6 1.3.9 1.9 7-2.1 14.4-3.3 22.1-3.3 20.5 0 53.8 8.2 82.3 21.6l-40.6-40.6c-4-4-4-10.5 0-14.5s10.5-4 14.5 0l40.6 40.6c-13.3-28.4-21.6-61.8-21.6-82.3 0-7.9 1.2-15.4 3.4-22.5-28.2-14-63.3-9.3-86.7 14.1-2.5 2.5-4.8 5.2-6.9 7.9-10.4 14-15.4 30.8-15 47.4zm325.3-66.1c-6.1-3.8-12.7-6.6-19.5-8.4-17.7-4.8-36.8-3.1-53.4 5.3 2.2 7.1 3.4 14.5 3.4 22.3 0 20.5-8.2 53.8-21.6 82.3l40.6-40.6c4-4 10.5-4 14.5 0s4 10.5 0 14.5l-40.6 40.6c28.4-13.3 61.8-21.6 82.3-21.6 7.8 0 15.3 1.2 22.3 3.4 9.7-19.4 10.5-42.1 2.4-62.1-3.7-9-9.2-17.4-16.5-24.8-4.3-4.2-9-7.9-13.9-10.9z"/><path class="st3" d="M293.1 451.6c-6.9 4.6-14.6 8.8-22.7 12.6l-40.6 40.6c-4 4-4 10.5 0 14.5 2 2 4.6 3 7.3 3 2.6 0 5.2-1 7.3-3l40.6-40.6c3.8-8.1 8-15.8 12.6-22.7-1.7-1.4-3.1-2.8-4.5-4.4zm90.9-82.1c6.9-4.6 14.6-8.8 22.7-12.6l40.6-40.6c4-4 4-10.5 0-14.5s-10.5-4-14.5 0l-40.6 40.6c-3.8 8.1-8 15.8-12.6 22.7 1.5 1.4 3 2.8 4.4 4.4zm56.1 152.9c2.6 0 5.2-1 7.3-3 4-4 4-10.5 0-14.5l-40.6-40.6c-8.1-3.8-15.8-8-22.7-12.6-1.4 1.5-2.8 3-4.4 4.4 4.6 6.9 8.8 14.6 12.6 22.7l40.6 40.6c1.9 2 4.6 3 7.2 3zM297.4 365.1c-4.6-6.9-8.8-14.6-12.6-22.7l-40.6-40.6c-4-4-10.5-4-14.5 0s-4 10.5 0 14.5l40.6 40.6c8.1 3.8 15.8 8 22.7 12.6 1.5-1.6 2.9-3 4.4-4.4z"/><path class="st4" d="M413.8 561c0-20.5-8.2-53.8-21.6-82.3-3.8-8.1-8-15.8-12.6-22.7-8.5 7.7-19.1 13-30.8 14.9v83.2c0 5.7-4.6 10.3-10.3 10.3-5.7 0-10.3-4.6-10.3-10.3v-83.2c-11.7-2-22.4-7.3-30.8-14.9-4.6 6.9-8.8 14.6-12.6 22.7-13.3 28.4-21.6 61.8-21.6 82.3 0 7.7 1.2 15.2 3.3 22.2 9.5 30.7 38.1 53 71.9 53 25.6 0 48.2-12.8 61.8-32.4 4.3-6.2 7.7-13.1 10-20.5 2.4-7 3.6-14.5 3.6-22.3zM284.9 342.4c3.8 8.1 8 15.8 12.6 22.7 8.5-7.7 19.1-13 30.8-14.9V267c0-5.7 4.6-10.3 10.3-10.3 5.7 0 10.3 4.6 10.3 10.3v83.2c11.7 2 22.4 7.3 30.8 14.9 4.6-6.9 8.8-14.6 12.6-22.7 13.3-28.4 21.6-61.8 21.6-82.3 0-7.8-1.2-15.3-3.4-22.3-1.3-4.2-3-8.2-4.9-12-12.5-24.3-37.8-40.9-66.9-40.9-33.7 0-62.2 22.2-71.8 52.7-2.2 7.1-3.4 14.7-3.4 22.5-.2 20.5 8 53.8 21.4 82.3zm-14.5 121.8c8.1-3.8 15.8-8 22.7-12.6-7.7-8.5-13-19.1-14.9-30.8H195c-5.7 0-10.3-4.6-10.3-10.3 0-5.7 4.6-10.3 10.3-10.3h83.2c2-11.7 7.3-22.4 14.9-30.8-6.9-4.6-14.6-8.8-22.7-12.6-28.4-13.3-61.8-21.6-82.3-21.6-7.7 0-15.1 1.2-22.1 3.3-27.6 8.5-48.4 32.4-52.4 61.7-.5 3.4-.7 6.8-.7 10.3 0 3.5.3 6.9.7 10.3 2.9 21.1 14.6 39.5 31.2 51.2 6.3 4.4 13.2 7.9 20.7 10.3 7.1 2.2 14.7 3.5 22.6 3.5 20.5 0 53.8-8.3 82.3-21.6zm136.3-107.3c-8.1 3.8-15.8 8-22.7 12.6 7.7 8.5 13 19.1 14.9 30.8h83.2c5.7 0 10.3 4.6 10.3 10.3 0 5.7-4.6 10.3-10.3 10.3h-83.2c-2 11.7-7.3 22.4-14.9 30.8 6.9 4.6 14.6 8.8 22.7 12.6 28.4 13.3 61.8 21.6 82.3 21.6 7.8 0 15.3-1.2 22.4-3.4 2.5-.8 4.9-1.7 7.3-2.7 26.8-11.5 45.5-38.1 45.5-69.1 0-33.8-22.3-62.4-52.9-71.9-7.1-2.2-14.5-3.4-22.3-3.4-20.5-.1-53.9 8.1-82.3 21.5z"/><path class="st2" d="M277.3 410.5c0-3.5.3-6.9.9-10.3H195c-5.7 0-10.3 4.6-10.3 10.3 0 5.7 4.6 10.3 10.3 10.3h83.2c-.6-3.3-.9-6.8-.9-10.3zm122.5 0c0 3.5-.3 6.9-.9 10.3h83.2c5.7 0 10.3-4.6 10.3-10.3 0-5.7-4.6-10.3-10.3-10.3h-83.2c.6 3.4.9 6.8.9 10.3zm-61.3 61.3c-3.5 0-6.9-.3-10.3-.9v83.2c0 5.7 4.6 10.3 10.3 10.3 5.7 0 10.3-4.6 10.3-10.3v-83.2c-3.3.6-6.8.9-10.3.9zm0-122.5c3.5 0 6.9.3 10.3.9V267c0-5.7-4.6-10.3-10.3-10.3-5.7 0-10.3 4.6-10.3 10.3v83.2c3.4-.6 6.8-.9 10.3-.9z"/><path class="st5" d="M384 451.6c7.7-8.5 13-19.1 14.9-30.8.6-3.3.9-6.8.9-10.3 0-3.5-.3-6.9-.9-10.3-2-11.7-7.3-22.4-14.9-30.8-1.4-1.5-2.8-3-4.4-4.4-8.5-7.7-19.1-13-30.8-14.9-3.3-.6-6.8-.9-10.3-.9s-6.9.3-10.3.9c-11.7 2-22.4 7.3-30.8 14.9-1.5 1.4-3 2.8-4.4 4.4-7.7 8.5-13 19.1-14.9 30.8-.6 3.3-.9 6.8-.9 10.3s.3 6.9.9 10.3c2 11.7 7.3 22.4 14.9 30.8 1.4 1.5 2.8 3 4.4 4.4 8.5 7.7 19.1 13 30.8 14.9 3.3.6 6.8.9 10.3.9s6.9-.3 10.3-.9c11.7-2 22.4-7.3 30.8-14.9 1.5-1.4 3-2.8 4.4-4.4zM338.5 441c-16.8 0-30.5-13.7-30.5-30.5s13.7-30.5 30.5-30.5 30.5 13.7 30.5 30.5c0 16.9-13.6 30.5-30.5 30.5z"/><circle class="st6" cx="338.5" cy="410.5" r="30.5"/></svg>