<svg id="Capa_1" xmlns="http://www.w3.org/2000/svg" viewBox="55 123.3 485.4 595.3"><style>.st0{fill:#fac176}.st1{fill:#e8e8d3}.st2{fill:#ecf0f1}.st3{fill:#bdc3c7}.st4{fill:#556080}.st5{fill:#fdd7ad}.st6{fill:#6d8c60}</style><path class="st0" d="M273.7 604.2v-33.9c-.8-.7-1.7-1.2-2.5-2L150.4 445.4c-6.3-5.4 10.1 5.2 16.1 2.3l47.3 10.9 145.6 145.6h-85.7zm94.6 0h113.4v-46.9c18.9-14.2 31.2-36.8 31.2-62.3 0-10.5-2.1-20.4-5.9-29.5L368.3 604.2z"/><path class="st1" d="M231.4 123.3L55 299.8l95.6 95.6c6.5-5.9 15-9.6 24.4-9.6h104c20 0 36.4 16.4 36.4 36.4S299 458.6 279 458.6h-65.2l150.1 150.1 176.5-176.5-309-308.9z"/><path class="st2" d="M252.9 604.2h249.6v114.4H252.9z"/><path class="st3" d="M419.3 718.6H252.9V604.2h98c37.8 0 68.4 30.6 68.4 68.4v46z"/><circle class="st4" cx="351.7" cy="661.4" r="26"/><path class="st0" d="M335.1 226.7c12.8-5.6 21.8-18.4 21.8-33.3 0-20.1-16.3-36.4-36.4-36.4-14.9 0-27.7 9-33.3 21.8l47.9 47.9z"/><path class="st0" d="M387.1 278.7c12.8-5.6 21.8-18.4 21.8-33.3 0-20.1-16.3-36.4-36.4-36.4-14.9 0-27.7 9-33.3 21.8l47.9 47.9z"/><path class="st0" d="M439.1 330.7c12.8-5.6 21.8-18.4 21.8-33.3 0-20.1-16.3-36.4-36.4-36.4-14.9 0-27.7 9-33.3 21.8l47.9 47.9z"/><path class="st0" d="M491.1 382.7c12.8-5.6 21.8-18.4 21.8-33.3 0-20.1-16.3-36.4-36.4-36.4-14.9 0-27.7 9-33.3 21.8l47.9 47.9z"/><path class="st5" d="M278.9 458.6h-104c-20 0-36.4-16.4-36.4-36.4s16.4-36.4 36.4-36.4h104c20 0 36.4 16.4 36.4 36.4s-16.3 36.4-36.4 36.4z"/><path class="st6" d="M297.6 248.3c-4.1 4.1-10.6 4.1-14.7 0l-22.8-22.8c-16.9 11.2-40.5 11.2-57.4 0l-45.6 45.6c11.5 17.3 11.5 40 0 57.4l22.8 22.8c4.1 4.1 4.1 10.6 0 14.7-2 2-4.7 3-7.4 3s-5.3-1-7.4-3l-36.8-36.8 7.4-7.4c12.2-12.2 12.2-32 0-44.1l-7.4-7.4 73.5-73.5 7.4 7.4c11.8 11.8 32.3 11.8 44.1 0l7.4-7.4 36.8 36.8c4.2 4.1 4.2 10.7.1 14.7zm169.2 154.5L430 366c-4.1-4.1-10.6-4.1-14.7 0s-4.1 10.6 0 14.7l22.8 22.8c-11.5 17.3-11.5 40 0 57.4l-45.6 45.6c-16.9-11.2-40.5-11.2-57.4 0l-22.8-22.8c-4.1-4.1-10.6-4.1-14.7 0s-4.1 10.6 0 14.7l36.8 36.8 7.4-7.4c11.8-11.8 32.3-11.8 44.1 0l7.4 7.4 73.5-73.5-7.4-7.4c-12.2-12.2-12.2-32 0-44.1l7.4-7.4zm22 22c-4.1-4.1-10.6-4.1-14.7 0s-4.1 10.6 0 14.7 10.6 4.1 14.7 0c4.1-4 4.1-10.6 0-14.7zM356.5 542.5c-4.1 4.1-4.1 10.6 0 14.7s10.6 4.1 14.7 0 4.1-10.6 0-14.7-10.7-4.1-14.7 0zm-117.7-353c4.1-4.1 4.1-10.6 0-14.7s-10.6-4.1-14.7 0-4.1 10.6 0 14.7c4.1 4 10.6 4 14.7 0zM106.4 292.4c-4.1 4.1-4.1 10.6 0 14.7s10.6 4.1 14.7 0 4.1-10.6 0-14.7c-4-4-10.6-4-14.7 0z"/><path class="st6" d="M363.8 299.8c-36.6-36.6-95.8-36.6-132.4 0-23.3 23.3-31.7 56-25.2 86h72.7c20 0 36.4 16.4 36.4 36.4 0 18.9-14.6 34.3-33 36.1 28.8 4.7 59.3-3.9 81.5-26.1 36.6-36.6 36.6-95.9 0-132.4z"/></svg>